<svg width="400" height="240" viewBox="0 0 400 240" fill="none" xmlns="http://www.w3.org/2000/svg">
<rect x="0.5" y="0.5" width="399" height="238.579" rx="19.5" stroke="black" stroke-opacity="0.1"/>
<path d="M43.2895 28L46.4879 34.8872L54.0264 35.8008L48.4647 40.971L49.9253 48.4229L43.2895 44.731L36.6537 48.4229L38.1143 40.971L32.5525 35.8008L40.091 34.8872L43.2895 28Z" fill="#FFC633"/>
<path d="M72.3552 28L75.5537 34.8872L83.0922 35.8008L77.5304 40.971L78.991 48.4229L72.3552 44.731L65.7194 48.4229L67.18 40.971L61.6183 35.8008L69.1568 34.8872L72.3552 28Z" fill="#FFC633"/>
<path d="M101.421 28L104.619 34.8872L112.158 35.8008L106.596 40.971L108.057 48.4229L101.421 44.731L94.7852 48.4229L96.2458 40.971L90.684 35.8008L98.2225 34.8872L101.421 28Z" fill="#FFC633"/>
<path d="M130.487 28L133.685 34.8872L141.224 35.8008L135.662 40.971L137.123 48.4229L130.487 44.731L123.851 48.4229L125.312 40.971L119.75 35.8008L127.288 34.8872L130.487 28Z" fill="#FFC633"/>
<path d="M159.553 28L162.751 34.8872L170.289 35.8008L164.728 40.971L166.188 48.4229L159.553 44.731L152.917 48.4229L154.377 40.971L148.816 35.8008L156.354 34.8872L159.553 28Z" fill="#FFC633"/>
<path d="M32.4 80.9591V80.0991H34.86V80.9591C34.86 82.0791 35.48 82.9591 36.92 82.9591C38.36 82.9591 38.96 82.1391 38.96 80.8591V70.4591H41.52V80.9991C41.52 83.5791 39.72 85.3391 36.94 85.3391C33.94 85.3391 32.4 83.4791 32.4 80.9591ZM47.2352 85.3391C45.1352 85.3391 43.8552 84.1191 43.8552 82.2591C43.8552 80.4391 45.1752 79.2991 47.5152 79.1191L50.4752 78.8991V78.6791C50.4752 77.3391 49.6752 76.7991 48.4352 76.7991C46.9952 76.7991 46.1952 77.3991 46.1952 78.4391H44.1152C44.1152 76.2991 45.8752 74.8991 48.5552 74.8991C51.2152 74.8991 52.8552 76.3391 52.8552 79.0791V85.0791H50.7152L50.5352 83.6191C50.1152 84.6391 48.7752 85.3391 47.2352 85.3391ZM48.0352 83.4991C49.5352 83.4991 50.4952 82.5991 50.4952 81.0791V80.5591L48.4352 80.7191C46.9152 80.8591 46.3352 81.3591 46.3352 82.1591C46.3352 83.0591 46.9352 83.4991 48.0352 83.4991ZM57.6922 85.0791H55.2522V75.1991H57.4922L57.6922 76.3591C58.1922 75.5391 59.1922 74.8991 60.6122 74.8991C62.1122 74.8991 63.1522 75.6391 63.6722 76.7791C64.1722 75.6391 65.3322 74.8991 66.8322 74.8991C69.2322 74.8991 70.5522 76.3391 70.5522 78.6191V85.0791H68.1322V79.2591C68.1322 77.8391 67.3722 77.0991 66.2122 77.0991C65.0322 77.0991 64.1322 77.8591 64.1322 79.4791V85.0791H61.6922V79.2391C61.6922 77.8591 60.9522 77.1191 59.7922 77.1191C58.6322 77.1191 57.6922 77.8791 57.6922 79.4791V85.0791ZM77.3675 85.3391C74.4275 85.3391 72.3675 83.1991 72.3675 80.1391C72.3675 77.0391 74.3875 74.8991 77.2875 74.8991C80.2475 74.8991 82.1275 76.8791 82.1275 79.9591V80.6991L74.6875 80.7191C74.8675 82.4591 75.7875 83.3391 77.4075 83.3391C78.7475 83.3391 79.6275 82.8191 79.9075 81.8791H82.1675C81.7475 84.0391 79.9475 85.3391 77.3675 85.3391ZM77.3075 76.8991C75.8675 76.8991 74.9875 77.6791 74.7475 79.1591H79.7075C79.7075 77.7991 78.7675 76.8991 77.3075 76.8991ZM83.3203 82.0791H85.6403C85.6603 82.9391 86.3003 83.4791 87.4203 83.4791C88.5603 83.4791 89.1803 83.0191 89.1803 82.2991C89.1803 81.7991 88.9203 81.4391 88.0403 81.2391L86.2603 80.8191C84.4803 80.4191 83.6203 79.5791 83.6203 77.9991C83.6203 76.0591 85.2603 74.8991 87.5403 74.8991C89.7603 74.8991 91.2603 76.1791 91.2803 78.0991H88.9603C88.9403 77.2591 88.3803 76.7191 87.4403 76.7191C86.4803 76.7191 85.9203 77.1591 85.9203 77.8991C85.9203 78.4591 86.3603 78.8191 87.2003 79.0191L88.9803 79.4391C90.6403 79.8191 91.4803 80.5791 91.4803 82.0991C91.4803 84.0991 89.7803 85.3391 87.3403 85.3391C84.8803 85.3391 83.3203 84.0191 83.3203 82.0791ZM101.649 70.4591V82.7191H107.769V85.0791H99.0888V70.4591H101.649ZM111.736 85.3191C110.856 85.3191 110.116 84.5991 110.116 83.7391C110.116 82.8591 110.856 82.1391 111.736 82.1391C112.616 82.1391 113.356 82.8591 113.356 83.7391C113.356 84.5991 112.616 85.3191 111.736 85.3191Z" fill="black"/>
<path d="M131 67.8291C129.072 67.8291 127.187 68.4009 125.583 69.4723C123.98 70.5436 122.73 72.0664 121.992 73.8479C121.254 75.6295 121.061 77.5899 121.437 79.4812C121.814 81.3725 122.742 83.1098 124.106 84.4734C125.469 85.837 127.207 86.7656 129.098 87.1418C130.989 87.518 132.95 87.3249 134.731 86.5869C136.513 85.849 138.035 84.5993 139.107 82.9959C140.178 81.3925 140.75 79.5075 140.75 77.5791C140.747 74.9941 139.719 72.5157 137.891 70.6878C136.063 68.8599 133.585 67.8318 131 67.8291ZM135.281 75.8597L130.031 81.1097C129.961 81.1795 129.878 81.2348 129.787 81.2725C129.696 81.3103 129.599 81.3297 129.5 81.3297C129.401 81.3297 129.304 81.3103 129.213 81.2725C129.122 81.2348 129.039 81.1795 128.969 81.1097L126.719 78.8597C126.579 78.719 126.5 78.5281 126.5 78.3291C126.5 78.1301 126.579 77.9392 126.719 77.7985C126.86 77.6577 127.051 77.5787 127.25 77.5787C127.449 77.5787 127.64 77.6577 127.781 77.7985L129.5 79.5188L134.219 74.7985C134.289 74.7288 134.372 74.6735 134.463 74.6358C134.554 74.5981 134.651 74.5787 134.75 74.5787C134.849 74.5787 134.946 74.5981 135.037 74.6358C135.128 74.6735 135.211 74.7288 135.281 74.7985C135.35 74.8682 135.406 74.9509 135.443 75.0419C135.481 75.133 135.5 75.2306 135.5 75.3291C135.5 75.4276 135.481 75.5252 135.443 75.6163C135.406 75.7073 135.35 75.79 135.281 75.8597Z" fill="#01AB31"/>
<path d="M34.08 107.907L33.776 111.091H33.056L32.736 107.907C32.672 107.347 33.072 107.091 33.424 107.091C33.76 107.091 34.144 107.347 34.08 107.907ZM36.336 107.907L36.032 111.091H35.312L34.992 107.907C34.928 107.347 35.328 107.091 35.68 107.091C36.016 107.091 36.4 107.347 36.336 107.907ZM37.1889 118.579H36.0209L40.2289 107.123H41.6529L45.9089 118.579H44.7089L43.5889 115.539H38.3089L37.1889 118.579ZM40.7889 108.739L38.6609 114.531H43.2209L41.0769 108.739C41.0289 108.579 40.9489 108.387 40.9329 108.275C40.9169 108.371 40.8529 108.579 40.7889 108.739ZM46.6054 116.403H47.6614C47.6614 117.299 48.3334 117.859 49.4214 117.859C50.6214 117.859 51.3254 117.347 51.3254 116.515C51.3254 115.875 51.0054 115.507 50.0934 115.283L48.7654 114.947C47.4214 114.611 46.7654 113.907 46.7654 112.851C46.7654 111.491 47.9014 110.627 49.5654 110.627C51.1974 110.627 52.2534 111.523 52.3014 112.963H51.2294C51.1974 112.067 50.5734 111.539 49.5334 111.539C48.4454 111.539 47.8374 112.003 47.8374 112.835C47.8374 113.427 48.2534 113.843 49.1014 114.051L50.4294 114.387C51.7734 114.723 52.3814 115.347 52.3814 116.467C52.3814 117.859 51.1974 118.771 49.4374 118.771C47.6934 118.771 46.6054 117.843 46.6054 116.403ZM57.9804 116.403H59.0364C59.0364 117.299 59.7084 117.859 60.7964 117.859C61.9964 117.859 62.7004 117.347 62.7004 116.515C62.7004 115.875 62.3804 115.507 61.4684 115.283L60.1404 114.947C58.7964 114.611 58.1404 113.907 58.1404 112.851C58.1404 111.491 59.2764 110.627 60.9404 110.627C62.5724 110.627 63.6284 111.523 63.6764 112.963H62.6044C62.5724 112.067 61.9484 111.539 60.9084 111.539C59.8204 111.539 59.2124 112.003 59.2124 112.835C59.2124 113.427 59.6284 113.843 60.4764 114.051L61.8044 114.387C63.1484 114.723 63.7564 115.347 63.7564 116.467C63.7564 117.859 62.5724 118.771 60.8124 118.771C59.0684 118.771 57.9804 117.843 57.9804 116.403ZM65.0299 114.707C65.0299 112.339 66.6939 110.627 68.9659 110.627C71.2379 110.627 72.9019 112.339 72.9019 114.707C72.9019 117.059 71.2379 118.771 68.9659 118.771C66.6939 118.771 65.0299 117.059 65.0299 114.707ZM66.1499 114.691C66.1499 116.515 67.3019 117.779 68.9659 117.779C70.6139 117.779 71.7819 116.515 71.7819 114.691C71.7819 112.899 70.6139 111.619 68.9659 111.619C67.3019 111.619 66.1499 112.899 66.1499 114.691ZM75.7716 118.579H74.6676V110.835H75.6276L75.7556 111.939C76.1396 111.123 77.0036 110.627 78.0916 110.627C79.3076 110.627 80.2196 111.267 80.5876 112.275C80.9396 111.267 81.8836 110.627 83.1316 110.627C84.8116 110.627 85.9156 111.715 85.9156 113.507V118.579H84.8436V113.731C84.8436 112.403 84.1076 111.619 82.9236 111.619C81.6276 111.619 80.8596 112.595 80.8596 113.795V118.579H79.7716V113.715C79.7716 112.403 79.0196 111.635 77.8516 111.635C76.5556 111.635 75.7716 112.595 75.7716 113.779V118.579ZM91.3844 118.771C89.1124 118.771 87.5924 117.139 87.5924 114.707C87.5924 112.291 89.0964 110.627 91.3044 110.627C93.4004 110.627 94.8244 112.115 94.8244 114.307V114.851H88.6644C88.7444 116.739 89.7364 117.827 91.4004 117.827C92.6644 117.827 93.4804 117.283 93.7684 116.259H94.8244C94.4084 117.891 93.2084 118.771 91.3844 118.771ZM91.3044 111.571C89.8484 111.571 88.8884 112.531 88.6964 114.051H93.7204C93.7204 112.563 92.7604 111.571 91.3044 111.571ZM96.0455 114.707C96.0455 112.339 97.7095 110.627 99.9815 110.627C102.254 110.627 103.918 112.339 103.918 114.707C103.918 117.059 102.254 118.771 99.9815 118.771C97.7095 118.771 96.0455 117.059 96.0455 114.707ZM97.1655 114.691C97.1655 116.515 98.3175 117.779 99.9815 117.779C101.63 117.779 102.798 116.515 102.798 114.691C102.798 112.899 101.63 111.619 99.9815 111.619C98.3175 111.619 97.1655 112.899 97.1655 114.691ZM106.787 118.579H105.683V110.835H106.643L106.803 112.179C107.315 111.187 108.339 110.627 109.459 110.627C111.587 110.627 112.467 111.891 112.467 113.843V118.579H111.363V114.083C111.363 112.275 110.547 111.635 109.267 111.635C107.683 111.635 106.787 112.787 106.787 114.531V118.579ZM117.916 118.771C115.644 118.771 114.124 117.139 114.124 114.707C114.124 112.291 115.628 110.627 117.836 110.627C119.932 110.627 121.356 112.115 121.356 114.307V114.851H115.196C115.276 116.739 116.268 117.827 117.932 117.827C119.196 117.827 120.012 117.283 120.3 116.259H121.356C120.94 117.891 119.74 118.771 117.916 118.771ZM117.836 111.571C116.38 111.571 115.42 112.531 115.228 114.051H120.252C120.252 112.563 119.292 111.571 117.836 111.571ZM129.19 118.579L126.63 110.835H127.766L129.286 115.507C129.462 116.019 129.606 116.547 129.766 117.171C129.894 116.547 130.15 115.763 130.23 115.507L131.766 110.835H132.902L134.422 115.507C134.566 115.923 134.758 116.595 134.902 117.171C135.062 116.531 135.094 116.339 135.366 115.507L136.902 110.835H138.054L135.43 118.579H134.358L132.758 113.715C132.566 113.139 132.438 112.659 132.342 112.195C132.23 112.611 132.102 113.075 131.894 113.715L130.294 118.579H129.19ZM140.537 118.563H139.433V106.915H140.537V112.179C141.033 111.251 141.977 110.627 143.273 110.627C145.305 110.627 146.217 111.891 146.217 113.843V118.579H145.113V114.083C145.113 112.275 144.265 111.635 143.065 111.635C141.401 111.635 140.537 112.867 140.537 114.355V118.563ZM147.874 114.707C147.874 112.339 149.538 110.627 151.81 110.627C154.082 110.627 155.746 112.339 155.746 114.707C155.746 117.059 154.082 118.771 151.81 118.771C149.538 118.771 147.874 117.059 147.874 114.707ZM148.994 114.691C148.994 116.515 150.146 117.779 151.81 117.779C153.458 117.779 154.626 116.515 154.626 114.691C154.626 112.899 153.458 111.619 151.81 111.619C150.146 111.619 148.994 112.899 148.994 114.691ZM158.127 107.907L157.823 111.091H157.103L156.783 107.907C156.719 107.347 157.119 107.091 157.471 107.091C157.807 107.091 158.191 107.347 158.127 107.907ZM159.043 116.403H160.099C160.099 117.299 160.771 117.859 161.859 117.859C163.059 117.859 163.763 117.347 163.763 116.515C163.763 115.875 163.443 115.507 162.531 115.283L161.203 114.947C159.859 114.611 159.203 113.907 159.203 112.851C159.203 111.491 160.339 110.627 162.003 110.627C163.635 110.627 164.691 111.523 164.739 112.963H163.667C163.635 112.067 163.011 111.539 161.971 111.539C160.883 111.539 160.275 112.003 160.275 112.835C160.275 113.427 160.691 113.843 161.539 114.051L162.867 114.387C164.211 114.723 164.819 115.347 164.819 116.467C164.819 117.859 163.635 118.771 161.875 118.771C160.131 118.771 159.043 117.843 159.043 116.403ZM173.298 118.771C171.65 118.771 170.674 117.843 170.674 116.483C170.674 115.059 171.762 114.163 173.57 114.019L176.13 113.811V113.555C176.13 112.035 175.218 111.555 174.082 111.555C172.738 111.555 171.938 112.163 171.938 113.203H170.93C170.93 111.635 172.21 110.627 174.114 110.627C175.906 110.627 177.218 111.523 177.218 113.571V118.579H176.29L176.146 117.219C175.666 118.195 174.61 118.771 173.298 118.771ZM173.554 117.875C175.186 117.875 176.13 116.739 176.13 115.059V114.643L173.842 114.819C172.386 114.947 171.794 115.587 171.794 116.451C171.794 117.395 172.498 117.875 173.554 117.875ZM180.585 118.579H179.481V106.915H180.585V118.579ZM184.565 118.579L182.005 110.835H183.141L184.661 115.507C184.837 116.019 184.981 116.547 185.141 117.171C185.269 116.547 185.525 115.763 185.605 115.507L187.141 110.835H188.277L189.797 115.507C189.941 115.923 190.133 116.595 190.277 117.171C190.437 116.531 190.469 116.339 190.741 115.507L192.277 110.835H193.429L190.805 118.579H189.733L188.133 113.715C187.941 113.139 187.813 112.659 187.717 112.195C187.605 112.611 187.477 113.075 187.269 113.715L185.669 118.579H184.565ZM196.689 118.771C195.041 118.771 194.065 117.843 194.065 116.483C194.065 115.059 195.153 114.163 196.961 114.019L199.521 113.811V113.555C199.521 112.035 198.609 111.555 197.473 111.555C196.129 111.555 195.329 112.163 195.329 113.203H194.321C194.321 111.635 195.601 110.627 197.505 110.627C199.297 110.627 200.609 111.523 200.609 113.571V118.579H199.681L199.537 117.219C199.057 118.195 198.001 118.771 196.689 118.771ZM196.945 117.875C198.577 117.875 199.521 116.739 199.521 115.059V114.643L197.233 114.819C195.777 114.947 195.185 115.587 195.185 116.451C195.185 117.395 195.889 117.875 196.945 117.875ZM201.868 121.955V121.043H202.716C203.388 121.043 204.06 120.995 204.444 119.955L204.78 119.043L201.644 110.835H202.812L205.308 117.587L207.756 110.835H208.892L205.34 120.355C204.892 121.571 204.14 122.067 203.036 122.067C202.572 122.067 202.22 122.035 201.868 121.955ZM209.48 116.403H210.536C210.536 117.299 211.208 117.859 212.296 117.859C213.496 117.859 214.2 117.347 214.2 116.515C214.2 115.875 213.88 115.507 212.968 115.283L211.64 114.947C210.296 114.611 209.64 113.907 209.64 112.851C209.64 111.491 210.776 110.627 212.44 110.627C214.072 110.627 215.128 111.523 215.176 112.963H214.104C214.072 112.067 213.448 111.539 212.408 111.539C211.32 111.539 210.712 112.003 210.712 112.835C210.712 113.427 211.128 113.843 211.976 114.051L213.304 114.387C214.648 114.723 215.256 115.347 215.256 116.467C215.256 117.859 214.072 118.771 212.312 118.771C210.568 118.771 209.48 117.843 209.48 116.403ZM220.967 114.707C220.967 112.339 222.631 110.627 224.903 110.627C227.175 110.627 228.839 112.339 228.839 114.707C228.839 117.059 227.175 118.771 224.903 118.771C222.631 118.771 220.967 117.059 220.967 114.707ZM222.087 114.691C222.087 116.515 223.239 117.779 224.903 117.779C226.551 117.779 227.719 116.515 227.719 114.691C227.719 112.899 226.551 111.619 224.903 111.619C223.239 111.619 222.087 112.899 222.087 114.691ZM231.709 118.579H230.605V110.835H231.565L231.725 112.179C232.237 111.187 233.261 110.627 234.381 110.627C236.509 110.627 237.389 111.891 237.389 113.843V118.579H236.285V114.083C236.285 112.275 235.469 111.635 234.189 111.635C232.605 111.635 231.709 112.787 231.709 114.531V118.579ZM245.803 118.579H244.715V111.763H243.163V110.835H244.715V108.387H245.803V110.835H247.355V111.763H245.803V118.579ZM249.897 118.563H248.793V106.915H249.897V112.179C250.393 111.251 251.337 110.627 252.633 110.627C254.665 110.627 255.577 111.891 255.577 113.843V118.579H254.473V114.083C254.473 112.275 253.625 111.635 252.425 111.635C250.761 111.635 249.897 112.867 249.897 114.355V118.563ZM261.025 118.771C258.753 118.771 257.233 117.139 257.233 114.707C257.233 112.291 258.737 110.627 260.945 110.627C263.041 110.627 264.465 112.115 264.465 114.307V114.851H258.305C258.385 116.739 259.377 117.827 261.041 117.827C262.305 117.827 263.121 117.283 263.409 116.259H264.465C264.049 117.891 262.849 118.771 261.025 118.771ZM260.945 111.571C259.489 111.571 258.529 112.531 258.337 114.051H263.361C263.361 112.563 262.401 111.571 260.945 111.571ZM271.82 118.579H270.716V106.915H271.82V118.579ZM273.624 114.707C273.624 112.339 275.288 110.627 277.56 110.627C279.832 110.627 281.496 112.339 281.496 114.707C281.496 117.059 279.832 118.771 277.56 118.771C275.288 118.771 273.624 117.059 273.624 114.707ZM274.744 114.691C274.744 116.515 275.896 117.779 277.56 117.779C279.208 117.779 280.376 116.515 280.376 114.691C280.376 112.899 279.208 111.619 277.56 111.619C275.896 111.619 274.744 112.899 274.744 114.691ZM282.717 114.707C282.717 112.339 284.381 110.627 286.653 110.627C288.925 110.627 290.589 112.339 290.589 114.707C290.589 117.059 288.925 118.771 286.653 118.771C284.381 118.771 282.717 117.059 282.717 114.707ZM283.837 114.691C283.837 116.515 284.989 117.779 286.653 117.779C288.301 117.779 289.469 116.515 289.469 114.691C289.469 112.899 288.301 111.619 286.653 111.619C284.989 111.619 283.837 112.899 283.837 114.691ZM293.507 118.579H292.403V106.915H293.507V114.835L297.347 110.835H298.739L295.763 113.923L298.755 118.579H297.475L295.011 114.707L293.507 116.259V118.579ZM299.264 114.707C299.264 112.339 300.928 110.627 303.2 110.627C305.472 110.627 307.136 112.339 307.136 114.707C307.136 117.059 305.472 118.771 303.2 118.771C300.928 118.771 299.264 117.059 299.264 114.707ZM300.384 114.691C300.384 116.515 301.536 117.779 303.2 117.779C304.848 117.779 306.016 116.515 306.016 114.691C306.016 112.899 304.848 111.619 303.2 111.619C301.536 111.619 300.384 112.899 300.384 114.691ZM314.155 110.835H315.259V118.579H314.299L314.155 117.267C313.723 118.163 312.651 118.771 311.435 118.771C309.611 118.771 308.618 117.523 308.618 115.635V110.819H309.739V115.283C309.739 117.123 310.555 117.779 311.786 117.779C313.275 117.779 314.155 116.787 314.155 114.947V110.835ZM319.334 118.579H318.246V111.763H316.694V110.835H318.246V108.387H319.334V110.835H320.886V111.763H319.334V118.579ZM325.897 110.835H327.081V109.331C327.081 107.587 328.041 106.915 329.225 106.915C329.497 106.915 329.817 106.931 330.073 106.979V107.923H329.417C328.441 107.923 328.185 108.419 328.185 109.331V110.835H330.009V111.763H328.185V118.579H327.081V111.763H325.897V110.835ZM330.733 114.707C330.733 112.339 332.397 110.627 334.669 110.627C336.941 110.627 338.605 112.339 338.605 114.707C338.605 117.059 336.941 118.771 334.669 118.771C332.397 118.771 330.733 117.059 330.733 114.707ZM331.853 114.691C331.853 116.515 333.005 117.779 334.669 117.779C336.317 117.779 337.485 116.515 337.485 114.691C337.485 112.899 336.317 111.619 334.669 111.619C333.005 111.619 331.853 112.899 331.853 114.691ZM344.419 110.739V111.731H343.811C342.387 111.731 341.475 112.691 341.475 114.163V118.579H340.371V110.835H341.411L341.491 112.035C341.795 111.203 342.611 110.659 343.699 110.659C343.939 110.659 344.147 110.675 344.419 110.739ZM38.592 132.835H39.696V140.579H38.736L38.592 139.267C38.16 140.163 37.088 140.771 35.872 140.771C34.048 140.771 33.056 139.523 33.056 137.635V132.819H34.176V137.283C34.176 139.123 34.992 139.779 36.224 139.779C37.712 139.779 38.592 138.787 38.592 136.947V132.835ZM43.0998 140.579H41.9958V132.835H42.9557L43.1158 134.179C43.6278 133.187 44.6518 132.627 45.7718 132.627C47.8998 132.627 48.7798 133.891 48.7798 135.843V140.579H47.6758V136.083C47.6758 134.275 46.8598 133.635 45.5798 133.635C43.9958 133.635 43.0998 134.787 43.0998 136.531V140.579ZM51.5241 130.707C51.0761 130.707 50.7081 130.339 50.7081 129.891C50.7081 129.443 51.0761 129.059 51.5241 129.059C51.9721 129.059 52.3561 129.443 52.3561 129.891C52.3561 130.339 51.9721 130.707 51.5241 130.707ZM50.9801 140.579V132.835H52.0841V140.579H50.9801ZM53.8424 136.675C53.8424 134.339 55.1864 132.627 57.4264 132.627C58.7224 132.627 59.7944 133.203 60.3544 134.403L60.4664 132.835H61.4264V143.955H60.3224V139.091C59.7784 140.211 58.7384 140.771 57.4264 140.771C55.1384 140.771 53.8424 139.011 53.8424 136.675ZM54.9624 136.707C54.9624 138.483 55.9384 139.779 57.6184 139.779C59.3144 139.779 60.3064 138.483 60.3064 136.707C60.3064 134.915 59.3144 133.635 57.6184 133.635C55.9384 133.635 54.9624 134.915 54.9624 136.707ZM69.1701 132.835H70.2741V140.579H69.3141L69.1701 139.267C68.7381 140.163 67.6661 140.771 66.4501 140.771C64.6261 140.771 63.6341 139.523 63.6341 137.635V132.819H64.7541V137.283C64.7541 139.123 65.5701 139.779 66.8021 139.779C68.2901 139.779 69.1701 138.787 69.1701 136.947V132.835ZM75.6656 140.771C73.3936 140.771 71.8736 139.139 71.8736 136.707C71.8736 134.291 73.3776 132.627 75.5856 132.627C77.6816 132.627 79.1056 134.115 79.1056 136.307V136.851H72.9456C73.0256 138.739 74.0176 139.827 75.6816 139.827C76.9456 139.827 77.7616 139.283 78.0496 138.259H79.1056C78.6896 139.891 77.4896 140.771 75.6656 140.771ZM75.5856 133.571C74.1296 133.571 73.1696 134.531 72.9776 136.051H78.0016C78.0016 134.563 77.0416 133.571 75.5856 133.571ZM84.4443 132.835H85.6283V131.331C85.6283 129.587 86.5883 128.915 87.7723 128.915C88.0443 128.915 88.3643 128.931 88.6203 128.979V129.923H87.9643C86.9883 129.923 86.7323 130.419 86.7323 131.331V132.835H88.5563V133.763H86.7323V140.579H85.6283V133.763H84.4443V132.835ZM92.001 140.771C90.353 140.771 89.377 139.843 89.377 138.483C89.377 137.059 90.465 136.163 92.273 136.019L94.833 135.811V135.555C94.833 134.035 93.921 133.555 92.785 133.555C91.441 133.555 90.641 134.163 90.641 135.203H89.633C89.633 133.635 90.913 132.627 92.817 132.627C94.609 132.627 95.921 133.523 95.921 135.571V140.579H94.993L94.849 139.219C94.369 140.195 93.313 140.771 92.001 140.771ZM92.257 139.875C93.889 139.875 94.833 138.739 94.833 137.059V136.643L92.545 136.819C91.089 136.947 90.497 137.587 90.497 138.451C90.497 139.395 91.201 139.875 92.257 139.875ZM97.4804 138.403H98.5364C98.5364 139.299 99.2084 139.859 100.296 139.859C101.496 139.859 102.2 139.347 102.2 138.515C102.2 137.875 101.88 137.507 100.968 137.283L99.6404 136.947C98.2964 136.611 97.6404 135.907 97.6404 134.851C97.6404 133.491 98.7764 132.627 100.44 132.627C102.072 132.627 103.128 133.523 103.176 134.963H102.104C102.072 134.067 101.448 133.539 100.408 133.539C99.3204 133.539 98.7124 134.003 98.7124 134.835C98.7124 135.427 99.1284 135.843 99.9764 136.051L101.304 136.387C102.648 136.723 103.256 137.347 103.256 138.467C103.256 139.859 102.072 140.771 100.312 140.771C98.5684 140.771 97.4804 139.843 97.4804 138.403ZM106.178 140.563H105.074V128.915H106.178V134.179C106.674 133.251 107.618 132.627 108.914 132.627C110.946 132.627 111.858 133.891 111.858 135.843V140.579H110.754V136.083C110.754 134.275 109.906 133.635 108.706 133.635C107.042 133.635 106.178 134.867 106.178 136.355V140.563ZM114.602 130.707C114.154 130.707 113.786 130.339 113.786 129.891C113.786 129.443 114.154 129.059 114.602 129.059C115.05 129.059 115.434 129.443 115.434 129.891C115.434 130.339 115.05 130.707 114.602 130.707ZM114.058 140.579V132.835H115.162V140.579H114.058ZM116.921 136.707C116.921 134.339 118.585 132.627 120.857 132.627C123.129 132.627 124.793 134.339 124.793 136.707C124.793 139.059 123.129 140.771 120.857 140.771C118.585 140.771 116.921 139.059 116.921 136.707ZM118.041 136.691C118.041 138.515 119.193 139.779 120.857 139.779C122.505 139.779 123.673 138.515 123.673 136.691C123.673 134.899 122.505 133.619 120.857 133.619C119.193 133.619 118.041 134.899 118.041 136.691ZM127.662 140.579H126.558V132.835H127.518L127.678 134.179C128.19 133.187 129.214 132.627 130.334 132.627C132.462 132.627 133.342 133.891 133.342 135.843V140.579H132.238V136.083C132.238 134.275 131.422 133.635 130.142 133.635C128.558 133.635 127.662 134.787 127.662 136.531V140.579ZM139.98 143.955V132.835H140.94L141.052 134.403C141.596 133.203 142.684 132.627 143.98 132.627C146.22 132.627 147.564 134.339 147.564 136.675C147.564 139.011 146.268 140.771 143.98 140.771C142.668 140.771 141.628 140.211 141.084 139.091V143.955H139.98ZM141.1 136.707C141.1 138.483 142.092 139.779 143.788 139.779C145.468 139.779 146.444 138.483 146.444 136.707C146.444 134.915 145.468 133.635 143.788 133.635C142.092 133.635 141.1 134.915 141.1 136.707ZM149.868 130.707C149.42 130.707 149.052 130.339 149.052 129.891C149.052 129.443 149.42 129.059 149.868 129.059C150.316 129.059 150.7 129.443 150.7 129.891C150.7 130.339 150.316 130.707 149.868 130.707ZM149.324 140.579V132.835H150.428V140.579H149.324ZM155.978 140.771C153.706 140.771 152.186 139.139 152.186 136.707C152.186 134.291 153.69 132.627 155.898 132.627C157.994 132.627 159.418 134.115 159.418 136.307V136.851H153.258C153.338 138.739 154.33 139.827 155.994 139.827C157.258 139.827 158.074 139.283 158.362 138.259H159.418C159.002 139.891 157.802 140.771 155.978 140.771ZM155.898 133.571C154.442 133.571 153.482 134.531 153.29 136.051H158.314C158.314 134.563 157.354 133.571 155.898 133.571ZM160.639 136.723C160.639 134.291 162.127 132.627 164.383 132.627C166.175 132.627 167.487 133.667 167.791 135.267H166.687C166.399 134.195 165.471 133.603 164.399 133.603C162.831 133.603 161.727 134.803 161.727 136.707C161.727 138.547 162.751 139.779 164.319 139.779C165.471 139.779 166.399 139.139 166.703 138.147H167.823C167.455 139.731 166.079 140.771 164.319 140.771C162.127 140.771 160.639 139.155 160.639 136.723ZM172.744 140.771C170.472 140.771 168.952 139.139 168.952 136.707C168.952 134.291 170.456 132.627 172.664 132.627C174.76 132.627 176.184 134.115 176.184 136.307V136.851H170.024C170.104 138.739 171.096 139.827 172.76 139.827C174.024 139.827 174.84 139.283 175.128 138.259H176.184C175.768 139.891 174.568 140.771 172.744 140.771ZM172.664 133.571C171.208 133.571 170.248 134.531 170.056 136.051H175.08C175.08 134.563 174.12 133.571 172.664 133.571ZM177.293 138.403H178.349C178.349 139.299 179.021 139.859 180.109 139.859C181.309 139.859 182.013 139.347 182.013 138.515C182.013 137.875 181.693 137.507 180.781 137.283L179.453 136.947C178.109 136.611 177.453 135.907 177.453 134.851C177.453 133.491 178.589 132.627 180.253 132.627C181.885 132.627 182.941 133.523 182.989 134.963H181.917C181.885 134.067 181.261 133.539 180.221 133.539C179.133 133.539 178.525 134.003 178.525 134.835C178.525 135.427 178.941 135.843 179.789 136.051L181.117 136.387C182.461 136.723 183.069 137.347 183.069 138.467C183.069 139.859 181.885 140.771 180.125 140.771C178.381 140.771 177.293 139.843 177.293 138.403ZM186.713 140.035C186.713 141.027 185.945 141.891 184.953 142.035V141.443C185.529 141.347 185.945 140.931 185.945 140.483C185.849 140.547 185.721 140.595 185.529 140.595C185.081 140.595 184.697 140.275 184.697 139.731C184.697 139.171 185.081 138.771 185.641 138.771C186.217 138.771 186.713 139.235 186.713 140.035ZM194.778 129.123V140.579H193.626V129.123H194.778ZM198.252 129.907L197.948 133.091H197.228L196.908 129.907C196.844 129.347 197.244 129.091 197.596 129.091C197.932 129.091 198.316 129.347 198.252 129.907ZM201.24 140.579H200.136V132.835H201.096L201.224 133.939C201.608 133.123 202.472 132.627 203.56 132.627C204.776 132.627 205.688 133.267 206.056 134.275C206.408 133.267 207.352 132.627 208.6 132.627C210.28 132.627 211.384 133.715 211.384 135.507V140.579H210.312V135.731C210.312 134.403 209.576 133.619 208.392 133.619C207.096 133.619 206.328 134.595 206.328 135.795V140.579H205.24V135.715C205.24 134.403 204.488 133.635 203.32 133.635C202.024 133.635 201.24 134.595 201.24 135.779V140.579ZM219.819 140.579H218.731V133.763H217.179V132.835H218.731V130.387H219.819V132.835H221.371V133.763H219.819V140.579ZM223.912 140.563H222.808V128.915H223.912V134.179C224.408 133.251 225.352 132.627 226.648 132.627C228.68 132.627 229.592 133.891 229.592 135.843V140.579H228.488V136.083C228.488 134.275 227.64 133.635 226.44 133.635C224.776 133.635 223.912 134.867 223.912 136.355V140.563ZM235.841 132.739V133.731H235.233C233.809 133.731 232.897 134.691 232.897 136.163V140.579H231.793V132.835H232.833L232.913 134.035C233.217 133.203 234.033 132.659 235.121 132.659C235.361 132.659 235.569 132.675 235.841 132.739ZM237.852 130.707C237.404 130.707 237.036 130.339 237.036 129.891C237.036 129.443 237.404 129.059 237.852 129.059C238.3 129.059 238.684 129.443 238.684 129.891C238.684 130.339 238.3 130.707 237.852 130.707ZM237.308 140.579V132.835H238.412V140.579H237.308ZM241.867 140.579H240.763V128.915H241.867V140.579ZM245.367 140.579H244.263V128.915H245.367V140.579ZM250.963 140.771C248.691 140.771 247.171 139.139 247.171 136.707C247.171 134.291 248.674 132.627 250.883 132.627C252.979 132.627 254.403 134.115 254.403 136.307V136.851H248.243C248.323 138.739 249.315 139.827 250.979 139.827C252.243 139.827 253.059 139.283 253.347 138.259H254.403C253.987 139.891 252.787 140.771 250.963 140.771ZM250.883 133.571C249.427 133.571 248.467 134.531 248.275 136.051H253.299C253.299 134.563 252.339 133.571 250.883 133.571ZM259.208 140.771C256.952 140.771 255.624 139.043 255.624 136.723C255.624 134.387 256.952 132.627 259.256 132.627C260.536 132.627 261.56 133.187 262.104 134.307V128.915H263.208V140.579H262.248L262.136 138.995C261.592 140.195 260.504 140.771 259.208 140.771ZM259.4 139.763C261.096 139.763 262.088 138.483 262.088 136.691C262.088 134.915 261.096 133.619 259.4 133.619C257.72 133.619 256.744 134.915 256.744 136.691C256.744 138.483 257.72 139.763 259.4 139.763ZM271.725 140.579H270.637V133.763H269.085V132.835H270.637V130.387H271.725V132.835H273.277V133.763H271.725V140.579ZM274.092 136.707C274.092 134.339 275.756 132.627 278.028 132.627C280.3 132.627 281.964 134.339 281.964 136.707C281.964 139.059 280.3 140.771 278.028 140.771C275.756 140.771 274.092 139.059 274.092 136.707ZM275.212 136.691C275.212 138.515 276.364 139.779 278.028 139.779C279.676 139.779 280.844 138.515 280.844 136.691C280.844 134.899 279.676 133.619 278.028 133.619C276.364 133.619 275.212 134.899 275.212 136.691ZM289.272 140.563H288.168V128.915H289.272V134.179C289.768 133.251 290.712 132.627 292.008 132.627C294.04 132.627 294.952 133.891 294.952 135.843V140.579H293.848V136.083C293.848 134.275 293 133.635 291.8 133.635C290.136 133.635 289.272 134.867 289.272 136.355V140.563ZM299.376 140.771C297.728 140.771 296.752 139.843 296.752 138.483C296.752 137.059 297.84 136.163 299.648 136.019L302.208 135.811V135.555C302.208 134.035 301.296 133.555 300.16 133.555C298.816 133.555 298.016 134.163 298.016 135.203H297.008C297.008 133.635 298.288 132.627 300.192 132.627C301.984 132.627 303.296 133.523 303.296 135.571V140.579H302.368L302.224 139.219C301.744 140.195 300.688 140.771 299.376 140.771ZM299.632 139.875C301.264 139.875 302.208 138.739 302.208 137.059V136.643L299.92 136.819C298.464 136.947 297.872 137.587 297.872 138.451C297.872 139.395 298.576 139.875 299.632 139.875ZM307.359 140.579L304.191 132.835H305.375L307.375 137.827C307.583 138.387 307.791 138.915 307.935 139.427C308.079 138.899 308.287 138.387 308.511 137.827L310.543 132.835H311.679L308.463 140.579H307.359ZM315.884 140.771C313.612 140.771 312.092 139.139 312.092 136.707C312.092 134.291 313.596 132.627 315.804 132.627C317.9 132.627 319.324 134.115 319.324 136.307V136.851H313.164C313.244 138.739 314.236 139.827 315.9 139.827C317.164 139.827 317.98 139.283 318.268 138.259H319.324C318.908 139.891 317.708 140.771 315.884 140.771ZM315.804 133.571C314.348 133.571 313.388 134.531 313.196 136.051H318.22C318.22 134.563 317.26 133.571 315.804 133.571ZM32.496 160.403H33.552C33.552 161.299 34.224 161.859 35.312 161.859C36.512 161.859 37.216 161.347 37.216 160.515C37.216 159.875 36.896 159.507 35.984 159.283L34.656 158.947C33.312 158.611 32.656 157.907 32.656 156.851C32.656 155.491 33.792 154.627 35.456 154.627C37.088 154.627 38.144 155.523 38.192 156.963H37.12C37.088 156.067 36.464 155.539 35.424 155.539C34.336 155.539 33.728 156.003 33.728 156.835C33.728 157.427 34.144 157.843 34.992 158.051L36.32 158.387C37.664 158.723 38.272 159.347 38.272 160.467C38.272 161.859 37.088 162.771 35.328 162.771C33.584 162.771 32.496 161.843 32.496 160.403ZM41.8655 162.579H40.7775V155.763H39.2255V154.835H40.7775V152.387H41.8655V154.835H43.4175V155.763H41.8655V162.579ZM50.2951 154.835H51.3991V162.579H50.4391L50.2951 161.267C49.8631 162.163 48.7911 162.771 47.5751 162.771C45.7511 162.771 44.7591 161.523 44.7591 159.635V154.819H45.8791V159.283C45.8791 161.123 46.6951 161.779 47.9271 161.779C49.4151 161.779 50.2951 160.787 50.2951 158.947V154.835ZM54.8029 162.579H53.6989V154.835H54.6589L54.7869 155.939C55.1709 155.123 56.0349 154.627 57.1229 154.627C58.3389 154.627 59.2509 155.267 59.6189 156.275C59.9709 155.267 60.9149 154.627 62.1629 154.627C63.8429 154.627 64.9469 155.715 64.9469 157.507V162.579H63.8749V157.731C63.8749 156.403 63.1389 155.619 61.9549 155.619C60.6589 155.619 59.8909 156.595 59.8909 157.795V162.579H58.8029V157.715C58.8029 156.403 58.0509 155.635 56.8829 155.635C55.5869 155.635 54.8029 156.595 54.8029 157.779V162.579ZM68.1276 162.579H67.1676V150.915H68.2716V156.339C68.8156 155.203 69.8716 154.627 71.1836 154.627C73.4396 154.627 74.7516 156.387 74.7516 158.723C74.7516 161.043 73.4076 162.771 71.1516 162.771C69.8556 162.771 68.7836 162.195 68.2396 160.995L68.1276 162.579ZM68.2876 158.691C68.2876 160.483 69.2796 161.763 70.9756 161.763C72.6556 161.763 73.6316 160.483 73.6316 158.691C73.6316 156.915 72.6556 155.619 70.9756 155.619C69.2796 155.619 68.2876 156.915 68.2876 158.691ZM77.6634 162.579H76.5594V150.915H77.6634V162.579ZM83.2594 162.771C80.9874 162.771 79.4674 161.139 79.4674 158.707C79.4674 156.291 80.9714 154.627 83.1794 154.627C85.2754 154.627 86.6994 156.115 86.6994 158.307V158.851H80.5394C80.6194 160.739 81.6114 161.827 83.2754 161.827C84.5394 161.827 85.3554 161.283 85.6434 160.259H86.6994C86.2834 161.891 85.0834 162.771 83.2594 162.771ZM83.1794 155.571C81.7234 155.571 80.7634 156.531 80.5714 158.051H85.5954C85.5954 156.563 84.6354 155.571 83.1794 155.571ZM91.5045 162.771C89.2485 162.771 87.9205 161.043 87.9205 158.723C87.9205 156.387 89.2485 154.627 91.5525 154.627C92.8325 154.627 93.8565 155.187 94.4005 156.307V150.915H95.5045V162.579H94.5445L94.4325 160.995C93.8885 162.195 92.8005 162.771 91.5045 162.771ZM91.6965 161.763C93.3925 161.763 94.3845 160.483 94.3845 158.691C94.3845 156.915 93.3925 155.619 91.6965 155.619C90.0165 155.619 89.0405 156.915 89.0405 158.691C89.0405 160.483 90.0165 161.763 91.6965 161.763ZM107.686 154.835H108.79V162.579H107.83L107.686 161.267C107.254 162.163 106.182 162.771 104.966 162.771C103.142 162.771 102.15 161.523 102.15 159.635V154.819H103.27V159.283C103.27 161.123 104.086 161.779 105.318 161.779C106.806 161.779 107.686 160.787 107.686 158.947V154.835ZM111.09 165.955V154.835H112.049L112.162 156.403C112.706 155.203 113.794 154.627 115.09 154.627C117.33 154.627 118.674 156.339 118.674 158.675C118.674 161.011 117.378 162.771 115.09 162.771C113.778 162.771 112.738 162.211 112.194 161.091V165.955H111.09ZM112.21 158.707C112.21 160.483 113.202 161.779 114.898 161.779C116.578 161.779 117.554 160.483 117.554 158.707C117.554 156.915 116.578 155.635 114.898 155.635C113.202 155.635 112.21 156.915 112.21 158.707ZM119.889 158.707C119.889 156.339 121.553 154.627 123.825 154.627C126.097 154.627 127.761 156.339 127.761 158.707C127.761 161.059 126.097 162.771 123.825 162.771C121.553 162.771 119.889 161.059 119.889 158.707ZM121.009 158.691C121.009 160.515 122.161 161.779 123.825 161.779C125.473 161.779 126.641 160.515 126.641 158.691C126.641 156.899 125.473 155.619 123.825 155.619C122.161 155.619 121.009 156.899 121.009 158.691ZM130.631 162.579H129.527V154.835H130.487L130.647 156.179C131.159 155.187 132.183 154.627 133.303 154.627C135.431 154.627 136.311 155.891 136.311 157.843V162.579H135.207V158.083C135.207 156.275 134.391 155.635 133.111 155.635C131.527 155.635 130.631 156.787 130.631 158.531V162.579ZM142.501 154.099C142.501 152.179 144.037 150.915 146.341 150.915C148.405 150.915 149.765 152.067 149.941 153.987H148.773C148.645 152.691 147.765 151.955 146.325 151.955C144.709 151.955 143.653 152.787 143.653 154.083C143.653 155.091 144.245 155.731 145.445 156.035L147.413 156.515C149.205 156.947 150.133 157.971 150.133 159.523C150.133 161.507 148.597 162.771 146.229 162.771C144.005 162.771 142.501 161.603 142.357 159.731H143.541C143.605 160.931 144.661 161.715 146.229 161.715C147.909 161.715 148.981 160.899 148.981 159.587C148.981 158.563 148.405 157.891 147.173 157.603L145.237 157.123C143.445 156.691 142.501 155.667 142.501 154.099ZM153.069 162.563H151.965V150.915H153.069V156.179C153.565 155.251 154.509 154.627 155.805 154.627C157.837 154.627 158.749 155.891 158.749 157.843V162.579H157.645V158.083C157.645 156.275 156.797 155.635 155.597 155.635C153.933 155.635 153.069 156.867 153.069 158.355V162.563ZM160.405 158.707C160.405 156.339 162.069 154.627 164.341 154.627C166.613 154.627 168.277 156.339 168.277 158.707C168.277 161.059 166.613 162.771 164.341 162.771C162.069 162.771 160.405 161.059 160.405 158.707ZM161.525 158.691C161.525 160.515 162.677 161.779 164.341 161.779C165.989 161.779 167.157 160.515 167.157 158.691C167.157 156.899 165.989 155.619 164.341 155.619C162.677 155.619 161.525 156.899 161.525 158.691ZM170.043 165.955V154.835H171.003L171.115 156.403C171.659 155.203 172.747 154.627 174.043 154.627C176.283 154.627 177.627 156.339 177.627 158.675C177.627 161.011 176.331 162.771 174.043 162.771C172.731 162.771 171.691 162.211 171.147 161.091V165.955H170.043ZM171.163 158.707C171.163 160.483 172.155 161.779 173.851 161.779C175.531 161.779 176.507 160.483 176.507 158.707C176.507 156.915 175.531 155.635 173.851 155.635C172.155 155.635 171.163 156.915 171.163 158.707ZM179.846 162.755C179.302 162.755 178.838 162.307 178.838 161.779C178.838 161.235 179.302 160.771 179.846 160.771C180.39 160.771 180.854 161.235 180.854 161.779C180.854 162.307 180.39 162.755 179.846 162.755ZM182.061 158.723C182.061 156.291 183.549 154.627 185.805 154.627C187.597 154.627 188.909 155.667 189.213 157.267H188.109C187.821 156.195 186.893 155.603 185.821 155.603C184.253 155.603 183.149 156.803 183.149 158.707C183.149 160.547 184.173 161.779 185.741 161.779C186.893 161.779 187.821 161.139 188.125 160.147H189.245C188.877 161.731 187.501 162.771 185.741 162.771C183.549 162.771 182.061 161.155 182.061 158.723ZM190.374 158.707C190.374 156.339 192.038 154.627 194.31 154.627C196.582 154.627 198.246 156.339 198.246 158.707C198.246 161.059 196.582 162.771 194.31 162.771C192.038 162.771 190.374 161.059 190.374 158.707ZM191.494 158.691C191.494 160.515 192.646 161.779 194.31 161.779C195.958 161.779 197.126 160.515 197.126 158.691C197.126 156.899 195.958 155.619 194.31 155.619C192.646 155.619 191.494 156.899 191.494 158.691ZM200.471 162.755C199.927 162.755 199.463 162.307 199.463 161.779C199.463 161.235 199.927 160.771 200.471 160.771C201.015 160.771 201.479 161.235 201.479 161.779C201.479 162.307 201.015 162.755 200.471 162.755ZM207.192 152.179V151.123H215.4V152.179H211.864V162.579H210.712V152.179H207.192ZM217.85 162.563H216.746V150.915H217.85V156.179C218.346 155.251 219.29 154.627 220.586 154.627C222.618 154.627 223.53 155.891 223.53 157.843V162.579H222.426V158.083C222.426 156.275 221.578 155.635 220.378 155.635C218.714 155.635 217.85 156.867 217.85 158.355V162.563ZM228.978 162.771C226.706 162.771 225.186 161.139 225.186 158.707C225.186 156.291 226.69 154.627 228.898 154.627C230.994 154.627 232.418 156.115 232.418 158.307V158.851H226.258C226.338 160.739 227.33 161.827 228.994 161.827C230.258 161.827 231.074 161.283 231.362 160.259H232.418C232.002 161.891 230.802 162.771 228.978 162.771ZM228.898 155.571C227.442 155.571 226.482 156.531 226.29 158.051H231.314C231.314 156.563 230.354 155.571 228.898 155.571ZM237.965 160.403H239.021C239.021 161.299 239.693 161.859 240.781 161.859C241.981 161.859 242.685 161.347 242.685 160.515C242.685 159.875 242.365 159.507 241.453 159.283L240.125 158.947C238.781 158.611 238.125 157.907 238.125 156.851C238.125 155.491 239.261 154.627 240.925 154.627C242.557 154.627 243.613 155.523 243.661 156.963H242.589C242.557 156.067 241.933 155.539 240.893 155.539C239.805 155.539 239.197 156.003 239.197 156.835C239.197 157.427 239.613 157.843 240.461 158.051L241.789 158.387C243.133 158.723 243.741 159.347 243.741 160.467C243.741 161.859 242.557 162.771 240.797 162.771C239.053 162.771 237.965 161.843 237.965 160.403ZM248.806 162.771C246.534 162.771 245.014 161.139 245.014 158.707C245.014 156.291 246.518 154.627 248.726 154.627C250.822 154.627 252.246 156.115 252.246 158.307V158.851H246.086C246.166 160.739 247.158 161.827 248.822 161.827C250.086 161.827 250.902 161.283 251.19 160.259H252.246C251.83 161.891 250.63 162.771 248.806 162.771ZM248.726 155.571C247.27 155.571 246.31 156.531 246.118 158.051H251.142C251.142 156.563 250.182 155.571 248.726 155.571ZM255.163 162.579H254.059V150.915H255.163V162.579ZM260.759 162.771C258.487 162.771 256.967 161.139 256.967 158.707C256.967 156.291 258.471 154.627 260.679 154.627C262.775 154.627 264.199 156.115 264.199 158.307V158.851H258.039C258.119 160.739 259.111 161.827 260.775 161.827C262.039 161.827 262.855 161.283 263.143 160.259H264.199C263.783 161.891 262.583 162.771 260.759 162.771ZM260.679 155.571C259.223 155.571 258.263 156.531 258.071 158.051H263.095C263.095 156.563 262.135 155.571 260.679 155.571ZM265.421 158.723C265.421 156.291 266.909 154.627 269.165 154.627C270.957 154.627 272.269 155.667 272.573 157.267H271.469C271.181 156.195 270.253 155.603 269.181 155.603C267.613 155.603 266.509 156.803 266.509 158.707C266.509 160.547 267.533 161.779 269.101 161.779C270.253 161.779 271.181 161.139 271.485 160.147H272.605C272.237 161.731 270.861 162.771 269.101 162.771C266.909 162.771 265.421 161.155 265.421 158.723ZM276.053 162.579H274.965V155.763H273.413V154.835H274.965V152.387H276.053V154.835H277.605V155.763H276.053V162.579ZM279.587 152.707C279.139 152.707 278.771 152.339 278.771 151.891C278.771 151.443 279.139 151.059 279.587 151.059C280.035 151.059 280.419 151.443 280.419 151.891C280.419 152.339 280.035 152.707 279.587 152.707ZM279.043 162.579V154.835H280.147V162.579H279.043ZM281.905 158.707C281.905 156.339 283.569 154.627 285.841 154.627C288.113 154.627 289.777 156.339 289.777 158.707C289.777 161.059 288.113 162.771 285.841 162.771C283.569 162.771 281.905 161.059 281.905 158.707ZM283.025 158.691C283.025 160.515 284.177 161.779 285.841 161.779C287.489 161.779 288.657 160.515 288.657 158.691C288.657 156.899 287.489 155.619 285.841 155.619C284.177 155.619 283.025 156.899 283.025 158.691ZM292.647 162.579H291.543V154.835H292.503L292.663 156.179C293.175 155.187 294.199 154.627 295.319 154.627C297.447 154.627 298.327 155.891 298.327 157.843V162.579H297.223V158.083C297.223 156.275 296.407 155.635 295.127 155.635C293.543 155.635 292.647 156.787 292.647 158.531V162.579ZM304.421 158.707C304.421 156.339 306.085 154.627 308.357 154.627C310.629 154.627 312.293 156.339 312.293 158.707C312.293 161.059 310.629 162.771 308.357 162.771C306.085 162.771 304.421 161.059 304.421 158.707ZM305.541 158.691C305.541 160.515 306.693 161.779 308.357 161.779C310.005 161.779 311.173 160.515 311.173 158.691C311.173 156.899 310.005 155.619 308.357 155.619C306.693 155.619 305.541 156.899 305.541 158.691ZM313.132 154.835H314.316V153.331C314.316 151.587 315.276 150.915 316.46 150.915C316.732 150.915 317.052 150.931 317.308 150.979V151.923H316.652C315.676 151.923 315.42 152.419 315.42 153.331V154.835H317.244V155.763H315.42V162.579H314.316V155.763H313.132V154.835ZM32.608 180.723C32.608 178.291 34.096 176.627 36.352 176.627C38.144 176.627 39.456 177.667 39.76 179.267H38.656C38.368 178.195 37.44 177.603 36.368 177.603C34.8 177.603 33.696 178.803 33.696 180.707C33.696 182.547 34.72 183.779 36.288 183.779C37.44 183.779 38.368 183.139 38.672 182.147H39.792C39.424 183.731 38.048 184.771 36.288 184.771C34.096 184.771 32.608 183.155 32.608 180.723ZM42.6165 184.579H41.5125V172.915H42.6165V184.579ZM44.4205 180.707C44.4205 178.339 46.0845 176.627 48.3565 176.627C50.6285 176.627 52.2925 178.339 52.2925 180.707C52.2925 183.059 50.6285 184.771 48.3565 184.771C46.0845 184.771 44.4205 183.059 44.4205 180.707ZM45.5405 180.691C45.5405 182.515 46.6925 183.779 48.3565 183.779C50.0045 183.779 51.1725 182.515 51.1725 180.691C51.1725 178.899 50.0045 177.619 48.3565 177.619C46.6925 177.619 45.5405 178.899 45.5405 180.691ZM55.7561 184.579H54.6681V177.763H53.1161V176.835H54.6681V174.387H55.7561V176.835H57.3081V177.763H55.7561V184.579ZM59.8498 184.563H58.7458V172.915H59.8498V178.179C60.3458 177.251 61.2898 176.627 62.5858 176.627C64.6178 176.627 65.5298 177.891 65.5298 179.843V184.579H64.4258V180.083C64.4258 178.275 63.5778 177.635 62.3778 177.635C60.7138 177.635 59.8498 178.867 59.8498 180.355V184.563ZM70.9781 184.771C68.7061 184.771 67.1861 183.139 67.1861 180.707C67.1861 178.291 68.6901 176.627 70.8981 176.627C72.9941 176.627 74.4181 178.115 74.4181 180.307V180.851H68.2581C68.3381 182.739 69.3301 183.827 70.9941 183.827C72.2581 183.827 73.0741 183.283 73.3621 182.259H74.4181C74.0021 183.891 72.8021 184.771 70.9781 184.771ZM70.8981 177.571C69.4421 177.571 68.4821 178.531 68.2901 180.051H73.3141C73.3141 178.563 72.3541 177.571 70.8981 177.571ZM75.5273 182.403H76.5833C76.5833 183.299 77.2553 183.859 78.3433 183.859C79.5433 183.859 80.2473 183.347 80.2473 182.515C80.2473 181.875 79.9273 181.507 79.0153 181.283L77.6873 180.947C76.3433 180.611 75.6873 179.907 75.6873 178.851C75.6873 177.491 76.8233 176.627 78.4873 176.627C80.1193 176.627 81.1753 177.523 81.2233 178.963H80.1513C80.1193 178.067 79.4953 177.539 78.4553 177.539C77.3673 177.539 76.7593 178.003 76.7593 178.835C76.7593 179.427 77.1753 179.843 78.0233 180.051L79.3513 180.387C80.6953 180.723 81.3033 181.347 81.3033 182.467C81.3033 183.859 80.1193 184.771 78.3593 184.771C76.6153 184.771 75.5273 183.843 75.5273 182.403ZM88.1023 174.707C87.6543 174.707 87.2863 174.339 87.2863 173.891C87.2863 173.443 87.6543 173.059 88.1023 173.059C88.5503 173.059 88.9343 173.443 88.9343 173.891C88.9343 174.339 88.5503 174.707 88.1023 174.707ZM87.5583 184.579V176.835H88.6623V184.579H87.5583ZM90.3085 182.403H91.3645C91.3645 183.299 92.0365 183.859 93.1245 183.859C94.3245 183.859 95.0285 183.347 95.0285 182.515C95.0285 181.875 94.7085 181.507 93.7965 181.283L92.4685 180.947C91.1245 180.611 90.4685 179.907 90.4685 178.851C90.4685 177.491 91.6045 176.627 93.2685 176.627C94.9005 176.627 95.9565 177.523 96.0045 178.963H94.9325C94.9005 178.067 94.2765 177.539 93.2365 177.539C92.1485 177.539 91.5405 178.003 91.5405 178.835C91.5405 179.427 91.9565 179.843 92.8045 180.051L94.1325 180.387C95.4765 180.723 96.0845 181.347 96.0845 182.467C96.0845 183.859 94.9005 184.771 93.1405 184.771C91.3965 184.771 90.3085 183.843 90.3085 182.403ZM103.444 184.579H102.34V176.835H103.299L103.46 178.179C103.972 177.187 104.996 176.627 106.116 176.627C108.244 176.627 109.124 177.891 109.124 179.843V184.579H108.02V180.083C108.02 178.275 107.204 177.635 105.924 177.635C104.34 177.635 103.444 178.787 103.444 180.531V184.579ZM110.78 180.707C110.78 178.339 112.444 176.627 114.716 176.627C116.988 176.627 118.652 178.339 118.652 180.707C118.652 183.059 116.988 184.771 114.716 184.771C112.444 184.771 110.78 183.059 110.78 180.707ZM111.9 180.691C111.9 182.515 113.052 183.779 114.716 183.779C116.364 183.779 117.532 182.515 117.532 180.691C117.532 178.899 116.364 177.619 114.716 177.619C113.052 177.619 111.9 178.899 111.9 180.691ZM122.116 184.579H121.028V177.763H119.476V176.835H121.028V174.387H122.116V176.835H123.668V177.763H122.116V184.579ZM128.999 180.707C128.999 178.339 130.663 176.627 132.935 176.627C135.207 176.627 136.871 178.339 136.871 180.707C136.871 183.059 135.207 184.771 132.935 184.771C130.663 184.771 128.999 183.059 128.999 180.707ZM130.119 180.691C130.119 182.515 131.271 183.779 132.935 183.779C134.583 183.779 135.751 182.515 135.751 180.691C135.751 178.899 134.583 177.619 132.935 177.619C131.271 177.619 130.119 178.899 130.119 180.691ZM139.74 184.579H138.636V176.835H139.596L139.756 178.179C140.268 177.187 141.292 176.627 142.412 176.627C144.54 176.627 145.42 177.891 145.42 179.843V184.579H144.316V180.083C144.316 178.275 143.5 177.635 142.22 177.635C140.636 177.635 139.74 178.787 139.74 180.531V184.579ZM148.773 184.579H147.669V172.915H148.773V184.579ZM150.337 187.955V187.043H151.185C151.857 187.043 152.529 186.995 152.913 185.955L153.249 185.043L150.113 176.835H151.281L153.777 183.587L156.225 176.835H157.361L153.809 186.355C153.361 187.571 152.609 188.067 151.505 188.067C151.041 188.067 150.689 188.035 150.337 187.955ZM166.13 184.771C163.874 184.771 162.546 183.043 162.546 180.723C162.546 178.387 163.874 176.627 166.178 176.627C167.458 176.627 168.482 177.187 169.026 178.307V172.915H170.13V184.579H169.17L169.058 182.995C168.514 184.195 167.426 184.771 166.13 184.771ZM166.322 183.763C168.018 183.763 169.01 182.483 169.01 180.691C169.01 178.915 168.018 177.619 166.322 177.619C164.642 177.619 163.666 178.915 163.666 180.691C163.666 182.483 164.642 183.763 166.322 183.763ZM172.977 174.707C172.529 174.707 172.161 174.339 172.161 173.891C172.161 173.443 172.529 173.059 172.977 173.059C173.425 173.059 173.809 173.443 173.809 173.891C173.809 174.339 173.425 174.707 172.977 174.707ZM172.433 184.579V176.835H173.537V184.579H172.433ZM178 184.579L174.832 176.835H176.016L178.016 181.827C178.224 182.387 178.432 182.915 178.576 183.427C178.72 182.899 178.928 182.387 179.152 181.827L181.184 176.835H182.32L179.104 184.579H178ZM186.525 184.771C184.253 184.771 182.733 183.139 182.733 180.707C182.733 178.291 184.237 176.627 186.445 176.627C188.541 176.627 189.965 178.115 189.965 180.307V180.851H183.805C183.885 182.739 184.877 183.827 186.541 183.827C187.805 183.827 188.621 183.283 188.909 182.259H189.965C189.549 183.891 188.349 184.771 186.525 184.771ZM186.445 177.571C184.989 177.571 184.029 178.531 183.837 180.051H188.861C188.861 178.563 187.901 177.571 186.445 177.571ZM195.778 176.739V177.731H195.17C193.746 177.731 192.834 178.691 192.834 180.163V184.579H191.73V176.835H192.77L192.85 178.035C193.154 177.203 193.97 176.659 195.058 176.659C195.298 176.659 195.506 176.675 195.778 176.739ZM196.59 182.403H197.646C197.646 183.299 198.318 183.859 199.406 183.859C200.606 183.859 201.31 183.347 201.31 182.515C201.31 181.875 200.99 181.507 200.078 181.283L198.75 180.947C197.406 180.611 196.75 179.907 196.75 178.851C196.75 177.491 197.886 176.627 199.55 176.627C201.182 176.627 202.238 177.523 202.286 178.963H201.214C201.182 178.067 200.558 177.539 199.518 177.539C198.43 177.539 197.822 178.003 197.822 178.835C197.822 179.427 198.238 179.843 199.086 180.051L200.414 180.387C201.758 180.723 202.366 181.347 202.366 182.467C202.366 183.859 201.182 184.771 199.422 184.771C197.678 184.771 196.59 183.843 196.59 182.403ZM207.431 184.771C205.159 184.771 203.639 183.139 203.639 180.707C203.639 178.291 205.143 176.627 207.351 176.627C209.447 176.627 210.871 178.115 210.871 180.307V180.851H204.711C204.791 182.739 205.783 183.827 207.447 183.827C208.711 183.827 209.527 183.283 209.815 182.259H210.871C210.455 183.891 209.255 184.771 207.431 184.771ZM207.351 177.571C205.895 177.571 204.935 178.531 204.743 180.051H209.767C209.767 178.563 208.807 177.571 207.351 177.571ZM218.034 184.579H217.074V172.915H218.178V178.339C218.722 177.203 219.778 176.627 221.09 176.627C223.346 176.627 224.658 178.387 224.658 180.723C224.658 183.043 223.314 184.771 221.058 184.771C219.762 184.771 218.69 184.195 218.146 182.995L218.034 184.579ZM218.194 180.691C218.194 182.483 219.186 183.763 220.882 183.763C222.562 183.763 223.538 182.483 223.538 180.691C223.538 178.915 222.562 177.619 220.882 177.619C219.186 177.619 218.194 178.915 218.194 180.691ZM231.67 176.835H232.774V184.579H231.814L231.67 183.267C231.238 184.163 230.166 184.771 228.95 184.771C227.126 184.771 226.134 183.523 226.134 181.635V176.819H227.254V181.283C227.254 183.123 228.07 183.779 229.302 183.779C230.79 183.779 231.67 182.787 231.67 180.947V176.835ZM236.85 184.579H235.762V177.763H234.21V176.835H235.762V174.387H236.85V176.835H238.402V177.763H236.85V184.579ZM246.501 184.771C244.853 184.771 243.877 183.843 243.877 182.483C243.877 181.059 244.965 180.163 246.773 180.019L249.333 179.811V179.555C249.333 178.035 248.421 177.555 247.285 177.555C245.941 177.555 245.141 178.163 245.141 179.203H244.133C244.133 177.635 245.413 176.627 247.317 176.627C249.109 176.627 250.421 177.523 250.421 179.571V184.579H249.493L249.349 183.219C248.869 184.195 247.813 184.771 246.501 184.771ZM246.757 183.875C248.389 183.875 249.333 182.739 249.333 181.059V180.643L247.045 180.819C245.589 180.947 244.997 181.587 244.997 182.451C244.997 183.395 245.701 183.875 246.757 183.875ZM253.788 184.579H252.684V172.915H253.788V184.579ZM255.48 182.403H256.536C256.536 183.299 257.208 183.859 258.296 183.859C259.496 183.859 260.2 183.347 260.2 182.515C260.2 181.875 259.88 181.507 258.968 181.283L257.64 180.947C256.296 180.611 255.64 179.907 255.64 178.851C255.64 177.491 256.776 176.627 258.44 176.627C260.072 176.627 261.128 177.523 261.176 178.963H260.104C260.072 178.067 259.448 177.539 258.408 177.539C257.32 177.539 256.712 178.003 256.712 178.835C256.712 179.427 257.128 179.843 257.976 180.051L259.304 180.387C260.648 180.723 261.256 181.347 261.256 182.467C261.256 183.859 260.072 184.771 258.312 184.771C256.568 184.771 255.48 183.843 255.48 182.403ZM262.53 180.707C262.53 178.339 264.194 176.627 266.466 176.627C268.738 176.627 270.402 178.339 270.402 180.707C270.402 183.059 268.738 184.771 266.466 184.771C264.194 184.771 262.53 183.059 262.53 180.707ZM263.65 180.691C263.65 182.515 264.802 183.779 266.466 183.779C268.114 183.779 269.282 182.515 269.282 180.691C269.282 178.899 268.114 177.619 266.466 177.619C264.802 177.619 263.65 178.899 263.65 180.691ZM276.061 180.707C276.061 178.339 277.725 176.627 279.997 176.627C282.269 176.627 283.933 178.339 283.933 180.707C283.933 183.059 282.269 184.771 279.997 184.771C277.725 184.771 276.061 183.059 276.061 180.707ZM277.181 180.691C277.181 182.515 278.333 183.779 279.997 183.779C281.645 183.779 282.813 182.515 282.813 180.691C282.813 178.899 281.645 177.619 279.997 177.619C278.333 177.619 277.181 178.899 277.181 180.691ZM286.803 184.579H285.699V176.835H286.659L286.819 178.179C287.331 177.187 288.355 176.627 289.475 176.627C291.603 176.627 292.483 177.891 292.483 179.843V184.579H291.379V180.083C291.379 178.275 290.563 177.635 289.283 177.635C287.699 177.635 286.803 178.787 286.803 180.531V184.579ZM294.555 180.867V179.875H299.195V180.867H294.555ZM301.371 187.955V176.835H302.331L302.443 178.403C302.987 177.203 304.075 176.627 305.371 176.627C307.611 176.627 308.955 178.339 308.955 180.675C308.955 183.011 307.659 184.771 305.371 184.771C304.059 184.771 303.019 184.211 302.475 183.091V187.955H301.371ZM302.491 180.707C302.491 182.483 303.483 183.779 305.179 183.779C306.859 183.779 307.835 182.483 307.835 180.707C307.835 178.915 306.859 177.635 305.179 177.635C303.483 177.635 302.491 178.915 302.491 180.707ZM310.171 180.707C310.171 178.339 311.835 176.627 314.107 176.627C316.379 176.627 318.043 178.339 318.043 180.707C318.043 183.059 316.379 184.771 314.107 184.771C311.835 184.771 310.171 183.059 310.171 180.707ZM311.291 180.691C311.291 182.515 312.443 183.779 314.107 183.779C315.755 183.779 316.923 182.515 316.923 180.691C316.923 178.899 315.755 177.619 314.107 177.619C312.443 177.619 311.291 178.899 311.291 180.691ZM320.352 174.707C319.904 174.707 319.536 174.339 319.536 173.891C319.536 173.443 319.904 173.059 320.352 173.059C320.8 173.059 321.184 173.443 321.184 173.891C321.184 174.339 320.8 174.707 320.352 174.707ZM319.808 184.579V176.835H320.912V184.579H319.808ZM324.319 184.579H323.215V176.835H324.174L324.335 178.179C324.847 177.187 325.871 176.627 326.991 176.627C329.119 176.627 329.999 177.891 329.999 179.843V184.579H328.895V180.083C328.895 178.275 328.079 177.635 326.799 177.635C325.215 177.635 324.319 178.787 324.319 180.531V184.579ZM333.975 184.579H332.887V177.763H331.335V176.835H332.887V174.387H333.975V176.835H335.527V177.763H333.975V184.579ZM34.784 206.579L32.224 198.835H33.36L34.88 203.507C35.056 204.019 35.2 204.547 35.36 205.171C35.488 204.547 35.744 203.763 35.824 203.507L37.36 198.835H38.496L40.016 203.507C40.16 203.923 40.352 204.595 40.496 205.171C40.656 204.531 40.688 204.339 40.96 203.507L42.496 198.835H43.648L41.024 206.579H39.952L38.352 201.715C38.16 201.139 38.032 200.659 37.936 200.195C37.824 200.611 37.696 201.075 37.488 201.715L35.888 206.579H34.784ZM45.571 196.707C45.123 196.707 44.755 196.339 44.755 195.891C44.755 195.443 45.123 195.059 45.571 195.059C46.019 195.059 46.403 195.443 46.403 195.891C46.403 196.339 46.019 196.707 45.571 196.707ZM45.027 206.579V198.835H46.131V206.579H45.027ZM50.2093 206.579H49.1213V199.763H47.5693V198.835H49.1213V196.387H50.2093V198.835H51.7613V199.763H50.2093V206.579ZM54.3029 206.563H53.1989V194.915H54.3029V200.179C54.7989 199.251 55.7429 198.627 57.0389 198.627C59.0709 198.627 59.9829 199.891 59.9829 201.843V206.579H58.8789V202.083C58.8789 200.275 58.0309 199.635 56.8309 199.635C55.1669 199.635 54.3029 200.867 54.3029 202.355V206.563ZM68.3968 206.579H67.3088V199.763H65.7568V198.835H67.3088V196.387H68.3968V198.835H69.9488V199.763H68.3968V206.579ZM72.4904 206.563H71.3864V194.915H72.4904V200.179C72.9864 199.251 73.9304 198.627 75.2264 198.627C77.2584 198.627 78.1704 199.891 78.1704 201.843V206.579H77.0664V202.083C77.0664 200.275 76.2184 199.635 75.0184 199.635C73.3544 199.635 72.4904 200.867 72.4904 202.355V206.563ZM83.6188 206.771C81.3468 206.771 79.8268 205.139 79.8268 202.707C79.8268 200.291 81.3307 198.627 83.5388 198.627C85.6348 198.627 87.0588 200.115 87.0588 202.307V202.851H80.8988C80.9788 204.739 81.9708 205.827 83.6348 205.827C84.8988 205.827 85.7148 205.283 86.0028 204.259H87.0588C86.6428 205.891 85.4428 206.771 83.6188 206.771ZM83.5388 199.571C82.0828 199.571 81.1228 200.531 80.9308 202.051H85.9548C85.9548 200.563 84.9948 199.571 83.5388 199.571ZM94.4134 206.579H93.3094V194.915H94.4134V206.579ZM98.9854 206.771C97.3374 206.771 96.3614 205.843 96.3614 204.483C96.3614 203.059 97.4494 202.163 99.2574 202.019L101.817 201.811V201.555C101.817 200.035 100.905 199.555 99.7694 199.555C98.4254 199.555 97.6254 200.163 97.6254 201.203H96.6174C96.6174 199.635 97.8974 198.627 99.8014 198.627C101.593 198.627 102.905 199.523 102.905 201.571V206.579H101.977L101.833 205.219C101.353 206.195 100.297 206.771 98.9854 206.771ZM99.2414 205.875C100.873 205.875 101.817 204.739 101.817 203.059V202.643L99.5294 202.819C98.0734 202.947 97.4814 203.587 97.4814 204.451C97.4814 205.395 98.1854 205.875 99.2414 205.875ZM106.756 206.579H105.668V199.763H104.116V198.835H105.668V196.387H106.756V198.835H108.308V199.763H106.756V206.579ZM112.916 206.771C110.644 206.771 109.124 205.139 109.124 202.707C109.124 200.291 110.628 198.627 112.836 198.627C114.932 198.627 116.356 200.115 116.356 202.307V202.851H110.196C110.276 204.739 111.268 205.827 112.932 205.827C114.196 205.827 115.012 205.283 115.3 204.259H116.356C115.94 205.891 114.74 206.771 112.916 206.771ZM112.836 199.571C111.38 199.571 110.42 200.531 110.228 202.051H115.252C115.252 200.563 114.292 199.571 112.836 199.571ZM117.465 204.403H118.521C118.521 205.299 119.193 205.859 120.281 205.859C121.481 205.859 122.185 205.347 122.185 204.515C122.185 203.875 121.865 203.507 120.953 203.283L119.625 202.947C118.281 202.611 117.625 201.907 117.625 200.851C117.625 199.491 118.761 198.627 120.425 198.627C122.057 198.627 123.113 199.523 123.161 200.963H122.089C122.057 200.067 121.433 199.539 120.393 199.539C119.305 199.539 118.697 200.003 118.697 200.835C118.697 201.427 119.113 201.843 119.961 202.051L121.289 202.387C122.633 202.723 123.241 203.347 123.241 204.467C123.241 205.859 122.057 206.771 120.297 206.771C118.553 206.771 117.465 205.843 117.465 204.403ZM126.834 206.579H125.746V199.763H124.194V198.835H125.746V196.387H126.834V198.835H128.386V199.763H126.834V206.579ZM136.037 206.579H134.949V199.763H133.397V198.835H134.949V196.387H136.037V198.835H137.589V199.763H136.037V206.579ZM143.075 198.739V199.731H142.467C141.043 199.731 140.131 200.691 140.131 202.163V206.579H139.027V198.835H140.067L140.147 200.035C140.451 199.203 141.267 198.659 142.355 198.659C142.595 198.659 142.803 198.675 143.075 198.739ZM147.494 206.771C145.222 206.771 143.702 205.139 143.702 202.707C143.702 200.291 145.206 198.627 147.414 198.627C149.51 198.627 150.934 200.115 150.934 202.307V202.851H144.774C144.854 204.739 145.846 205.827 147.51 205.827C148.774 205.827 149.59 205.283 149.878 204.259H150.934C150.518 205.891 149.318 206.771 147.494 206.771ZM147.414 199.571C145.958 199.571 144.998 200.531 144.806 202.051H149.83C149.83 200.563 148.87 199.571 147.414 199.571ZM153.803 206.579H152.699V198.835H153.659L153.819 200.179C154.331 199.187 155.355 198.627 156.475 198.627C158.603 198.627 159.483 199.891 159.483 201.843V206.579H158.379V202.083C158.379 200.275 157.563 199.635 156.283 199.635C154.699 199.635 153.803 200.787 153.803 202.531V206.579ZM164.723 206.771C162.467 206.771 161.139 205.043 161.139 202.723C161.139 200.387 162.467 198.627 164.771 198.627C166.051 198.627 167.075 199.187 167.619 200.307V194.915H168.723V206.579H167.763L167.651 204.995C167.107 206.195 166.019 206.771 164.723 206.771ZM164.915 205.763C166.611 205.763 167.603 204.483 167.603 202.691C167.603 200.915 166.611 199.619 164.915 199.619C163.235 199.619 162.259 200.915 162.259 202.691C162.259 204.483 163.235 205.763 164.915 205.763ZM170.371 204.403H171.427C171.427 205.299 172.099 205.859 173.187 205.859C174.387 205.859 175.091 205.347 175.091 204.515C175.091 203.875 174.771 203.507 173.859 203.283L172.531 202.947C171.187 202.611 170.531 201.907 170.531 200.851C170.531 199.491 171.667 198.627 173.331 198.627C174.963 198.627 176.019 199.523 176.067 200.963H174.995C174.963 200.067 174.339 199.539 173.299 199.539C172.211 199.539 171.603 200.003 171.603 200.835C171.603 201.427 172.019 201.843 172.867 202.051L174.195 202.387C175.539 202.723 176.147 203.347 176.147 204.467C176.147 205.859 174.963 206.771 173.203 206.771C171.459 206.771 170.371 205.843 170.371 204.403ZM178.784 206.755C178.24 206.755 177.776 206.307 177.776 205.779C177.776 205.235 178.24 204.771 178.784 204.771C179.328 204.771 179.792 205.235 179.792 205.779C179.792 206.307 179.328 206.755 178.784 206.755ZM182.475 196.147C182.475 197.155 181.739 198.003 180.747 198.147V197.555C181.307 197.443 181.723 197.043 181.723 196.595C181.627 196.659 181.483 196.691 181.291 196.691C180.875 196.691 180.507 196.387 180.507 195.843C180.507 195.299 180.891 194.899 181.451 194.899C181.995 194.899 182.475 195.363 182.475 196.147ZM185.067 196.147C185.067 197.155 184.315 198.003 183.339 198.147V197.555C183.899 197.443 184.315 197.043 184.315 196.579C184.219 196.643 184.091 196.691 183.883 196.691C183.467 196.691 183.083 196.387 183.083 195.843C183.083 195.299 183.467 194.899 184.027 194.899C184.587 194.899 185.067 195.363 185.067 196.147Z" fill="black" fill-opacity="0.6"/>
</svg>
