<svg width="408" height="248" viewBox="0 0 408 248" fill="none" xmlns="http://www.w3.org/2000/svg">
<g filter="url(#filter0_f_24_840)">
<rect x="4.5" y="4.5" width="399" height="238.579" rx="19.5" stroke="black" stroke-opacity="0.1"/>
<path d="M47.2895 32L50.4879 38.8872L58.0264 39.8008L52.4647 44.971L53.9253 52.4229L47.2895 48.731L40.6537 52.4229L42.1143 44.971L36.5525 39.8008L44.091 38.8872L47.2895 32Z" fill="#FFC633"/>
<path d="M76.3553 32L79.5537 38.8872L87.0922 39.8008L81.5305 44.971L82.9911 52.4229L76.3553 48.731L69.7195 52.4229L71.1801 44.971L65.6183 39.8008L73.1568 38.8872L76.3553 32Z" fill="#FFC633"/>
<path d="M105.421 32L108.619 38.8872L116.158 39.8008L110.596 44.971L112.057 52.4229L105.421 48.731L98.7852 52.4229L100.246 44.971L94.684 39.8008L102.223 38.8872L105.421 32Z" fill="#FFC633"/>
<path d="M134.487 32L137.685 38.8872L145.224 39.8008L139.662 44.971L141.123 52.4229L134.487 48.731L127.851 52.4229L129.312 44.971L123.75 39.8008L131.288 38.8872L134.487 32Z" fill="#FFC633"/>
<path d="M163.553 32L166.751 38.8872L174.289 39.8008L168.728 44.971L170.188 52.4229L163.553 48.731L156.917 52.4229L158.377 44.971L152.816 39.8008L160.354 38.8872L163.553 32Z" fill="#FFC633"/>
<path d="M40.1 89.0791H37.62V74.4591H40.1L44.82 86.0991L49.54 74.4591H52.06V89.0791H49.58V84.5791C49.58 81.6391 49.58 80.7791 49.72 79.7391L46 89.0791H43.64L39.94 79.7591C40.08 80.6391 40.1 82.0191 40.1 83.8391V89.0791ZM54.3558 84.1191C54.3558 81.0391 56.5758 78.9191 59.6358 78.9191C62.6958 78.9191 64.9158 81.0391 64.9158 84.1191C64.9158 87.1991 62.6958 89.3191 59.6358 89.3191C56.5758 89.3191 54.3558 87.1991 54.3558 84.1191ZM56.7958 84.1191C56.7958 85.9191 57.9558 87.1391 59.6358 87.1391C61.3158 87.1391 62.4758 85.9191 62.4758 84.1191C62.4758 82.3191 61.3158 81.0991 59.6358 81.0991C57.9558 81.0991 56.7958 82.3191 56.7958 84.1191ZM66.2698 84.1191C66.2698 81.0391 68.4898 78.9191 71.5498 78.9191C74.6098 78.9191 76.8298 81.0391 76.8298 84.1191C76.8298 87.1991 74.6098 89.3191 71.5498 89.3191C68.4898 89.3191 66.2698 87.1991 66.2698 84.1191ZM68.7098 84.1191C68.7098 85.9191 69.8698 87.1391 71.5498 87.1391C73.2298 87.1391 74.3898 85.9191 74.3898 84.1191C74.3898 82.3191 73.2298 81.0991 71.5498 81.0991C69.8698 81.0991 68.7098 82.3191 68.7098 84.1191ZM83.1839 89.3391C80.2439 89.3391 78.1839 87.1991 78.1839 84.1391C78.1839 81.0391 80.2039 78.8991 83.1039 78.8991C86.0639 78.8991 87.9439 80.8791 87.9439 83.9591V84.6991L80.5039 84.7191C80.6839 86.4591 81.6039 87.3391 83.2239 87.3391C84.5639 87.3391 85.4439 86.8191 85.7239 85.8791H87.9839C87.5639 88.0391 85.7639 89.3391 83.1839 89.3391ZM83.1239 80.8991C81.6839 80.8991 80.8039 81.6791 80.5639 83.1591H85.5239C85.5239 81.7991 84.5839 80.8991 83.1239 80.8991ZM92.3367 89.0791H89.8967V79.1991H92.1567L92.3567 80.4791C92.9767 79.4791 94.1767 78.8991 95.5167 78.8991C97.9967 78.8991 99.2767 80.4391 99.2767 82.9991V89.0791H96.8367V83.5791C96.8367 81.9191 96.0167 81.1191 94.7567 81.1191C93.2567 81.1191 92.3367 82.1591 92.3367 83.7591V89.0791Z" fill="black"/>
<path d="M117 71.8291C115.072 71.8291 113.187 72.4009 111.583 73.4723C109.98 74.5436 108.73 76.0664 107.992 77.8479C107.254 79.6295 107.061 81.5899 107.437 83.4812C107.814 85.3725 108.742 87.1098 110.106 88.4734C111.469 89.837 113.207 90.7656 115.098 91.1418C116.989 91.518 118.95 91.3249 120.731 90.5869C122.513 89.849 124.035 88.5993 125.107 86.9959C126.178 85.3925 126.75 83.5075 126.75 81.5791C126.747 78.9941 125.719 76.5157 123.891 74.6878C122.063 72.8599 119.585 71.8318 117 71.8291ZM121.281 79.8597L116.031 85.1097C115.961 85.1795 115.878 85.2348 115.787 85.2725C115.696 85.3103 115.599 85.3297 115.5 85.3297C115.401 85.3297 115.304 85.3103 115.213 85.2725C115.122 85.2348 115.039 85.1795 114.969 85.1097L112.719 82.8597C112.579 82.719 112.5 82.5281 112.5 82.3291C112.5 82.1301 112.579 81.9392 112.719 81.7985C112.86 81.6577 113.051 81.5787 113.25 81.5787C113.449 81.5787 113.64 81.6577 113.781 81.7985L115.5 83.5188L120.219 78.7985C120.289 78.7288 120.372 78.6735 120.463 78.6358C120.554 78.5981 120.651 78.5787 120.75 78.5787C120.849 78.5787 120.946 78.5981 121.037 78.6358C121.128 78.6735 121.211 78.7288 121.281 78.7985C121.35 78.8682 121.406 78.9509 121.443 79.0419C121.481 79.133 121.5 79.2306 121.5 79.3291C121.5 79.4276 121.481 79.5252 121.443 79.6163C121.406 79.7073 121.35 79.79 121.281 79.8597Z" fill="#01AB31"/>
<path d="M38.08 111.907L37.776 115.091H37.056L36.736 111.907C36.672 111.347 37.072 111.091 37.424 111.091C37.76 111.091 38.144 111.347 38.08 111.907ZM40.336 111.907L40.032 115.091H39.312L38.992 111.907C38.928 111.347 39.328 111.091 39.68 111.091C40.016 111.091 40.4 111.347 40.336 111.907ZM41.1889 122.579H40.0209L44.2289 111.123H45.6529L49.9089 122.579H48.7089L47.5889 119.539H42.3089L41.1889 122.579ZM44.7889 112.739L42.6609 118.531H47.2209L45.0769 112.739C45.0289 112.579 44.9489 112.387 44.9329 112.275C44.9169 112.371 44.8529 112.579 44.7889 112.739ZM50.6054 120.403H51.6614C51.6614 121.299 52.3334 121.859 53.4214 121.859C54.6214 121.859 55.3254 121.347 55.3254 120.515C55.3254 119.875 55.0054 119.507 54.0934 119.283L52.7654 118.947C51.4214 118.611 50.7654 117.907 50.7654 116.851C50.7654 115.491 51.9014 114.627 53.5654 114.627C55.1974 114.627 56.2534 115.523 56.3014 116.963H55.2294C55.1974 116.067 54.5734 115.539 53.5334 115.539C52.4454 115.539 51.8374 116.003 51.8374 116.835C51.8374 117.427 52.2534 117.843 53.1014 118.051L54.4294 118.387C55.7734 118.723 56.3814 119.347 56.3814 120.467C56.3814 121.859 55.1974 122.771 53.4374 122.771C51.6934 122.771 50.6054 121.843 50.6054 120.403ZM61.9804 120.403H63.0364C63.0364 121.299 63.7084 121.859 64.7964 121.859C65.9964 121.859 66.7004 121.347 66.7004 120.515C66.7004 119.875 66.3804 119.507 65.4684 119.283L64.1404 118.947C62.7964 118.611 62.1404 117.907 62.1404 116.851C62.1404 115.491 63.2764 114.627 64.9404 114.627C66.5724 114.627 67.6284 115.523 67.6764 116.963H66.6044C66.5724 116.067 65.9484 115.539 64.9084 115.539C63.8204 115.539 63.2124 116.003 63.2124 116.835C63.2124 117.427 63.6284 117.843 64.4764 118.051L65.8044 118.387C67.1484 118.723 67.7564 119.347 67.7564 120.467C67.7564 121.859 66.5724 122.771 64.8124 122.771C63.0684 122.771 61.9804 121.843 61.9804 120.403ZM69.0299 118.707C69.0299 116.339 70.6939 114.627 72.9659 114.627C75.2379 114.627 76.9019 116.339 76.9019 118.707C76.9019 121.059 75.2379 122.771 72.9659 122.771C70.6939 122.771 69.0299 121.059 69.0299 118.707ZM70.1499 118.691C70.1499 120.515 71.3019 121.779 72.9659 121.779C74.6139 121.779 75.7819 120.515 75.7819 118.691C75.7819 116.899 74.6139 115.619 72.9659 115.619C71.3019 115.619 70.1499 116.899 70.1499 118.691ZM79.7716 122.579H78.6676V114.835H79.6276L79.7556 115.939C80.1396 115.123 81.0036 114.627 82.0916 114.627C83.3076 114.627 84.2196 115.267 84.5876 116.275C84.9396 115.267 85.8836 114.627 87.1316 114.627C88.8116 114.627 89.9156 115.715 89.9156 117.507V122.579H88.8436V117.731C88.8436 116.403 88.1076 115.619 86.9236 115.619C85.6276 115.619 84.8596 116.595 84.8596 117.795V122.579H83.7716V117.715C83.7716 116.403 83.0196 115.635 81.8516 115.635C80.5556 115.635 79.7716 116.595 79.7716 117.779V122.579ZM95.3844 122.771C93.1124 122.771 91.5924 121.139 91.5924 118.707C91.5924 116.291 93.0964 114.627 95.3044 114.627C97.4004 114.627 98.8244 116.115 98.8244 118.307V118.851H92.6644C92.7444 120.739 93.7364 121.827 95.4004 121.827C96.6644 121.827 97.4804 121.283 97.7684 120.259H98.8244C98.4084 121.891 97.2084 122.771 95.3844 122.771ZM95.3044 115.571C93.8484 115.571 92.8884 116.531 92.6964 118.051H97.7204C97.7204 116.563 96.7604 115.571 95.3044 115.571ZM100.046 118.707C100.046 116.339 101.71 114.627 103.982 114.627C106.254 114.627 107.918 116.339 107.918 118.707C107.918 121.059 106.254 122.771 103.982 122.771C101.71 122.771 100.046 121.059 100.046 118.707ZM101.166 118.691C101.166 120.515 102.318 121.779 103.982 121.779C105.63 121.779 106.798 120.515 106.798 118.691C106.798 116.899 105.63 115.619 103.982 115.619C102.318 115.619 101.166 116.899 101.166 118.691ZM110.787 122.579H109.683V114.835H110.643L110.803 116.179C111.315 115.187 112.339 114.627 113.459 114.627C115.587 114.627 116.467 115.891 116.467 117.843V122.579H115.363V118.083C115.363 116.275 114.547 115.635 113.267 115.635C111.683 115.635 110.787 116.787 110.787 118.531V122.579ZM121.916 122.771C119.644 122.771 118.124 121.139 118.124 118.707C118.124 116.291 119.628 114.627 121.836 114.627C123.932 114.627 125.356 116.115 125.356 118.307V118.851H119.196C119.276 120.739 120.268 121.827 121.932 121.827C123.196 121.827 124.012 121.283 124.3 120.259H125.356C124.94 121.891 123.74 122.771 121.916 122.771ZM121.836 115.571C120.38 115.571 119.42 116.531 119.228 118.051H124.252C124.252 116.563 123.292 115.571 121.836 115.571ZM133.19 122.579L130.63 114.835H131.766L133.286 119.507C133.462 120.019 133.606 120.547 133.766 121.171C133.894 120.547 134.15 119.763 134.23 119.507L135.766 114.835H136.902L138.422 119.507C138.566 119.923 138.758 120.595 138.902 121.171C139.062 120.531 139.094 120.339 139.366 119.507L140.902 114.835H142.054L139.43 122.579H138.358L136.758 117.715C136.566 117.139 136.438 116.659 136.342 116.195C136.23 116.611 136.102 117.075 135.894 117.715L134.294 122.579H133.19ZM144.537 122.563H143.433V110.915H144.537V116.179C145.033 115.251 145.977 114.627 147.273 114.627C149.305 114.627 150.217 115.891 150.217 117.843V122.579H149.113V118.083C149.113 116.275 148.265 115.635 147.065 115.635C145.401 115.635 144.537 116.867 144.537 118.355V122.563ZM151.874 118.707C151.874 116.339 153.538 114.627 155.81 114.627C158.082 114.627 159.746 116.339 159.746 118.707C159.746 121.059 158.082 122.771 155.81 122.771C153.538 122.771 151.874 121.059 151.874 118.707ZM152.994 118.691C152.994 120.515 154.146 121.779 155.81 121.779C157.458 121.779 158.626 120.515 158.626 118.691C158.626 116.899 157.458 115.619 155.81 115.619C154.146 115.619 152.994 116.899 152.994 118.691ZM162.127 111.907L161.823 115.091H161.103L160.783 111.907C160.719 111.347 161.119 111.091 161.471 111.091C161.807 111.091 162.191 111.347 162.127 111.907ZM163.043 120.403H164.099C164.099 121.299 164.771 121.859 165.859 121.859C167.059 121.859 167.763 121.347 167.763 120.515C167.763 119.875 167.443 119.507 166.531 119.283L165.203 118.947C163.859 118.611 163.203 117.907 163.203 116.851C163.203 115.491 164.339 114.627 166.003 114.627C167.635 114.627 168.691 115.523 168.739 116.963H167.667C167.635 116.067 167.011 115.539 165.971 115.539C164.883 115.539 164.275 116.003 164.275 116.835C164.275 117.427 164.691 117.843 165.539 118.051L166.867 118.387C168.211 118.723 168.819 119.347 168.819 120.467C168.819 121.859 167.635 122.771 165.875 122.771C164.131 122.771 163.043 121.843 163.043 120.403ZM177.298 122.771C175.65 122.771 174.674 121.843 174.674 120.483C174.674 119.059 175.762 118.163 177.57 118.019L180.13 117.811V117.555C180.13 116.035 179.218 115.555 178.082 115.555C176.738 115.555 175.938 116.163 175.938 117.203H174.93C174.93 115.635 176.21 114.627 178.114 114.627C179.906 114.627 181.218 115.523 181.218 117.571V122.579H180.29L180.146 121.219C179.666 122.195 178.61 122.771 177.298 122.771ZM177.554 121.875C179.186 121.875 180.13 120.739 180.13 119.059V118.643L177.842 118.819C176.386 118.947 175.794 119.587 175.794 120.451C175.794 121.395 176.498 121.875 177.554 121.875ZM184.585 122.579H183.481V110.915H184.585V122.579ZM188.565 122.579L186.005 114.835H187.141L188.661 119.507C188.837 120.019 188.981 120.547 189.141 121.171C189.269 120.547 189.525 119.763 189.605 119.507L191.141 114.835H192.277L193.797 119.507C193.941 119.923 194.133 120.595 194.277 121.171C194.437 120.531 194.469 120.339 194.741 119.507L196.277 114.835H197.429L194.805 122.579H193.733L192.133 117.715C191.941 117.139 191.813 116.659 191.717 116.195C191.605 116.611 191.477 117.075 191.269 117.715L189.669 122.579H188.565ZM200.689 122.771C199.041 122.771 198.065 121.843 198.065 120.483C198.065 119.059 199.153 118.163 200.961 118.019L203.521 117.811V117.555C203.521 116.035 202.609 115.555 201.473 115.555C200.129 115.555 199.329 116.163 199.329 117.203H198.321C198.321 115.635 199.601 114.627 201.505 114.627C203.297 114.627 204.609 115.523 204.609 117.571V122.579H203.681L203.537 121.219C203.057 122.195 202.001 122.771 200.689 122.771ZM200.945 121.875C202.577 121.875 203.521 120.739 203.521 119.059V118.643L201.233 118.819C199.777 118.947 199.185 119.587 199.185 120.451C199.185 121.395 199.889 121.875 200.945 121.875ZM205.868 125.955V125.043H206.716C207.388 125.043 208.06 124.995 208.444 123.955L208.78 123.043L205.644 114.835H206.812L209.308 121.587L211.756 114.835H212.892L209.34 124.355C208.892 125.571 208.14 126.067 207.036 126.067C206.572 126.067 206.22 126.035 205.868 125.955ZM213.48 120.403H214.536C214.536 121.299 215.208 121.859 216.296 121.859C217.496 121.859 218.2 121.347 218.2 120.515C218.2 119.875 217.88 119.507 216.968 119.283L215.64 118.947C214.296 118.611 213.64 117.907 213.64 116.851C213.64 115.491 214.776 114.627 216.44 114.627C218.072 114.627 219.128 115.523 219.176 116.963H218.104C218.072 116.067 217.448 115.539 216.408 115.539C215.32 115.539 214.712 116.003 214.712 116.835C214.712 117.427 215.128 117.843 215.976 118.051L217.304 118.387C218.648 118.723 219.256 119.347 219.256 120.467C219.256 121.859 218.072 122.771 216.312 122.771C214.568 122.771 213.48 121.843 213.48 120.403ZM224.967 118.707C224.967 116.339 226.631 114.627 228.903 114.627C231.175 114.627 232.839 116.339 232.839 118.707C232.839 121.059 231.175 122.771 228.903 122.771C226.631 122.771 224.967 121.059 224.967 118.707ZM226.087 118.691C226.087 120.515 227.239 121.779 228.903 121.779C230.551 121.779 231.719 120.515 231.719 118.691C231.719 116.899 230.551 115.619 228.903 115.619C227.239 115.619 226.087 116.899 226.087 118.691ZM235.709 122.579H234.605V114.835H235.565L235.725 116.179C236.237 115.187 237.261 114.627 238.381 114.627C240.509 114.627 241.389 115.891 241.389 117.843V122.579H240.285V118.083C240.285 116.275 239.469 115.635 238.189 115.635C236.605 115.635 235.709 116.787 235.709 118.531V122.579ZM249.803 122.579H248.715V115.763H247.163V114.835H248.715V112.387H249.803V114.835H251.355V115.763H249.803V122.579ZM253.897 122.563H252.793V110.915H253.897V116.179C254.393 115.251 255.337 114.627 256.633 114.627C258.665 114.627 259.577 115.891 259.577 117.843V122.579H258.473V118.083C258.473 116.275 257.625 115.635 256.425 115.635C254.761 115.635 253.897 116.867 253.897 118.355V122.563ZM265.025 122.771C262.753 122.771 261.233 121.139 261.233 118.707C261.233 116.291 262.737 114.627 264.945 114.627C267.041 114.627 268.465 116.115 268.465 118.307V118.851H262.305C262.385 120.739 263.377 121.827 265.041 121.827C266.305 121.827 267.121 121.283 267.409 120.259H268.465C268.049 121.891 266.849 122.771 265.025 122.771ZM264.945 115.571C263.489 115.571 262.529 116.531 262.337 118.051H267.361C267.361 116.563 266.401 115.571 264.945 115.571ZM275.82 122.579H274.716V110.915H275.82V122.579ZM277.624 118.707C277.624 116.339 279.288 114.627 281.56 114.627C283.832 114.627 285.496 116.339 285.496 118.707C285.496 121.059 283.832 122.771 281.56 122.771C279.288 122.771 277.624 121.059 277.624 118.707ZM278.744 118.691C278.744 120.515 279.896 121.779 281.56 121.779C283.208 121.779 284.376 120.515 284.376 118.691C284.376 116.899 283.208 115.619 281.56 115.619C279.896 115.619 278.744 116.899 278.744 118.691ZM286.717 118.707C286.717 116.339 288.381 114.627 290.653 114.627C292.925 114.627 294.589 116.339 294.589 118.707C294.589 121.059 292.925 122.771 290.653 122.771C288.381 122.771 286.717 121.059 286.717 118.707ZM287.837 118.691C287.837 120.515 288.989 121.779 290.653 121.779C292.301 121.779 293.469 120.515 293.469 118.691C293.469 116.899 292.301 115.619 290.653 115.619C288.989 115.619 287.837 116.899 287.837 118.691ZM297.507 122.579H296.403V110.915H297.507V118.835L301.347 114.835H302.739L299.763 117.923L302.755 122.579H301.475L299.011 118.707L297.507 120.259V122.579ZM303.264 118.707C303.264 116.339 304.928 114.627 307.2 114.627C309.472 114.627 311.136 116.339 311.136 118.707C311.136 121.059 309.472 122.771 307.2 122.771C304.928 122.771 303.264 121.059 303.264 118.707ZM304.384 118.691C304.384 120.515 305.536 121.779 307.2 121.779C308.848 121.779 310.016 120.515 310.016 118.691C310.016 116.899 308.848 115.619 307.2 115.619C305.536 115.619 304.384 116.899 304.384 118.691ZM318.155 114.835H319.259V122.579H318.299L318.155 121.267C317.723 122.163 316.651 122.771 315.435 122.771C313.611 122.771 312.618 121.523 312.618 119.635V114.819H313.739V119.283C313.739 121.123 314.555 121.779 315.786 121.779C317.275 121.779 318.155 120.787 318.155 118.947V114.835ZM323.334 122.579H322.246V115.763H320.694V114.835H322.246V112.387H323.334V114.835H324.886V115.763H323.334V122.579ZM329.897 114.835H331.081V113.331C331.081 111.587 332.041 110.915 333.225 110.915C333.497 110.915 333.817 110.931 334.073 110.979V111.923H333.417C332.441 111.923 332.185 112.419 332.185 113.331V114.835H334.009V115.763H332.185V122.579H331.081V115.763H329.897V114.835ZM334.733 118.707C334.733 116.339 336.397 114.627 338.669 114.627C340.941 114.627 342.605 116.339 342.605 118.707C342.605 121.059 340.941 122.771 338.669 122.771C336.397 122.771 334.733 121.059 334.733 118.707ZM335.853 118.691C335.853 120.515 337.005 121.779 338.669 121.779C340.317 121.779 341.485 120.515 341.485 118.691C341.485 116.899 340.317 115.619 338.669 115.619C337.005 115.619 335.853 116.899 335.853 118.691ZM348.419 114.739V115.731H347.811C346.387 115.731 345.475 116.691 345.475 118.163V122.579H344.371V114.835H345.411L345.491 116.035C345.795 115.203 346.611 114.659 347.699 114.659C347.939 114.659 348.147 114.675 348.419 114.739ZM42.592 136.835H43.696V144.579H42.736L42.592 143.267C42.16 144.163 41.088 144.771 39.872 144.771C38.048 144.771 37.056 143.523 37.056 141.635V136.819H38.176V141.283C38.176 143.123 38.992 143.779 40.224 143.779C41.712 143.779 42.592 142.787 42.592 140.947V136.835ZM47.0998 144.579H45.9958V136.835H46.9557L47.1158 138.179C47.6278 137.187 48.6518 136.627 49.7718 136.627C51.8998 136.627 52.7798 137.891 52.7798 139.843V144.579H51.6758V140.083C51.6758 138.275 50.8598 137.635 49.5798 137.635C47.9958 137.635 47.0998 138.787 47.0998 140.531V144.579ZM55.5241 134.707C55.0761 134.707 54.7081 134.339 54.7081 133.891C54.7081 133.443 55.0761 133.059 55.5241 133.059C55.9721 133.059 56.3561 133.443 56.3561 133.891C56.3561 134.339 55.9721 134.707 55.5241 134.707ZM54.9801 144.579V136.835H56.0841V144.579H54.9801ZM57.8424 140.675C57.8424 138.339 59.1864 136.627 61.4264 136.627C62.7224 136.627 63.7944 137.203 64.3544 138.403L64.4664 136.835H65.4264V147.955H64.3224V143.091C63.7784 144.211 62.7384 144.771 61.4264 144.771C59.1384 144.771 57.8424 143.011 57.8424 140.675ZM58.9624 140.707C58.9624 142.483 59.9384 143.779 61.6184 143.779C63.3144 143.779 64.3064 142.483 64.3064 140.707C64.3064 138.915 63.3144 137.635 61.6184 137.635C59.9384 137.635 58.9624 138.915 58.9624 140.707ZM73.1701 136.835H74.2741V144.579H73.3141L73.1701 143.267C72.7381 144.163 71.6661 144.771 70.4501 144.771C68.6261 144.771 67.6341 143.523 67.6341 141.635V136.819H68.7541V141.283C68.7541 143.123 69.5701 143.779 70.8021 143.779C72.2901 143.779 73.1701 142.787 73.1701 140.947V136.835ZM79.6656 144.771C77.3936 144.771 75.8736 143.139 75.8736 140.707C75.8736 138.291 77.3776 136.627 79.5856 136.627C81.6816 136.627 83.1056 138.115 83.1056 140.307V140.851H76.9456C77.0256 142.739 78.0176 143.827 79.6816 143.827C80.9456 143.827 81.7616 143.283 82.0496 142.259H83.1056C82.6896 143.891 81.4896 144.771 79.6656 144.771ZM79.5856 137.571C78.1296 137.571 77.1696 138.531 76.9776 140.051H82.0016C82.0016 138.563 81.0416 137.571 79.5856 137.571ZM88.4443 136.835H89.6283V135.331C89.6283 133.587 90.5883 132.915 91.7723 132.915C92.0443 132.915 92.3643 132.931 92.6203 132.979V133.923H91.9643C90.9883 133.923 90.7323 134.419 90.7323 135.331V136.835H92.5563V137.763H90.7323V144.579H89.6283V137.763H88.4443V136.835ZM96.001 144.771C94.353 144.771 93.377 143.843 93.377 142.483C93.377 141.059 94.465 140.163 96.273 140.019L98.833 139.811V139.555C98.833 138.035 97.921 137.555 96.785 137.555C95.441 137.555 94.641 138.163 94.641 139.203H93.633C93.633 137.635 94.913 136.627 96.817 136.627C98.609 136.627 99.921 137.523 99.921 139.571V144.579H98.993L98.849 143.219C98.369 144.195 97.313 144.771 96.001 144.771ZM96.257 143.875C97.889 143.875 98.833 142.739 98.833 141.059V140.643L96.545 140.819C95.089 140.947 94.497 141.587 94.497 142.451C94.497 143.395 95.201 143.875 96.257 143.875ZM101.48 142.403H102.536C102.536 143.299 103.208 143.859 104.296 143.859C105.496 143.859 106.2 143.347 106.2 142.515C106.2 141.875 105.88 141.507 104.968 141.283L103.64 140.947C102.296 140.611 101.64 139.907 101.64 138.851C101.64 137.491 102.776 136.627 104.44 136.627C106.072 136.627 107.128 137.523 107.176 138.963H106.104C106.072 138.067 105.448 137.539 104.408 137.539C103.32 137.539 102.712 138.003 102.712 138.835C102.712 139.427 103.128 139.843 103.976 140.051L105.304 140.387C106.648 140.723 107.256 141.347 107.256 142.467C107.256 143.859 106.072 144.771 104.312 144.771C102.568 144.771 101.48 143.843 101.48 142.403ZM110.178 144.563H109.074V132.915H110.178V138.179C110.674 137.251 111.618 136.627 112.914 136.627C114.946 136.627 115.858 137.891 115.858 139.843V144.579H114.754V140.083C114.754 138.275 113.906 137.635 112.706 137.635C111.042 137.635 110.178 138.867 110.178 140.355V144.563ZM118.602 134.707C118.154 134.707 117.786 134.339 117.786 133.891C117.786 133.443 118.154 133.059 118.602 133.059C119.05 133.059 119.434 133.443 119.434 133.891C119.434 134.339 119.05 134.707 118.602 134.707ZM118.058 144.579V136.835H119.162V144.579H118.058ZM120.921 140.707C120.921 138.339 122.585 136.627 124.857 136.627C127.129 136.627 128.793 138.339 128.793 140.707C128.793 143.059 127.129 144.771 124.857 144.771C122.585 144.771 120.921 143.059 120.921 140.707ZM122.041 140.691C122.041 142.515 123.193 143.779 124.857 143.779C126.505 143.779 127.673 142.515 127.673 140.691C127.673 138.899 126.505 137.619 124.857 137.619C123.193 137.619 122.041 138.899 122.041 140.691ZM131.662 144.579H130.558V136.835H131.518L131.678 138.179C132.19 137.187 133.214 136.627 134.334 136.627C136.462 136.627 137.342 137.891 137.342 139.843V144.579H136.238V140.083C136.238 138.275 135.422 137.635 134.142 137.635C132.558 137.635 131.662 138.787 131.662 140.531V144.579ZM143.98 147.955V136.835H144.94L145.052 138.403C145.596 137.203 146.684 136.627 147.98 136.627C150.22 136.627 151.564 138.339 151.564 140.675C151.564 143.011 150.268 144.771 147.98 144.771C146.668 144.771 145.628 144.211 145.084 143.091V147.955H143.98ZM145.1 140.707C145.1 142.483 146.092 143.779 147.788 143.779C149.468 143.779 150.444 142.483 150.444 140.707C150.444 138.915 149.468 137.635 147.788 137.635C146.092 137.635 145.1 138.915 145.1 140.707ZM153.868 134.707C153.42 134.707 153.052 134.339 153.052 133.891C153.052 133.443 153.42 133.059 153.868 133.059C154.316 133.059 154.7 133.443 154.7 133.891C154.7 134.339 154.316 134.707 153.868 134.707ZM153.324 144.579V136.835H154.428V144.579H153.324ZM159.978 144.771C157.706 144.771 156.186 143.139 156.186 140.707C156.186 138.291 157.69 136.627 159.898 136.627C161.994 136.627 163.418 138.115 163.418 140.307V140.851H157.258C157.338 142.739 158.33 143.827 159.994 143.827C161.258 143.827 162.074 143.283 162.362 142.259H163.418C163.002 143.891 161.802 144.771 159.978 144.771ZM159.898 137.571C158.442 137.571 157.482 138.531 157.29 140.051H162.314C162.314 138.563 161.354 137.571 159.898 137.571ZM164.639 140.723C164.639 138.291 166.127 136.627 168.383 136.627C170.175 136.627 171.487 137.667 171.791 139.267H170.687C170.399 138.195 169.471 137.603 168.399 137.603C166.831 137.603 165.727 138.803 165.727 140.707C165.727 142.547 166.751 143.779 168.319 143.779C169.471 143.779 170.399 143.139 170.703 142.147H171.823C171.455 143.731 170.079 144.771 168.319 144.771C166.127 144.771 164.639 143.155 164.639 140.723ZM176.744 144.771C174.472 144.771 172.952 143.139 172.952 140.707C172.952 138.291 174.456 136.627 176.664 136.627C178.76 136.627 180.184 138.115 180.184 140.307V140.851H174.024C174.104 142.739 175.096 143.827 176.76 143.827C178.024 143.827 178.84 143.283 179.128 142.259H180.184C179.768 143.891 178.568 144.771 176.744 144.771ZM176.664 137.571C175.208 137.571 174.248 138.531 174.056 140.051H179.08C179.08 138.563 178.12 137.571 176.664 137.571ZM181.293 142.403H182.349C182.349 143.299 183.021 143.859 184.109 143.859C185.309 143.859 186.013 143.347 186.013 142.515C186.013 141.875 185.693 141.507 184.781 141.283L183.453 140.947C182.109 140.611 181.453 139.907 181.453 138.851C181.453 137.491 182.589 136.627 184.253 136.627C185.885 136.627 186.941 137.523 186.989 138.963H185.917C185.885 138.067 185.261 137.539 184.221 137.539C183.133 137.539 182.525 138.003 182.525 138.835C182.525 139.427 182.941 139.843 183.789 140.051L185.117 140.387C186.461 140.723 187.069 141.347 187.069 142.467C187.069 143.859 185.885 144.771 184.125 144.771C182.381 144.771 181.293 143.843 181.293 142.403ZM190.713 144.035C190.713 145.027 189.945 145.891 188.953 146.035V145.443C189.529 145.347 189.945 144.931 189.945 144.483C189.849 144.547 189.721 144.595 189.529 144.595C189.081 144.595 188.697 144.275 188.697 143.731C188.697 143.171 189.081 142.771 189.641 142.771C190.217 142.771 190.713 143.235 190.713 144.035ZM198.778 133.123V144.579H197.626V133.123H198.778ZM202.252 133.907L201.948 137.091H201.228L200.908 133.907C200.844 133.347 201.244 133.091 201.596 133.091C201.932 133.091 202.316 133.347 202.252 133.907ZM205.24 144.579H204.136V136.835H205.096L205.224 137.939C205.608 137.123 206.472 136.627 207.56 136.627C208.776 136.627 209.688 137.267 210.056 138.275C210.408 137.267 211.352 136.627 212.6 136.627C214.28 136.627 215.384 137.715 215.384 139.507V144.579H214.312V139.731C214.312 138.403 213.576 137.619 212.392 137.619C211.096 137.619 210.328 138.595 210.328 139.795V144.579H209.24V139.715C209.24 138.403 208.488 137.635 207.32 137.635C206.024 137.635 205.24 138.595 205.24 139.779V144.579ZM223.819 144.579H222.731V137.763H221.179V136.835H222.731V134.387H223.819V136.835H225.371V137.763H223.819V144.579ZM227.912 144.563H226.808V132.915H227.912V138.179C228.408 137.251 229.352 136.627 230.648 136.627C232.68 136.627 233.592 137.891 233.592 139.843V144.579H232.488V140.083C232.488 138.275 231.64 137.635 230.44 137.635C228.776 137.635 227.912 138.867 227.912 140.355V144.563ZM239.841 136.739V137.731H239.233C237.809 137.731 236.897 138.691 236.897 140.163V144.579H235.793V136.835H236.833L236.913 138.035C237.217 137.203 238.033 136.659 239.121 136.659C239.361 136.659 239.569 136.675 239.841 136.739ZM241.852 134.707C241.404 134.707 241.036 134.339 241.036 133.891C241.036 133.443 241.404 133.059 241.852 133.059C242.3 133.059 242.684 133.443 242.684 133.891C242.684 134.339 242.3 134.707 241.852 134.707ZM241.308 144.579V136.835H242.412V144.579H241.308ZM245.867 144.579H244.763V132.915H245.867V144.579ZM249.367 144.579H248.263V132.915H249.367V144.579ZM254.963 144.771C252.691 144.771 251.171 143.139 251.171 140.707C251.171 138.291 252.674 136.627 254.883 136.627C256.979 136.627 258.403 138.115 258.403 140.307V140.851H252.243C252.323 142.739 253.315 143.827 254.979 143.827C256.243 143.827 257.059 143.283 257.347 142.259H258.403C257.987 143.891 256.787 144.771 254.963 144.771ZM254.883 137.571C253.427 137.571 252.467 138.531 252.275 140.051H257.299C257.299 138.563 256.339 137.571 254.883 137.571ZM263.208 144.771C260.952 144.771 259.624 143.043 259.624 140.723C259.624 138.387 260.952 136.627 263.256 136.627C264.536 136.627 265.56 137.187 266.104 138.307V132.915H267.208V144.579H266.248L266.136 142.995C265.592 144.195 264.504 144.771 263.208 144.771ZM263.4 143.763C265.096 143.763 266.088 142.483 266.088 140.691C266.088 138.915 265.096 137.619 263.4 137.619C261.72 137.619 260.744 138.915 260.744 140.691C260.744 142.483 261.72 143.763 263.4 143.763ZM275.725 144.579H274.637V137.763H273.085V136.835H274.637V134.387H275.725V136.835H277.277V137.763H275.725V144.579ZM278.092 140.707C278.092 138.339 279.756 136.627 282.028 136.627C284.3 136.627 285.964 138.339 285.964 140.707C285.964 143.059 284.3 144.771 282.028 144.771C279.756 144.771 278.092 143.059 278.092 140.707ZM279.212 140.691C279.212 142.515 280.364 143.779 282.028 143.779C283.676 143.779 284.844 142.515 284.844 140.691C284.844 138.899 283.676 137.619 282.028 137.619C280.364 137.619 279.212 138.899 279.212 140.691ZM293.272 144.563H292.168V132.915H293.272V138.179C293.768 137.251 294.712 136.627 296.008 136.627C298.04 136.627 298.952 137.891 298.952 139.843V144.579H297.848V140.083C297.848 138.275 297 137.635 295.8 137.635C294.136 137.635 293.272 138.867 293.272 140.355V144.563ZM303.376 144.771C301.728 144.771 300.752 143.843 300.752 142.483C300.752 141.059 301.84 140.163 303.648 140.019L306.208 139.811V139.555C306.208 138.035 305.296 137.555 304.16 137.555C302.816 137.555 302.016 138.163 302.016 139.203H301.008C301.008 137.635 302.288 136.627 304.192 136.627C305.984 136.627 307.296 137.523 307.296 139.571V144.579H306.368L306.224 143.219C305.744 144.195 304.688 144.771 303.376 144.771ZM303.632 143.875C305.264 143.875 306.208 142.739 306.208 141.059V140.643L303.92 140.819C302.464 140.947 301.872 141.587 301.872 142.451C301.872 143.395 302.576 143.875 303.632 143.875ZM311.359 144.579L308.191 136.835H309.375L311.375 141.827C311.583 142.387 311.791 142.915 311.935 143.427C312.079 142.899 312.287 142.387 312.511 141.827L314.543 136.835H315.679L312.463 144.579H311.359ZM319.884 144.771C317.612 144.771 316.092 143.139 316.092 140.707C316.092 138.291 317.596 136.627 319.804 136.627C321.9 136.627 323.324 138.115 323.324 140.307V140.851H317.164C317.244 142.739 318.236 143.827 319.9 143.827C321.164 143.827 321.98 143.283 322.268 142.259H323.324C322.908 143.891 321.708 144.771 319.884 144.771ZM319.804 137.571C318.348 137.571 317.388 138.531 317.196 140.051H322.22C322.22 138.563 321.26 137.571 319.804 137.571ZM36.496 164.403H37.552C37.552 165.299 38.224 165.859 39.312 165.859C40.512 165.859 41.216 165.347 41.216 164.515C41.216 163.875 40.896 163.507 39.984 163.283L38.656 162.947C37.312 162.611 36.656 161.907 36.656 160.851C36.656 159.491 37.792 158.627 39.456 158.627C41.088 158.627 42.144 159.523 42.192 160.963H41.12C41.088 160.067 40.464 159.539 39.424 159.539C38.336 159.539 37.728 160.003 37.728 160.835C37.728 161.427 38.144 161.843 38.992 162.051L40.32 162.387C41.664 162.723 42.272 163.347 42.272 164.467C42.272 165.859 41.088 166.771 39.328 166.771C37.584 166.771 36.496 165.843 36.496 164.403ZM45.8655 166.579H44.7775V159.763H43.2255V158.835H44.7775V156.387H45.8655V158.835H47.4175V159.763H45.8655V166.579ZM54.2951 158.835H55.3991V166.579H54.4391L54.2951 165.267C53.8631 166.163 52.7911 166.771 51.5751 166.771C49.7511 166.771 48.7591 165.523 48.7591 163.635V158.819H49.8791V163.283C49.8791 165.123 50.6951 165.779 51.9271 165.779C53.4151 165.779 54.2951 164.787 54.2951 162.947V158.835ZM58.8029 166.579H57.6989V158.835H58.6589L58.7869 159.939C59.1709 159.123 60.0349 158.627 61.1229 158.627C62.3389 158.627 63.2509 159.267 63.6189 160.275C63.9709 159.267 64.9149 158.627 66.1629 158.627C67.8429 158.627 68.9469 159.715 68.9469 161.507V166.579H67.8749V161.731C67.8749 160.403 67.1389 159.619 65.9549 159.619C64.6589 159.619 63.8909 160.595 63.8909 161.795V166.579H62.8029V161.715C62.8029 160.403 62.0509 159.635 60.8829 159.635C59.5869 159.635 58.8029 160.595 58.8029 161.779V166.579ZM72.1276 166.579H71.1676V154.915H72.2716V160.339C72.8156 159.203 73.8716 158.627 75.1836 158.627C77.4396 158.627 78.7516 160.387 78.7516 162.723C78.7516 165.043 77.4076 166.771 75.1516 166.771C73.8556 166.771 72.7836 166.195 72.2396 164.995L72.1276 166.579ZM72.2876 162.691C72.2876 164.483 73.2796 165.763 74.9756 165.763C76.6556 165.763 77.6316 164.483 77.6316 162.691C77.6316 160.915 76.6556 159.619 74.9756 159.619C73.2796 159.619 72.2876 160.915 72.2876 162.691ZM81.6634 166.579H80.5594V154.915H81.6634V166.579ZM87.2594 166.771C84.9874 166.771 83.4674 165.139 83.4674 162.707C83.4674 160.291 84.9714 158.627 87.1794 158.627C89.2754 158.627 90.6994 160.115 90.6994 162.307V162.851H84.5394C84.6194 164.739 85.6114 165.827 87.2754 165.827C88.5394 165.827 89.3554 165.283 89.6434 164.259H90.6994C90.2834 165.891 89.0834 166.771 87.2594 166.771ZM87.1794 159.571C85.7234 159.571 84.7634 160.531 84.5714 162.051H89.5954C89.5954 160.563 88.6354 159.571 87.1794 159.571ZM95.5045 166.771C93.2485 166.771 91.9205 165.043 91.9205 162.723C91.9205 160.387 93.2485 158.627 95.5525 158.627C96.8325 158.627 97.8565 159.187 98.4005 160.307V154.915H99.5045V166.579H98.5445L98.4325 164.995C97.8885 166.195 96.8005 166.771 95.5045 166.771ZM95.6965 165.763C97.3925 165.763 98.3845 164.483 98.3845 162.691C98.3845 160.915 97.3925 159.619 95.6965 159.619C94.0165 159.619 93.0405 160.915 93.0405 162.691C93.0405 164.483 94.0165 165.763 95.6965 165.763ZM111.686 158.835H112.79V166.579H111.83L111.686 165.267C111.254 166.163 110.182 166.771 108.966 166.771C107.142 166.771 106.15 165.523 106.15 163.635V158.819H107.27V163.283C107.27 165.123 108.086 165.779 109.318 165.779C110.806 165.779 111.686 164.787 111.686 162.947V158.835ZM115.09 169.955V158.835H116.049L116.162 160.403C116.706 159.203 117.794 158.627 119.09 158.627C121.33 158.627 122.674 160.339 122.674 162.675C122.674 165.011 121.378 166.771 119.09 166.771C117.778 166.771 116.738 166.211 116.194 165.091V169.955H115.09ZM116.21 162.707C116.21 164.483 117.202 165.779 118.898 165.779C120.578 165.779 121.554 164.483 121.554 162.707C121.554 160.915 120.578 159.635 118.898 159.635C117.202 159.635 116.21 160.915 116.21 162.707ZM123.889 162.707C123.889 160.339 125.553 158.627 127.825 158.627C130.097 158.627 131.761 160.339 131.761 162.707C131.761 165.059 130.097 166.771 127.825 166.771C125.553 166.771 123.889 165.059 123.889 162.707ZM125.009 162.691C125.009 164.515 126.161 165.779 127.825 165.779C129.473 165.779 130.641 164.515 130.641 162.691C130.641 160.899 129.473 159.619 127.825 159.619C126.161 159.619 125.009 160.899 125.009 162.691ZM134.631 166.579H133.527V158.835H134.487L134.647 160.179C135.159 159.187 136.183 158.627 137.303 158.627C139.431 158.627 140.311 159.891 140.311 161.843V166.579H139.207V162.083C139.207 160.275 138.391 159.635 137.111 159.635C135.527 159.635 134.631 160.787 134.631 162.531V166.579ZM146.501 158.099C146.501 156.179 148.037 154.915 150.341 154.915C152.405 154.915 153.765 156.067 153.941 157.987H152.773C152.645 156.691 151.765 155.955 150.325 155.955C148.709 155.955 147.653 156.787 147.653 158.083C147.653 159.091 148.245 159.731 149.445 160.035L151.413 160.515C153.205 160.947 154.133 161.971 154.133 163.523C154.133 165.507 152.597 166.771 150.229 166.771C148.005 166.771 146.501 165.603 146.357 163.731H147.541C147.605 164.931 148.661 165.715 150.229 165.715C151.909 165.715 152.981 164.899 152.981 163.587C152.981 162.563 152.405 161.891 151.173 161.603L149.237 161.123C147.445 160.691 146.501 159.667 146.501 158.099ZM157.069 166.563H155.965V154.915H157.069V160.179C157.565 159.251 158.509 158.627 159.805 158.627C161.837 158.627 162.749 159.891 162.749 161.843V166.579H161.645V162.083C161.645 160.275 160.797 159.635 159.597 159.635C157.933 159.635 157.069 160.867 157.069 162.355V166.563ZM164.405 162.707C164.405 160.339 166.069 158.627 168.341 158.627C170.613 158.627 172.277 160.339 172.277 162.707C172.277 165.059 170.613 166.771 168.341 166.771C166.069 166.771 164.405 165.059 164.405 162.707ZM165.525 162.691C165.525 164.515 166.677 165.779 168.341 165.779C169.989 165.779 171.157 164.515 171.157 162.691C171.157 160.899 169.989 159.619 168.341 159.619C166.677 159.619 165.525 160.899 165.525 162.691ZM174.043 169.955V158.835H175.003L175.115 160.403C175.659 159.203 176.747 158.627 178.043 158.627C180.283 158.627 181.627 160.339 181.627 162.675C181.627 165.011 180.331 166.771 178.043 166.771C176.731 166.771 175.691 166.211 175.147 165.091V169.955H174.043ZM175.163 162.707C175.163 164.483 176.155 165.779 177.851 165.779C179.531 165.779 180.507 164.483 180.507 162.707C180.507 160.915 179.531 159.635 177.851 159.635C176.155 159.635 175.163 160.915 175.163 162.707ZM183.846 166.755C183.302 166.755 182.838 166.307 182.838 165.779C182.838 165.235 183.302 164.771 183.846 164.771C184.39 164.771 184.854 165.235 184.854 165.779C184.854 166.307 184.39 166.755 183.846 166.755ZM186.061 162.723C186.061 160.291 187.549 158.627 189.805 158.627C191.597 158.627 192.909 159.667 193.213 161.267H192.109C191.821 160.195 190.893 159.603 189.821 159.603C188.253 159.603 187.149 160.803 187.149 162.707C187.149 164.547 188.173 165.779 189.741 165.779C190.893 165.779 191.821 165.139 192.125 164.147H193.245C192.877 165.731 191.501 166.771 189.741 166.771C187.549 166.771 186.061 165.155 186.061 162.723ZM194.374 162.707C194.374 160.339 196.038 158.627 198.31 158.627C200.582 158.627 202.246 160.339 202.246 162.707C202.246 165.059 200.582 166.771 198.31 166.771C196.038 166.771 194.374 165.059 194.374 162.707ZM195.494 162.691C195.494 164.515 196.646 165.779 198.31 165.779C199.958 165.779 201.126 164.515 201.126 162.691C201.126 160.899 199.958 159.619 198.31 159.619C196.646 159.619 195.494 160.899 195.494 162.691ZM204.471 166.755C203.927 166.755 203.463 166.307 203.463 165.779C203.463 165.235 203.927 164.771 204.471 164.771C205.015 164.771 205.479 165.235 205.479 165.779C205.479 166.307 205.015 166.755 204.471 166.755ZM211.192 156.179V155.123H219.4V156.179H215.864V166.579H214.712V156.179H211.192ZM221.85 166.563H220.746V154.915H221.85V160.179C222.346 159.251 223.29 158.627 224.586 158.627C226.618 158.627 227.53 159.891 227.53 161.843V166.579H226.426V162.083C226.426 160.275 225.578 159.635 224.378 159.635C222.714 159.635 221.85 160.867 221.85 162.355V166.563ZM232.978 166.771C230.706 166.771 229.186 165.139 229.186 162.707C229.186 160.291 230.69 158.627 232.898 158.627C234.994 158.627 236.418 160.115 236.418 162.307V162.851H230.258C230.338 164.739 231.33 165.827 232.994 165.827C234.258 165.827 235.074 165.283 235.362 164.259H236.418C236.002 165.891 234.802 166.771 232.978 166.771ZM232.898 159.571C231.442 159.571 230.482 160.531 230.29 162.051H235.314C235.314 160.563 234.354 159.571 232.898 159.571ZM241.965 164.403H243.021C243.021 165.299 243.693 165.859 244.781 165.859C245.981 165.859 246.685 165.347 246.685 164.515C246.685 163.875 246.365 163.507 245.453 163.283L244.125 162.947C242.781 162.611 242.125 161.907 242.125 160.851C242.125 159.491 243.261 158.627 244.925 158.627C246.557 158.627 247.613 159.523 247.661 160.963H246.589C246.557 160.067 245.933 159.539 244.893 159.539C243.805 159.539 243.197 160.003 243.197 160.835C243.197 161.427 243.613 161.843 244.461 162.051L245.789 162.387C247.133 162.723 247.741 163.347 247.741 164.467C247.741 165.859 246.557 166.771 244.797 166.771C243.053 166.771 241.965 165.843 241.965 164.403ZM252.806 166.771C250.534 166.771 249.014 165.139 249.014 162.707C249.014 160.291 250.518 158.627 252.726 158.627C254.822 158.627 256.246 160.115 256.246 162.307V162.851H250.086C250.166 164.739 251.158 165.827 252.822 165.827C254.086 165.827 254.902 165.283 255.19 164.259H256.246C255.83 165.891 254.63 166.771 252.806 166.771ZM252.726 159.571C251.27 159.571 250.31 160.531 250.118 162.051H255.142C255.142 160.563 254.182 159.571 252.726 159.571ZM259.163 166.579H258.059V154.915H259.163V166.579ZM264.759 166.771C262.487 166.771 260.967 165.139 260.967 162.707C260.967 160.291 262.471 158.627 264.679 158.627C266.775 158.627 268.199 160.115 268.199 162.307V162.851H262.039C262.119 164.739 263.111 165.827 264.775 165.827C266.039 165.827 266.855 165.283 267.143 164.259H268.199C267.783 165.891 266.583 166.771 264.759 166.771ZM264.679 159.571C263.223 159.571 262.263 160.531 262.071 162.051H267.095C267.095 160.563 266.135 159.571 264.679 159.571ZM269.421 162.723C269.421 160.291 270.909 158.627 273.165 158.627C274.957 158.627 276.269 159.667 276.573 161.267H275.469C275.181 160.195 274.253 159.603 273.181 159.603C271.613 159.603 270.509 160.803 270.509 162.707C270.509 164.547 271.533 165.779 273.101 165.779C274.253 165.779 275.181 165.139 275.485 164.147H276.605C276.237 165.731 274.861 166.771 273.101 166.771C270.909 166.771 269.421 165.155 269.421 162.723ZM280.053 166.579H278.965V159.763H277.413V158.835H278.965V156.387H280.053V158.835H281.605V159.763H280.053V166.579ZM283.587 156.707C283.139 156.707 282.771 156.339 282.771 155.891C282.771 155.443 283.139 155.059 283.587 155.059C284.035 155.059 284.419 155.443 284.419 155.891C284.419 156.339 284.035 156.707 283.587 156.707ZM283.043 166.579V158.835H284.147V166.579H283.043ZM285.905 162.707C285.905 160.339 287.569 158.627 289.841 158.627C292.113 158.627 293.777 160.339 293.777 162.707C293.777 165.059 292.113 166.771 289.841 166.771C287.569 166.771 285.905 165.059 285.905 162.707ZM287.025 162.691C287.025 164.515 288.177 165.779 289.841 165.779C291.489 165.779 292.657 164.515 292.657 162.691C292.657 160.899 291.489 159.619 289.841 159.619C288.177 159.619 287.025 160.899 287.025 162.691ZM296.647 166.579H295.543V158.835H296.503L296.663 160.179C297.175 159.187 298.199 158.627 299.319 158.627C301.447 158.627 302.327 159.891 302.327 161.843V166.579H301.223V162.083C301.223 160.275 300.407 159.635 299.127 159.635C297.543 159.635 296.647 160.787 296.647 162.531V166.579ZM308.421 162.707C308.421 160.339 310.085 158.627 312.357 158.627C314.629 158.627 316.293 160.339 316.293 162.707C316.293 165.059 314.629 166.771 312.357 166.771C310.085 166.771 308.421 165.059 308.421 162.707ZM309.541 162.691C309.541 164.515 310.693 165.779 312.357 165.779C314.005 165.779 315.173 164.515 315.173 162.691C315.173 160.899 314.005 159.619 312.357 159.619C310.693 159.619 309.541 160.899 309.541 162.691ZM317.132 158.835H318.316V157.331C318.316 155.587 319.276 154.915 320.46 154.915C320.732 154.915 321.052 154.931 321.308 154.979V155.923H320.652C319.676 155.923 319.42 156.419 319.42 157.331V158.835H321.244V159.763H319.42V166.579H318.316V159.763H317.132V158.835ZM36.608 184.723C36.608 182.291 38.096 180.627 40.352 180.627C42.144 180.627 43.456 181.667 43.76 183.267H42.656C42.368 182.195 41.44 181.603 40.368 181.603C38.8 181.603 37.696 182.803 37.696 184.707C37.696 186.547 38.72 187.779 40.288 187.779C41.44 187.779 42.368 187.139 42.672 186.147H43.792C43.424 187.731 42.048 188.771 40.288 188.771C38.096 188.771 36.608 187.155 36.608 184.723ZM46.6165 188.579H45.5125V176.915H46.6165V188.579ZM48.4205 184.707C48.4205 182.339 50.0845 180.627 52.3565 180.627C54.6285 180.627 56.2925 182.339 56.2925 184.707C56.2925 187.059 54.6285 188.771 52.3565 188.771C50.0845 188.771 48.4205 187.059 48.4205 184.707ZM49.5405 184.691C49.5405 186.515 50.6925 187.779 52.3565 187.779C54.0045 187.779 55.1725 186.515 55.1725 184.691C55.1725 182.899 54.0045 181.619 52.3565 181.619C50.6925 181.619 49.5405 182.899 49.5405 184.691ZM59.7561 188.579H58.6681V181.763H57.1161V180.835H58.6681V178.387H59.7561V180.835H61.3081V181.763H59.7561V188.579ZM63.8498 188.563H62.7458V176.915H63.8498V182.179C64.3458 181.251 65.2898 180.627 66.5858 180.627C68.6178 180.627 69.5298 181.891 69.5298 183.843V188.579H68.4258V184.083C68.4258 182.275 67.5778 181.635 66.3778 181.635C64.7138 181.635 63.8498 182.867 63.8498 184.355V188.563ZM74.9781 188.771C72.7061 188.771 71.1861 187.139 71.1861 184.707C71.1861 182.291 72.6901 180.627 74.8981 180.627C76.9941 180.627 78.4181 182.115 78.4181 184.307V184.851H72.2581C72.3381 186.739 73.3301 187.827 74.9941 187.827C76.2581 187.827 77.0741 187.283 77.3621 186.259H78.4181C78.0021 187.891 76.8021 188.771 74.9781 188.771ZM74.8981 181.571C73.4421 181.571 72.4821 182.531 72.2901 184.051H77.3141C77.3141 182.563 76.3541 181.571 74.8981 181.571ZM79.5273 186.403H80.5833C80.5833 187.299 81.2553 187.859 82.3433 187.859C83.5433 187.859 84.2473 187.347 84.2473 186.515C84.2473 185.875 83.9273 185.507 83.0153 185.283L81.6873 184.947C80.3433 184.611 79.6873 183.907 79.6873 182.851C79.6873 181.491 80.8233 180.627 82.4873 180.627C84.1193 180.627 85.1753 181.523 85.2233 182.963H84.1513C84.1193 182.067 83.4953 181.539 82.4553 181.539C81.3673 181.539 80.7593 182.003 80.7593 182.835C80.7593 183.427 81.1753 183.843 82.0233 184.051L83.3513 184.387C84.6953 184.723 85.3033 185.347 85.3033 186.467C85.3033 187.859 84.1193 188.771 82.3593 188.771C80.6153 188.771 79.5273 187.843 79.5273 186.403ZM92.1023 178.707C91.6543 178.707 91.2863 178.339 91.2863 177.891C91.2863 177.443 91.6543 177.059 92.1023 177.059C92.5503 177.059 92.9343 177.443 92.9343 177.891C92.9343 178.339 92.5503 178.707 92.1023 178.707ZM91.5583 188.579V180.835H92.6623V188.579H91.5583ZM94.3085 186.403H95.3645C95.3645 187.299 96.0365 187.859 97.1245 187.859C98.3245 187.859 99.0285 187.347 99.0285 186.515C99.0285 185.875 98.7085 185.507 97.7965 185.283L96.4685 184.947C95.1245 184.611 94.4685 183.907 94.4685 182.851C94.4685 181.491 95.6045 180.627 97.2685 180.627C98.9005 180.627 99.9565 181.523 100.005 182.963H98.9325C98.9005 182.067 98.2765 181.539 97.2365 181.539C96.1485 181.539 95.5405 182.003 95.5405 182.835C95.5405 183.427 95.9565 183.843 96.8045 184.051L98.1325 184.387C99.4765 184.723 100.085 185.347 100.085 186.467C100.085 187.859 98.9005 188.771 97.1405 188.771C95.3965 188.771 94.3085 187.843 94.3085 186.403ZM107.444 188.579H106.34V180.835H107.299L107.46 182.179C107.972 181.187 108.996 180.627 110.116 180.627C112.244 180.627 113.124 181.891 113.124 183.843V188.579H112.02V184.083C112.02 182.275 111.204 181.635 109.924 181.635C108.34 181.635 107.444 182.787 107.444 184.531V188.579ZM114.78 184.707C114.78 182.339 116.444 180.627 118.716 180.627C120.988 180.627 122.652 182.339 122.652 184.707C122.652 187.059 120.988 188.771 118.716 188.771C116.444 188.771 114.78 187.059 114.78 184.707ZM115.9 184.691C115.9 186.515 117.052 187.779 118.716 187.779C120.364 187.779 121.532 186.515 121.532 184.691C121.532 182.899 120.364 181.619 118.716 181.619C117.052 181.619 115.9 182.899 115.9 184.691ZM126.116 188.579H125.028V181.763H123.476V180.835H125.028V178.387H126.116V180.835H127.668V181.763H126.116V188.579ZM132.999 184.707C132.999 182.339 134.663 180.627 136.935 180.627C139.207 180.627 140.871 182.339 140.871 184.707C140.871 187.059 139.207 188.771 136.935 188.771C134.663 188.771 132.999 187.059 132.999 184.707ZM134.119 184.691C134.119 186.515 135.271 187.779 136.935 187.779C138.583 187.779 139.751 186.515 139.751 184.691C139.751 182.899 138.583 181.619 136.935 181.619C135.271 181.619 134.119 182.899 134.119 184.691ZM143.74 188.579H142.636V180.835H143.596L143.756 182.179C144.268 181.187 145.292 180.627 146.412 180.627C148.54 180.627 149.42 181.891 149.42 183.843V188.579H148.316V184.083C148.316 182.275 147.5 181.635 146.22 181.635C144.636 181.635 143.74 182.787 143.74 184.531V188.579ZM152.773 188.579H151.669V176.915H152.773V188.579ZM154.337 191.955V191.043H155.185C155.857 191.043 156.529 190.995 156.913 189.955L157.249 189.043L154.113 180.835H155.281L157.777 187.587L160.225 180.835H161.361L157.809 190.355C157.361 191.571 156.609 192.067 155.505 192.067C155.041 192.067 154.689 192.035 154.337 191.955ZM170.13 188.771C167.874 188.771 166.546 187.043 166.546 184.723C166.546 182.387 167.874 180.627 170.178 180.627C171.458 180.627 172.482 181.187 173.026 182.307V176.915H174.13V188.579H173.17L173.058 186.995C172.514 188.195 171.426 188.771 170.13 188.771ZM170.322 187.763C172.018 187.763 173.01 186.483 173.01 184.691C173.01 182.915 172.018 181.619 170.322 181.619C168.642 181.619 167.666 182.915 167.666 184.691C167.666 186.483 168.642 187.763 170.322 187.763ZM176.977 178.707C176.529 178.707 176.161 178.339 176.161 177.891C176.161 177.443 176.529 177.059 176.977 177.059C177.425 177.059 177.809 177.443 177.809 177.891C177.809 178.339 177.425 178.707 176.977 178.707ZM176.433 188.579V180.835H177.537V188.579H176.433ZM182 188.579L178.832 180.835H180.016L182.016 185.827C182.224 186.387 182.432 186.915 182.576 187.427C182.72 186.899 182.928 186.387 183.152 185.827L185.184 180.835H186.32L183.104 188.579H182ZM190.525 188.771C188.253 188.771 186.733 187.139 186.733 184.707C186.733 182.291 188.237 180.627 190.445 180.627C192.541 180.627 193.965 182.115 193.965 184.307V184.851H187.805C187.885 186.739 188.877 187.827 190.541 187.827C191.805 187.827 192.621 187.283 192.909 186.259H193.965C193.549 187.891 192.349 188.771 190.525 188.771ZM190.445 181.571C188.989 181.571 188.029 182.531 187.837 184.051H192.861C192.861 182.563 191.901 181.571 190.445 181.571ZM199.778 180.739V181.731H199.17C197.746 181.731 196.834 182.691 196.834 184.163V188.579H195.73V180.835H196.77L196.85 182.035C197.154 181.203 197.97 180.659 199.058 180.659C199.298 180.659 199.506 180.675 199.778 180.739ZM200.59 186.403H201.646C201.646 187.299 202.318 187.859 203.406 187.859C204.606 187.859 205.31 187.347 205.31 186.515C205.31 185.875 204.99 185.507 204.078 185.283L202.75 184.947C201.406 184.611 200.75 183.907 200.75 182.851C200.75 181.491 201.886 180.627 203.55 180.627C205.182 180.627 206.238 181.523 206.286 182.963H205.214C205.182 182.067 204.558 181.539 203.518 181.539C202.43 181.539 201.822 182.003 201.822 182.835C201.822 183.427 202.238 183.843 203.086 184.051L204.414 184.387C205.758 184.723 206.366 185.347 206.366 186.467C206.366 187.859 205.182 188.771 203.422 188.771C201.678 188.771 200.59 187.843 200.59 186.403ZM211.431 188.771C209.159 188.771 207.639 187.139 207.639 184.707C207.639 182.291 209.143 180.627 211.351 180.627C213.447 180.627 214.871 182.115 214.871 184.307V184.851H208.711C208.791 186.739 209.783 187.827 211.447 187.827C212.711 187.827 213.527 187.283 213.815 186.259H214.871C214.455 187.891 213.255 188.771 211.431 188.771ZM211.351 181.571C209.895 181.571 208.935 182.531 208.743 184.051H213.767C213.767 182.563 212.807 181.571 211.351 181.571ZM222.034 188.579H221.074V176.915H222.178V182.339C222.722 181.203 223.778 180.627 225.09 180.627C227.346 180.627 228.658 182.387 228.658 184.723C228.658 187.043 227.314 188.771 225.058 188.771C223.762 188.771 222.69 188.195 222.146 186.995L222.034 188.579ZM222.194 184.691C222.194 186.483 223.186 187.763 224.882 187.763C226.562 187.763 227.538 186.483 227.538 184.691C227.538 182.915 226.562 181.619 224.882 181.619C223.186 181.619 222.194 182.915 222.194 184.691ZM235.67 180.835H236.774V188.579H235.814L235.67 187.267C235.238 188.163 234.166 188.771 232.95 188.771C231.126 188.771 230.134 187.523 230.134 185.635V180.819H231.254V185.283C231.254 187.123 232.07 187.779 233.302 187.779C234.79 187.779 235.67 186.787 235.67 184.947V180.835ZM240.85 188.579H239.762V181.763H238.21V180.835H239.762V178.387H240.85V180.835H242.402V181.763H240.85V188.579ZM250.501 188.771C248.853 188.771 247.877 187.843 247.877 186.483C247.877 185.059 248.965 184.163 250.773 184.019L253.333 183.811V183.555C253.333 182.035 252.421 181.555 251.285 181.555C249.941 181.555 249.141 182.163 249.141 183.203H248.133C248.133 181.635 249.413 180.627 251.317 180.627C253.109 180.627 254.421 181.523 254.421 183.571V188.579H253.493L253.349 187.219C252.869 188.195 251.813 188.771 250.501 188.771ZM250.757 187.875C252.389 187.875 253.333 186.739 253.333 185.059V184.643L251.045 184.819C249.589 184.947 248.997 185.587 248.997 186.451C248.997 187.395 249.701 187.875 250.757 187.875ZM257.788 188.579H256.684V176.915H257.788V188.579ZM259.48 186.403H260.536C260.536 187.299 261.208 187.859 262.296 187.859C263.496 187.859 264.2 187.347 264.2 186.515C264.2 185.875 263.88 185.507 262.968 185.283L261.64 184.947C260.296 184.611 259.64 183.907 259.64 182.851C259.64 181.491 260.776 180.627 262.44 180.627C264.072 180.627 265.128 181.523 265.176 182.963H264.104C264.072 182.067 263.448 181.539 262.408 181.539C261.32 181.539 260.712 182.003 260.712 182.835C260.712 183.427 261.128 183.843 261.976 184.051L263.304 184.387C264.648 184.723 265.256 185.347 265.256 186.467C265.256 187.859 264.072 188.771 262.312 188.771C260.568 188.771 259.48 187.843 259.48 186.403ZM266.53 184.707C266.53 182.339 268.194 180.627 270.466 180.627C272.738 180.627 274.402 182.339 274.402 184.707C274.402 187.059 272.738 188.771 270.466 188.771C268.194 188.771 266.53 187.059 266.53 184.707ZM267.65 184.691C267.65 186.515 268.802 187.779 270.466 187.779C272.114 187.779 273.282 186.515 273.282 184.691C273.282 182.899 272.114 181.619 270.466 181.619C268.802 181.619 267.65 182.899 267.65 184.691ZM280.061 184.707C280.061 182.339 281.725 180.627 283.997 180.627C286.269 180.627 287.933 182.339 287.933 184.707C287.933 187.059 286.269 188.771 283.997 188.771C281.725 188.771 280.061 187.059 280.061 184.707ZM281.181 184.691C281.181 186.515 282.333 187.779 283.997 187.779C285.645 187.779 286.813 186.515 286.813 184.691C286.813 182.899 285.645 181.619 283.997 181.619C282.333 181.619 281.181 182.899 281.181 184.691ZM290.803 188.579H289.699V180.835H290.659L290.819 182.179C291.331 181.187 292.355 180.627 293.475 180.627C295.603 180.627 296.483 181.891 296.483 183.843V188.579H295.379V184.083C295.379 182.275 294.563 181.635 293.283 181.635C291.699 181.635 290.803 182.787 290.803 184.531V188.579ZM298.555 184.867V183.875H303.195V184.867H298.555ZM305.371 191.955V180.835H306.331L306.443 182.403C306.987 181.203 308.075 180.627 309.371 180.627C311.611 180.627 312.955 182.339 312.955 184.675C312.955 187.011 311.659 188.771 309.371 188.771C308.059 188.771 307.019 188.211 306.475 187.091V191.955H305.371ZM306.491 184.707C306.491 186.483 307.483 187.779 309.179 187.779C310.859 187.779 311.835 186.483 311.835 184.707C311.835 182.915 310.859 181.635 309.179 181.635C307.483 181.635 306.491 182.915 306.491 184.707ZM314.171 184.707C314.171 182.339 315.835 180.627 318.107 180.627C320.379 180.627 322.043 182.339 322.043 184.707C322.043 187.059 320.379 188.771 318.107 188.771C315.835 188.771 314.171 187.059 314.171 184.707ZM315.291 184.691C315.291 186.515 316.443 187.779 318.107 187.779C319.755 187.779 320.923 186.515 320.923 184.691C320.923 182.899 319.755 181.619 318.107 181.619C316.443 181.619 315.291 182.899 315.291 184.691ZM324.352 178.707C323.904 178.707 323.536 178.339 323.536 177.891C323.536 177.443 323.904 177.059 324.352 177.059C324.8 177.059 325.184 177.443 325.184 177.891C325.184 178.339 324.8 178.707 324.352 178.707ZM323.808 188.579V180.835H324.912V188.579H323.808ZM328.319 188.579H327.215V180.835H328.174L328.335 182.179C328.847 181.187 329.871 180.627 330.991 180.627C333.119 180.627 333.999 181.891 333.999 183.843V188.579H332.895V184.083C332.895 182.275 332.079 181.635 330.799 181.635C329.215 181.635 328.319 182.787 328.319 184.531V188.579ZM337.975 188.579H336.887V181.763H335.335V180.835H336.887V178.387H337.975V180.835H339.527V181.763H337.975V188.579ZM38.784 210.579L36.224 202.835H37.36L38.88 207.507C39.056 208.019 39.2 208.547 39.36 209.171C39.488 208.547 39.744 207.763 39.824 207.507L41.36 202.835H42.496L44.016 207.507C44.16 207.923 44.352 208.595 44.496 209.171C44.656 208.531 44.688 208.339 44.96 207.507L46.496 202.835H47.648L45.024 210.579H43.952L42.352 205.715C42.16 205.139 42.032 204.659 41.936 204.195C41.824 204.611 41.696 205.075 41.488 205.715L39.888 210.579H38.784ZM49.571 200.707C49.123 200.707 48.755 200.339 48.755 199.891C48.755 199.443 49.123 199.059 49.571 199.059C50.019 199.059 50.403 199.443 50.403 199.891C50.403 200.339 50.019 200.707 49.571 200.707ZM49.027 210.579V202.835H50.131V210.579H49.027ZM54.2093 210.579H53.1213V203.763H51.5693V202.835H53.1213V200.387H54.2093V202.835H55.7613V203.763H54.2093V210.579ZM58.3029 210.563H57.1989V198.915H58.3029V204.179C58.7989 203.251 59.7429 202.627 61.0389 202.627C63.0709 202.627 63.9829 203.891 63.9829 205.843V210.579H62.8789V206.083C62.8789 204.275 62.0309 203.635 60.8309 203.635C59.1669 203.635 58.3029 204.867 58.3029 206.355V210.563ZM72.3968 210.579H71.3088V203.763H69.7568V202.835H71.3088V200.387H72.3968V202.835H73.9488V203.763H72.3968V210.579ZM76.4904 210.563H75.3864V198.915H76.4904V204.179C76.9864 203.251 77.9304 202.627 79.2264 202.627C81.2584 202.627 82.1704 203.891 82.1704 205.843V210.579H81.0664V206.083C81.0664 204.275 80.2184 203.635 79.0184 203.635C77.3544 203.635 76.4904 204.867 76.4904 206.355V210.563ZM87.6188 210.771C85.3468 210.771 83.8268 209.139 83.8268 206.707C83.8268 204.291 85.3307 202.627 87.5388 202.627C89.6348 202.627 91.0588 204.115 91.0588 206.307V206.851H84.8988C84.9788 208.739 85.9708 209.827 87.6348 209.827C88.8988 209.827 89.7148 209.283 90.0028 208.259H91.0588C90.6428 209.891 89.4428 210.771 87.6188 210.771ZM87.5388 203.571C86.0828 203.571 85.1228 204.531 84.9308 206.051H89.9548C89.9548 204.563 88.9948 203.571 87.5388 203.571ZM98.4134 210.579H97.3094V198.915H98.4134V210.579ZM102.985 210.771C101.337 210.771 100.361 209.843 100.361 208.483C100.361 207.059 101.449 206.163 103.257 206.019L105.817 205.811V205.555C105.817 204.035 104.905 203.555 103.769 203.555C102.425 203.555 101.625 204.163 101.625 205.203H100.617C100.617 203.635 101.897 202.627 103.801 202.627C105.593 202.627 106.905 203.523 106.905 205.571V210.579H105.977L105.833 209.219C105.353 210.195 104.297 210.771 102.985 210.771ZM103.241 209.875C104.873 209.875 105.817 208.739 105.817 207.059V206.643L103.529 206.819C102.073 206.947 101.481 207.587 101.481 208.451C101.481 209.395 102.185 209.875 103.241 209.875ZM110.756 210.579H109.668V203.763H108.116V202.835H109.668V200.387H110.756V202.835H112.308V203.763H110.756V210.579ZM116.916 210.771C114.644 210.771 113.124 209.139 113.124 206.707C113.124 204.291 114.628 202.627 116.836 202.627C118.932 202.627 120.356 204.115 120.356 206.307V206.851H114.196C114.276 208.739 115.268 209.827 116.932 209.827C118.196 209.827 119.012 209.283 119.3 208.259H120.356C119.94 209.891 118.74 210.771 116.916 210.771ZM116.836 203.571C115.38 203.571 114.42 204.531 114.228 206.051H119.252C119.252 204.563 118.292 203.571 116.836 203.571ZM121.465 208.403H122.521C122.521 209.299 123.193 209.859 124.281 209.859C125.481 209.859 126.185 209.347 126.185 208.515C126.185 207.875 125.865 207.507 124.953 207.283L123.625 206.947C122.281 206.611 121.625 205.907 121.625 204.851C121.625 203.491 122.761 202.627 124.425 202.627C126.057 202.627 127.113 203.523 127.161 204.963H126.089C126.057 204.067 125.433 203.539 124.393 203.539C123.305 203.539 122.697 204.003 122.697 204.835C122.697 205.427 123.113 205.843 123.961 206.051L125.289 206.387C126.633 206.723 127.241 207.347 127.241 208.467C127.241 209.859 126.057 210.771 124.297 210.771C122.553 210.771 121.465 209.843 121.465 208.403ZM130.834 210.579H129.746V203.763H128.194V202.835H129.746V200.387H130.834V202.835H132.386V203.763H130.834V210.579ZM140.037 210.579H138.949V203.763H137.397V202.835H138.949V200.387H140.037V202.835H141.589V203.763H140.037V210.579ZM147.075 202.739V203.731H146.467C145.043 203.731 144.131 204.691 144.131 206.163V210.579H143.027V202.835H144.067L144.147 204.035C144.451 203.203 145.267 202.659 146.355 202.659C146.595 202.659 146.803 202.675 147.075 202.739ZM151.494 210.771C149.222 210.771 147.702 209.139 147.702 206.707C147.702 204.291 149.206 202.627 151.414 202.627C153.51 202.627 154.934 204.115 154.934 206.307V206.851H148.774C148.854 208.739 149.846 209.827 151.51 209.827C152.774 209.827 153.59 209.283 153.878 208.259H154.934C154.518 209.891 153.318 210.771 151.494 210.771ZM151.414 203.571C149.958 203.571 148.998 204.531 148.806 206.051H153.83C153.83 204.563 152.87 203.571 151.414 203.571ZM157.803 210.579H156.699V202.835H157.659L157.819 204.179C158.331 203.187 159.355 202.627 160.475 202.627C162.603 202.627 163.483 203.891 163.483 205.843V210.579H162.379V206.083C162.379 204.275 161.563 203.635 160.283 203.635C158.699 203.635 157.803 204.787 157.803 206.531V210.579ZM168.723 210.771C166.467 210.771 165.139 209.043 165.139 206.723C165.139 204.387 166.467 202.627 168.771 202.627C170.051 202.627 171.075 203.187 171.619 204.307V198.915H172.723V210.579H171.763L171.651 208.995C171.107 210.195 170.019 210.771 168.723 210.771ZM168.915 209.763C170.611 209.763 171.603 208.483 171.603 206.691C171.603 204.915 170.611 203.619 168.915 203.619C167.235 203.619 166.259 204.915 166.259 206.691C166.259 208.483 167.235 209.763 168.915 209.763ZM174.371 208.403H175.427C175.427 209.299 176.099 209.859 177.187 209.859C178.387 209.859 179.091 209.347 179.091 208.515C179.091 207.875 178.771 207.507 177.859 207.283L176.531 206.947C175.187 206.611 174.531 205.907 174.531 204.851C174.531 203.491 175.667 202.627 177.331 202.627C178.963 202.627 180.019 203.523 180.067 204.963H178.995C178.963 204.067 178.339 203.539 177.299 203.539C176.211 203.539 175.603 204.003 175.603 204.835C175.603 205.427 176.019 205.843 176.867 206.051L178.195 206.387C179.539 206.723 180.147 207.347 180.147 208.467C180.147 209.859 178.963 210.771 177.203 210.771C175.459 210.771 174.371 209.843 174.371 208.403ZM182.784 210.755C182.24 210.755 181.776 210.307 181.776 209.779C181.776 209.235 182.24 208.771 182.784 208.771C183.328 208.771 183.792 209.235 183.792 209.779C183.792 210.307 183.328 210.755 182.784 210.755ZM186.475 200.147C186.475 201.155 185.739 202.003 184.747 202.147V201.555C185.307 201.443 185.723 201.043 185.723 200.595C185.627 200.659 185.483 200.691 185.291 200.691C184.875 200.691 184.507 200.387 184.507 199.843C184.507 199.299 184.891 198.899 185.451 198.899C185.995 198.899 186.475 199.363 186.475 200.147ZM189.067 200.147C189.067 201.155 188.315 202.003 187.339 202.147V201.555C187.899 201.443 188.315 201.043 188.315 200.579C188.219 200.643 188.091 200.691 187.883 200.691C187.467 200.691 187.083 200.387 187.083 199.843C187.083 199.299 187.467 198.899 188.027 198.899C188.587 198.899 189.067 199.363 189.067 200.147Z" fill="black" fill-opacity="0.6"/>
</g>
<defs>
<filter id="filter0_f_24_840" x="0" y="0" width="408" height="247.579" filterUnits="userSpaceOnUse" color-interpolation-filters="sRGB">
<feFlood flood-opacity="0" result="BackgroundImageFix"/>
<feBlend mode="normal" in="SourceGraphic" in2="BackgroundImageFix" result="shape"/>
<feGaussianBlur stdDeviation="2" result="effect1_foregroundBlur_24_840"/>
</filter>
</defs>
</svg>
