<svg width="400" height="240" viewBox="0 0 400 240" fill="none" xmlns="http://www.w3.org/2000/svg">
<rect x="0.5" y="0.5" width="399" height="239" rx="19.5" stroke="black" stroke-opacity="0.1"/>
<path d="M43.2895 28L46.4879 34.8872L54.0264 35.8008L48.4647 40.971L49.9253 48.4229L43.2895 44.731L36.6537 48.4229L38.1143 40.971L32.5525 35.8008L40.091 34.8872L43.2895 28Z" fill="#FFC633"/>
<path d="M72.3553 28L75.5537 34.8872L83.0922 35.8008L77.5305 40.971L78.9911 48.4229L72.3553 44.731L65.7195 48.4229L67.1801 40.971L61.6183 35.8008L69.1568 34.8872L72.3553 28Z" fill="#FFC633"/>
<path d="M101.421 28L104.619 34.8872L112.158 35.8008L106.596 40.971L108.057 48.4229L101.421 44.731L94.7852 48.4229L96.2458 40.971L90.6841 35.8008L98.2226 34.8872L101.421 28Z" fill="#FFC633"/>
<path d="M130.487 28L133.685 34.8872L141.224 35.8008L135.662 40.971L137.123 48.4229L130.487 44.731L123.851 48.4229L125.312 40.971L119.75 35.8008L127.288 34.8872L130.487 28Z" fill="#FFC633"/>
<path d="M159.553 28L162.751 34.8872L170.289 35.8008L164.728 40.971L166.188 48.4229L159.553 44.731L152.917 48.4229L154.377 40.971L148.816 35.8008L156.354 34.8872L159.553 28Z" fill="#FFC633"/>
<path d="M32.78 74.5391C32.78 71.9791 34.9 70.1991 37.98 70.1991C40.94 70.1991 42.82 71.8391 42.9 74.4791H40.34C40.28 73.2191 39.38 72.4791 37.94 72.4791C36.36 72.4791 35.34 73.2391 35.34 74.4591C35.34 75.4991 35.9 76.0791 37.12 76.3591L39.42 76.8591C41.92 77.3991 43.14 78.6791 43.14 80.8591C43.14 83.5791 41.02 85.3391 37.8 85.3391C34.68 85.3391 32.64 83.6791 32.58 81.0591H35.14C35.16 82.2991 36.16 83.0391 37.8 83.0391C39.5 83.0391 40.58 82.2991 40.58 81.0791C40.58 80.0991 40.08 79.5191 38.88 79.2591L36.56 78.7391C34.08 78.1991 32.78 76.7791 32.78 74.5391ZM48.0359 85.3391C45.9359 85.3391 44.6559 84.1191 44.6559 82.2591C44.6559 80.4391 45.9759 79.2991 48.3159 79.1191L51.2759 78.8991V78.6791C51.2759 77.3391 50.4759 76.7991 49.2359 76.7991C47.7959 76.7991 46.9959 77.3991 46.9959 78.4391H44.9159C44.9159 76.2991 46.6759 74.8991 49.3559 74.8991C52.0159 74.8991 53.6559 76.3391 53.6559 79.0791V85.0791H51.5159L51.3359 83.6191C50.9159 84.6391 49.5759 85.3391 48.0359 85.3391ZM48.8359 83.4991C50.3359 83.4991 51.2959 82.5991 51.2959 81.0791V80.5591L49.2359 80.7191C47.7159 80.8591 47.1359 81.3591 47.1359 82.1591C47.1359 83.0591 47.7359 83.4991 48.8359 83.4991ZM62.253 75.1591V77.4191H61.353C59.593 77.4191 58.493 78.3591 58.493 80.2791V85.0791H56.053V75.2191H58.353L58.493 76.6591C58.913 75.6791 59.853 75.0191 61.173 75.0191C61.513 75.0191 61.853 75.0591 62.253 75.1591ZM66.4539 85.3391C64.3539 85.3391 63.0739 84.1191 63.0739 82.2591C63.0739 80.4391 64.3939 79.2991 66.7339 79.1191L69.6939 78.8991V78.6791C69.6939 77.3391 68.8939 76.7991 67.6539 76.7991C66.2139 76.7991 65.4139 77.3991 65.4139 78.4391H63.3339C63.3339 76.2991 65.0939 74.8991 67.7739 74.8991C70.4339 74.8991 72.0739 76.3391 72.0739 79.0791V85.0791H69.9339L69.7539 83.6191C69.3339 84.6391 67.9939 85.3391 66.4539 85.3391ZM67.2539 83.4991C68.7539 83.4991 69.7139 82.5991 69.7139 81.0791V80.5591L67.6539 80.7191C66.1339 80.8591 65.5539 81.3591 65.5539 82.1591C65.5539 83.0591 66.1539 83.4991 67.2539 83.4991ZM76.9109 85.0791H74.4709V70.1991H76.9309V76.4791C77.5509 75.5191 78.7109 74.8991 80.1309 74.8991C82.5709 74.8991 83.8509 76.4391 83.8509 78.9991V85.0791H81.4109V79.5791C81.4109 77.9191 80.5909 77.1191 79.3509 77.1191C77.8109 77.1191 76.9109 78.1991 76.9109 79.6791V85.0791ZM94.4789 85.0791H91.9989V70.4591H94.4789L99.1989 82.0991L103.919 70.4591H106.439V85.0791H103.959V80.5791C103.959 77.6391 103.959 76.7791 104.099 75.7391L100.379 85.0791H98.0189L94.3189 75.7591C94.4589 76.6391 94.4789 78.0191 94.4789 79.8391V85.0791ZM110.955 85.3191C110.075 85.3191 109.335 84.5991 109.335 83.7391C109.335 82.8591 110.075 82.1391 110.955 82.1391C111.835 82.1391 112.575 82.8591 112.575 83.7391C112.575 84.5991 111.835 85.3191 110.955 85.3191Z" fill="black"/>
<path d="M130 67.8291C128.072 67.8291 126.187 68.4009 124.583 69.4723C122.98 70.5436 121.73 72.0664 120.992 73.8479C120.254 75.6295 120.061 77.5899 120.437 79.4812C120.814 81.3725 121.742 83.1098 123.106 84.4734C124.469 85.837 126.207 86.7656 128.098 87.1418C129.989 87.518 131.95 87.3249 133.731 86.5869C135.513 85.849 137.035 84.5993 138.107 82.9959C139.178 81.3925 139.75 79.5075 139.75 77.5791C139.747 74.9941 138.719 72.5157 136.891 70.6878C135.063 68.8599 132.585 67.8318 130 67.8291ZM134.281 75.8597L129.031 81.1097C128.961 81.1795 128.878 81.2348 128.787 81.2725C128.696 81.3103 128.599 81.3297 128.5 81.3297C128.401 81.3297 128.304 81.3103 128.213 81.2725C128.122 81.2348 128.039 81.1795 127.969 81.1097L125.719 78.8597C125.579 78.719 125.5 78.5281 125.5 78.3291C125.5 78.1301 125.579 77.9392 125.719 77.7985C125.86 77.6577 126.051 77.5787 126.25 77.5787C126.449 77.5787 126.64 77.6577 126.781 77.7985L128.5 79.5188L133.219 74.7985C133.289 74.7288 133.372 74.6735 133.463 74.6358C133.554 74.5981 133.651 74.5787 133.75 74.5787C133.849 74.5787 133.946 74.5981 134.037 74.6358C134.128 74.6735 134.211 74.7288 134.281 74.7985C134.35 74.8682 134.406 74.9509 134.443 75.0419C134.481 75.133 134.5 75.2306 134.5 75.3291C134.5 75.4276 134.481 75.5252 134.443 75.6163C134.406 75.7073 134.35 75.79 134.281 75.8597Z" fill="#01AB31"/>
<path d="M34.08 107.907L33.776 111.091H33.056L32.736 107.907C32.672 107.347 33.072 107.091 33.424 107.091C33.76 107.091 34.144 107.347 34.08 107.907ZM36.336 107.907L36.032 111.091H35.312L34.992 107.907C34.928 107.347 35.328 107.091 35.68 107.091C36.016 107.091 36.4 107.347 36.336 107.907ZM39.6221 107.123V118.579H38.4701V107.123H39.6221ZM43.0956 107.907L42.7916 111.091H42.0716L41.7516 107.907C41.6876 107.347 42.0876 107.091 42.4396 107.091C42.7756 107.091 43.1596 107.347 43.0956 107.907ZM46.0841 118.579H44.9801V110.835H45.9401L46.0681 111.939C46.4521 111.123 47.3161 110.627 48.4041 110.627C49.6201 110.627 50.5321 111.267 50.9001 112.275C51.2521 111.267 52.1961 110.627 53.4441 110.627C55.1241 110.627 56.2281 111.715 56.2281 113.507V118.579H55.1561V113.731C55.1561 112.403 54.4201 111.619 53.2361 111.619C51.9401 111.619 51.1721 112.595 51.1721 113.795V118.579H50.0841V113.715C50.0841 112.403 49.3321 111.635 48.1641 111.635C46.8681 111.635 46.0841 112.595 46.0841 113.779V118.579ZM63.8464 118.579H62.8864V106.915H63.9904V112.339C64.5344 111.203 65.5904 110.627 66.9024 110.627C69.1584 110.627 70.4704 112.387 70.4704 114.723C70.4704 117.043 69.1264 118.771 66.8704 118.771C65.5744 118.771 64.5024 118.195 63.9584 116.995L63.8464 118.579ZM64.0064 114.691C64.0064 116.483 64.9984 117.763 66.6944 117.763C68.3744 117.763 69.3504 116.483 69.3504 114.691C69.3504 112.915 68.3744 111.619 66.6944 111.619C64.9984 111.619 64.0064 112.915 64.0064 114.691ZM73.3821 118.579H72.2781V106.915H73.3821V118.579ZM75.1861 114.707C75.1861 112.339 76.8501 110.627 79.1221 110.627C81.3941 110.627 83.0581 112.339 83.0581 114.707C83.0581 117.059 81.3941 118.771 79.1221 118.771C76.8501 118.771 75.1861 117.059 75.1861 114.707ZM76.3061 114.691C76.3061 116.515 77.4581 117.779 79.1221 117.779C80.7701 117.779 81.9381 116.515 81.9381 114.691C81.9381 112.899 80.7701 111.619 79.1221 111.619C77.4581 111.619 76.3061 112.899 76.3061 114.691ZM86.1121 118.579L83.5521 110.835H84.6881L86.2081 115.507C86.3841 116.019 86.5281 116.547 86.6881 117.171C86.8161 116.547 87.0721 115.763 87.1521 115.507L88.6881 110.835H89.8241L91.3441 115.507C91.4881 115.923 91.6801 116.595 91.8241 117.171C91.9841 116.531 92.0161 116.339 92.2881 115.507L93.8241 110.835H94.9761L92.3521 118.579H91.2801L89.6801 113.715C89.4881 113.139 89.3601 112.659 89.2641 112.195C89.1521 112.611 89.0241 113.075 88.8161 113.715L87.2161 118.579H86.1121ZM97.4591 118.579H96.3551V110.835H97.3151L97.4751 112.179C97.9871 111.187 99.0111 110.627 100.131 110.627C102.259 110.627 103.139 111.891 103.139 113.843V118.579H102.035V114.083C102.035 112.275 101.219 111.635 99.9391 111.635C98.3551 111.635 97.4591 112.787 97.4591 114.531V118.579ZM112.001 118.771C110.353 118.771 109.377 117.843 109.377 116.483C109.377 115.059 110.465 114.163 112.273 114.019L114.833 113.811V113.555C114.833 112.035 113.921 111.555 112.785 111.555C111.441 111.555 110.641 112.163 110.641 113.203H109.633C109.633 111.635 110.913 110.627 112.817 110.627C114.609 110.627 115.921 111.523 115.921 113.571V118.579H114.993L114.849 117.219C114.369 118.195 113.313 118.771 112.001 118.771ZM112.257 117.875C113.889 117.875 114.833 116.739 114.833 115.059V114.643L112.545 114.819C111.089 114.947 110.497 115.587 110.497 116.451C110.497 117.395 111.201 117.875 112.257 117.875ZM119.534 118.579L116.974 110.835H118.11L119.63 115.507C119.806 116.019 119.95 116.547 120.11 117.171C120.238 116.547 120.494 115.763 120.574 115.507L122.11 110.835H123.246L124.766 115.507C124.91 115.923 125.102 116.595 125.246 117.171C125.406 116.531 125.438 116.339 125.71 115.507L127.246 110.835H128.398L125.774 118.579H124.702L123.102 113.715C122.91 113.139 122.782 112.659 122.686 112.195C122.574 112.611 122.446 113.075 122.238 113.715L120.638 118.579H119.534ZM131.657 118.771C130.009 118.771 129.033 117.843 129.033 116.483C129.033 115.059 130.121 114.163 131.929 114.019L134.489 113.811V113.555C134.489 112.035 133.577 111.555 132.441 111.555C131.097 111.555 130.297 112.163 130.297 113.203H129.289C129.289 111.635 130.569 110.627 132.473 110.627C134.265 110.627 135.577 111.523 135.577 113.571V118.579H134.649L134.505 117.219C134.025 118.195 132.969 118.771 131.657 118.771ZM131.913 117.875C133.545 117.875 134.489 116.739 134.489 115.059V114.643L132.201 114.819C130.745 114.947 130.153 115.587 130.153 116.451C130.153 117.395 130.857 117.875 131.913 117.875ZM136.837 121.955V121.043H137.685C138.357 121.043 139.029 120.995 139.413 119.955L139.749 119.043L136.613 110.835H137.781L140.277 117.587L142.725 110.835H143.861L140.309 120.355C139.861 121.571 139.109 122.067 138.005 122.067C137.541 122.067 137.189 122.035 136.837 121.955ZM150.549 118.579H149.59V106.915H150.694V112.339C151.238 111.203 152.294 110.627 153.606 110.627C155.862 110.627 157.174 112.387 157.174 114.723C157.174 117.043 155.83 118.771 153.574 118.771C152.278 118.771 151.206 118.195 150.662 116.995L150.549 118.579ZM150.71 114.691C150.71 116.483 151.702 117.763 153.398 117.763C155.078 117.763 156.054 116.483 156.054 114.691C156.054 112.915 155.078 111.619 153.398 111.619C151.702 111.619 150.71 112.915 150.71 114.691ZM157.899 121.955V121.043H158.747C159.419 121.043 160.091 120.995 160.475 119.955L160.811 119.043L157.675 110.835H158.843L161.339 117.587L163.787 110.835H164.923L161.371 120.355C160.923 121.571 160.171 122.067 159.067 122.067C158.603 122.067 158.251 122.035 157.899 121.955ZM172.428 118.579H171.34V111.763H169.788V110.835H171.34V108.387H172.428V110.835H173.98V111.763H172.428V118.579ZM176.522 118.563H175.418V106.915H176.522V112.179C177.018 111.251 177.962 110.627 179.258 110.627C181.29 110.627 182.202 111.891 182.202 113.843V118.579H181.098V114.083C181.098 112.275 180.25 111.635 179.05 111.635C177.386 111.635 176.522 112.867 176.522 114.355V118.563ZM187.65 118.771C185.378 118.771 183.858 117.139 183.858 114.707C183.858 112.291 185.362 110.627 187.57 110.627C189.666 110.627 191.09 112.115 191.09 114.307V114.851H184.93C185.01 116.739 186.002 117.827 187.666 117.827C188.93 117.827 189.746 117.283 190.034 116.259H191.09C190.674 117.891 189.474 118.771 187.65 118.771ZM187.57 111.571C186.114 111.571 185.154 112.531 184.962 114.051H189.986C189.986 112.563 189.026 111.571 187.57 111.571ZM196.749 114.675C196.749 112.339 198.093 110.627 200.333 110.627C201.629 110.627 202.701 111.203 203.261 112.403L203.373 110.835H204.333V121.955H203.229V117.091C202.685 118.211 201.645 118.771 200.333 118.771C198.045 118.771 196.749 117.011 196.749 114.675ZM197.869 114.707C197.869 116.483 198.845 117.779 200.525 117.779C202.221 117.779 203.213 116.483 203.213 114.707C203.213 112.915 202.221 111.635 200.525 111.635C198.845 111.635 197.869 112.915 197.869 114.707ZM212.076 110.835H213.18V118.579H212.22L212.076 117.267C211.644 118.163 210.572 118.771 209.356 118.771C207.532 118.771 206.54 117.523 206.54 115.635V110.819H207.66V115.283C207.66 117.123 208.476 117.779 209.708 117.779C211.196 117.779 212.076 116.787 212.076 114.947V110.835ZM217.704 118.771C216.056 118.771 215.08 117.843 215.08 116.483C215.08 115.059 216.168 114.163 217.976 114.019L220.536 113.811V113.555C220.536 112.035 219.624 111.555 218.488 111.555C217.144 111.555 216.344 112.163 216.344 113.203H215.336C215.336 111.635 216.616 110.627 218.52 110.627C220.312 110.627 221.624 111.523 221.624 113.571V118.579H220.696L220.552 117.219C220.072 118.195 219.016 118.771 217.704 118.771ZM217.96 117.875C219.592 117.875 220.536 116.739 220.536 115.059V114.643L218.248 114.819C216.792 114.947 216.2 115.587 216.2 116.451C216.2 117.395 216.904 117.875 217.96 117.875ZM224.992 118.579H223.888V106.915H224.992V118.579ZM227.884 108.707C227.436 108.707 227.068 108.339 227.068 107.891C227.068 107.443 227.436 107.059 227.884 107.059C228.332 107.059 228.716 107.443 228.716 107.891C228.716 108.339 228.332 108.707 227.884 108.707ZM227.34 118.579V110.835H228.444V118.579H227.34ZM232.522 118.579H231.434V111.763H229.882V110.835H231.434V108.387H232.522V110.835H234.074V111.763H232.522V118.579ZM234.727 121.955V121.043H235.575C236.247 121.043 236.919 120.995 237.303 119.955L237.639 119.043L234.503 110.835H235.671L238.167 117.587L240.615 110.835H241.751L238.199 120.355C237.751 121.571 236.999 122.067 235.895 122.067C235.431 122.067 235.079 122.035 234.727 121.955ZM249.704 118.771C248.056 118.771 247.08 117.843 247.08 116.483C247.08 115.059 248.168 114.163 249.976 114.019L252.536 113.811V113.555C252.536 112.035 251.624 111.555 250.488 111.555C249.144 111.555 248.344 112.163 248.344 113.203H247.336C247.336 111.635 248.616 110.627 250.52 110.627C252.312 110.627 253.624 111.523 253.624 113.571V118.579H252.696L252.552 117.219C252.072 118.195 251.016 118.771 249.704 118.771ZM249.96 117.875C251.592 117.875 252.536 116.739 252.536 115.059V114.643L250.248 114.819C248.792 114.947 248.2 115.587 248.2 116.451C248.2 117.395 248.904 117.875 249.96 117.875ZM256.944 118.579H255.84V110.835H256.799L256.96 112.179C257.472 111.187 258.496 110.627 259.616 110.627C261.744 110.627 262.624 111.891 262.624 113.843V118.579H261.52V114.083C261.52 112.275 260.704 111.635 259.424 111.635C257.84 111.635 256.944 112.787 256.944 114.531V118.579ZM267.864 118.771C265.608 118.771 264.28 117.043 264.28 114.723C264.28 112.387 265.608 110.627 267.912 110.627C269.192 110.627 270.216 111.187 270.76 112.307V106.915H271.864V118.579H270.904L270.792 116.995C270.248 118.195 269.16 118.771 267.864 118.771ZM268.056 117.763C269.752 117.763 270.744 116.483 270.744 114.691C270.744 112.915 269.752 111.619 268.056 111.619C266.376 111.619 265.4 112.915 265.4 114.691C265.4 116.483 266.376 117.763 268.056 117.763ZM277.949 116.403H279.005C279.005 117.299 279.677 117.859 280.765 117.859C281.965 117.859 282.669 117.347 282.669 116.515C282.669 115.875 282.349 115.507 281.437 115.283L280.109 114.947C278.765 114.611 278.109 113.907 278.109 112.851C278.109 111.491 279.245 110.627 280.909 110.627C282.541 110.627 283.597 111.523 283.645 112.963H282.573C282.541 112.067 281.917 111.539 280.877 111.539C279.789 111.539 279.181 112.003 279.181 112.835C279.181 113.427 279.597 113.843 280.445 114.051L281.773 114.387C283.117 114.723 283.725 115.347 283.725 116.467C283.725 117.859 282.541 118.771 280.781 118.771C279.037 118.771 277.949 117.843 277.949 116.403ZM287.319 118.579H286.231V111.763H284.679V110.835H286.231V108.387H287.319V110.835H288.871V111.763H287.319V118.579ZM289.524 121.955V121.043H290.372C291.044 121.043 291.716 120.995 292.1 119.955L292.436 119.043L289.3 110.835H290.468L292.964 117.587L295.412 110.835H296.548L292.996 120.355C292.548 121.571 291.796 122.067 290.692 122.067C290.228 122.067 289.876 122.035 289.524 121.955ZM298.992 118.579H297.888V106.915H298.992V118.579ZM304.588 118.771C302.316 118.771 300.796 117.139 300.796 114.707C300.796 112.291 302.299 110.627 304.508 110.627C306.604 110.627 308.028 112.115 308.028 114.307V114.851H301.868C301.948 116.739 302.94 117.827 304.604 117.827C305.868 117.827 306.684 117.283 306.972 116.259H308.028C307.612 117.891 306.412 118.771 304.588 118.771ZM304.508 111.571C303.052 111.571 302.092 112.531 301.9 114.051H306.924C306.924 112.563 305.964 111.571 304.508 111.571ZM313.686 114.707C313.686 112.339 315.35 110.627 317.622 110.627C319.894 110.627 321.558 112.339 321.558 114.707C321.558 117.059 319.894 118.771 317.622 118.771C315.35 118.771 313.686 117.059 313.686 114.707ZM314.806 114.691C314.806 116.515 315.958 117.779 317.622 117.779C319.27 117.779 320.438 116.515 320.438 114.691C320.438 112.899 319.27 111.619 317.622 111.619C315.958 111.619 314.806 112.899 314.806 114.691ZM322.397 110.835H323.581V109.331C323.581 107.587 324.541 106.915 325.725 106.915C325.997 106.915 326.317 106.931 326.573 106.979V107.923H325.917C324.941 107.923 324.685 108.419 324.685 109.331V110.835H326.509V111.763H324.685V118.579H323.581V111.763H322.397V110.835ZM334.225 118.579H333.137V111.763H331.585V110.835H333.137V108.387H334.225V110.835H335.777V111.763H334.225V118.579ZM338.319 118.563H337.215V106.915H338.319V112.179C338.815 111.251 339.759 110.627 341.055 110.627C343.087 110.627 343.999 111.891 343.999 113.843V118.579H342.895V114.083C342.895 112.275 342.047 111.635 340.847 111.635C339.183 111.635 338.319 112.867 338.319 114.355V118.563ZM349.447 118.771C347.175 118.771 345.655 117.139 345.655 114.707C345.655 112.291 347.159 110.627 349.367 110.627C351.463 110.627 352.887 112.115 352.887 114.307V114.851H346.727C346.807 116.739 347.799 117.827 349.463 117.827C350.727 117.827 351.543 117.283 351.831 116.259H352.887C352.471 117.891 351.271 118.771 349.447 118.771ZM349.367 111.571C347.911 111.571 346.951 112.531 346.759 114.051H351.783C351.783 112.563 350.823 111.571 349.367 111.571ZM32.608 136.723C32.608 134.291 34.096 132.627 36.352 132.627C38.144 132.627 39.456 133.667 39.76 135.267H38.656C38.368 134.195 37.44 133.603 36.368 133.603C34.8 133.603 33.696 134.803 33.696 136.707C33.696 138.547 34.72 139.779 36.288 139.779C37.44 139.779 38.368 139.139 38.672 138.147H39.792C39.424 139.731 38.048 140.771 36.288 140.771C34.096 140.771 32.608 139.155 32.608 136.723ZM42.6165 140.579H41.5125V128.915H42.6165V140.579ZM44.4205 136.707C44.4205 134.339 46.0845 132.627 48.3565 132.627C50.6285 132.627 52.2925 134.339 52.2925 136.707C52.2925 139.059 50.6285 140.771 48.3565 140.771C46.0845 140.771 44.4205 139.059 44.4205 136.707ZM45.5405 136.691C45.5405 138.515 46.6925 139.779 48.3565 139.779C50.0045 139.779 51.1725 138.515 51.1725 136.691C51.1725 134.899 50.0045 133.619 48.3565 133.619C46.6925 133.619 45.5405 134.899 45.5405 136.691ZM55.7561 140.579H54.6681V133.763H53.1161V132.835H54.6681V130.387H55.7561V132.835H57.3081V133.763H55.7561V140.579ZM59.8498 140.563H58.7458V128.915H59.8498V134.179C60.3458 133.251 61.2898 132.627 62.5858 132.627C64.6178 132.627 65.5298 133.891 65.5298 135.843V140.579H64.4258V136.083C64.4258 134.275 63.5778 133.635 62.3778 133.635C60.7138 133.635 59.8498 134.867 59.8498 136.355V140.563ZM70.9781 140.771C68.7061 140.771 67.1861 139.139 67.1861 136.707C67.1861 134.291 68.6901 132.627 70.8981 132.627C72.9941 132.627 74.4181 134.115 74.4181 136.307V136.851H68.2581C68.3381 138.739 69.3301 139.827 70.9941 139.827C72.2581 139.827 73.0741 139.283 73.3621 138.259H74.4181C74.0021 139.891 72.8021 140.771 70.9781 140.771ZM70.8981 133.571C69.4421 133.571 68.4821 134.531 68.2901 136.051H73.3141C73.3141 134.563 72.3541 133.571 70.8981 133.571ZM75.5273 138.403H76.5833C76.5833 139.299 77.2553 139.859 78.3433 139.859C79.5433 139.859 80.2473 139.347 80.2473 138.515C80.2473 137.875 79.9273 137.507 79.0153 137.283L77.6873 136.947C76.3433 136.611 75.6873 135.907 75.6873 134.851C75.6873 133.491 76.8233 132.627 78.4873 132.627C80.1193 132.627 81.1753 133.523 81.2233 134.963H80.1513C80.1193 134.067 79.4953 133.539 78.4553 133.539C77.3673 133.539 76.7593 134.003 76.7593 134.835C76.7593 135.427 77.1753 135.843 78.0233 136.051L79.3513 136.387C80.6953 136.723 81.3033 137.347 81.3033 138.467C81.3033 139.859 80.1193 140.771 78.3593 140.771C76.6153 140.771 75.5273 139.843 75.5273 138.403ZM88.9503 129.123V140.579H87.7983V129.123H88.9503ZM99.9813 132.739V133.731H99.3733C97.9493 133.731 97.0373 134.691 97.0373 136.163V140.579H95.9333V132.835H96.9733L97.0533 134.035C97.3573 133.203 98.1733 132.659 99.2613 132.659C99.5013 132.659 99.7093 132.675 99.9813 132.739ZM104.4 140.771C102.128 140.771 100.608 139.139 100.608 136.707C100.608 134.291 102.112 132.627 104.32 132.627C106.416 132.627 107.84 134.115 107.84 136.307V136.851H101.68C101.76 138.739 102.752 139.827 104.416 139.827C105.68 139.827 106.496 139.283 106.784 138.259H107.84C107.424 139.891 106.224 140.771 104.4 140.771ZM104.32 133.571C102.864 133.571 101.904 134.531 101.712 136.051H106.736C106.736 134.563 105.776 133.571 104.32 133.571ZM109.061 136.723C109.061 134.291 110.549 132.627 112.805 132.627C114.597 132.627 115.909 133.667 116.213 135.267H115.109C114.821 134.195 113.893 133.603 112.821 133.603C111.253 133.603 110.149 134.803 110.149 136.707C110.149 138.547 111.173 139.779 112.741 139.779C113.893 139.779 114.821 139.139 115.125 138.147H116.245C115.877 139.731 114.501 140.771 112.741 140.771C110.549 140.771 109.061 139.155 109.061 136.723ZM121.166 140.771C118.894 140.771 117.374 139.139 117.374 136.707C117.374 134.291 118.878 132.627 121.086 132.627C123.182 132.627 124.606 134.115 124.606 136.307V136.851H118.446C118.526 138.739 119.518 139.827 121.182 139.827C122.446 139.827 123.262 139.283 123.55 138.259H124.606C124.19 139.891 122.99 140.771 121.166 140.771ZM121.086 133.571C119.63 133.571 118.67 134.531 118.478 136.051H123.502C123.502 134.563 122.542 133.571 121.086 133.571ZM126.915 130.707C126.467 130.707 126.099 130.339 126.099 129.891C126.099 129.443 126.467 129.059 126.915 129.059C127.363 129.059 127.747 129.443 127.747 129.891C127.747 130.339 127.363 130.707 126.915 130.707ZM126.371 140.579V132.835H127.475V140.579H126.371ZM131.937 140.579L128.769 132.835H129.953L131.953 137.827C132.161 138.387 132.369 138.915 132.513 139.427C132.657 138.899 132.865 138.387 133.089 137.827L135.121 132.835H136.257L133.041 140.579H131.937ZM140.463 140.771C138.191 140.771 136.671 139.139 136.671 136.707C136.671 134.291 138.174 132.627 140.383 132.627C142.479 132.627 143.903 134.115 143.903 136.307V136.851H137.743C137.823 138.739 138.815 139.827 140.479 139.827C141.743 139.827 142.559 139.283 142.847 138.259H143.903C143.487 139.891 142.287 140.771 140.463 140.771ZM140.383 133.571C138.927 133.571 137.967 134.531 137.775 136.051H142.799C142.799 134.563 141.839 133.571 140.383 133.571ZM148.708 140.771C146.452 140.771 145.124 139.043 145.124 136.723C145.124 134.387 146.452 132.627 148.756 132.627C150.036 132.627 151.06 133.187 151.604 134.307V128.915H152.708V140.579H151.748L151.636 138.995C151.092 140.195 150.004 140.771 148.708 140.771ZM148.9 139.763C150.596 139.763 151.588 138.483 151.588 136.691C151.588 134.915 150.596 133.619 148.9 133.619C147.22 133.619 146.244 134.915 146.244 136.691C146.244 138.483 147.22 139.763 148.9 139.763ZM158.585 132.835H159.769V131.331C159.769 129.587 160.729 128.915 161.913 128.915C162.185 128.915 162.505 128.931 162.761 128.979V129.923H162.105C161.129 129.923 160.873 130.419 160.873 131.331V132.835H162.697V133.763H160.873V140.579H159.769V133.763H158.585V132.835ZM168.247 132.739V133.731H167.639C166.215 133.731 165.303 134.691 165.303 136.163V140.579H164.199V132.835H165.239L165.319 134.035C165.623 133.203 166.439 132.659 167.527 132.659C167.767 132.659 167.975 132.675 168.247 132.739ZM168.874 136.707C168.874 134.339 170.538 132.627 172.81 132.627C175.082 132.627 176.746 134.339 176.746 136.707C176.746 139.059 175.082 140.771 172.81 140.771C170.538 140.771 168.874 139.059 168.874 136.707ZM169.994 136.691C169.994 138.515 171.146 139.779 172.81 139.779C174.458 139.779 175.626 138.515 175.626 136.691C175.626 134.899 174.458 133.619 172.81 133.619C171.146 133.619 169.994 134.899 169.994 136.691ZM179.615 140.579H178.511V132.835H179.471L179.599 133.939C179.983 133.123 180.847 132.627 181.935 132.627C183.151 132.627 184.063 133.267 184.431 134.275C184.783 133.267 185.727 132.627 186.975 132.627C188.655 132.627 189.759 133.715 189.759 135.507V140.579H188.687V135.731C188.687 134.403 187.951 133.619 186.767 133.619C185.471 133.619 184.703 134.595 184.703 135.795V140.579H183.615V135.715C183.615 134.403 182.863 133.635 181.695 133.635C180.399 133.635 179.615 134.595 179.615 135.779V140.579ZM195.97 132.099C195.97 130.179 197.506 128.915 199.81 128.915C201.874 128.915 203.234 130.067 203.41 131.987H202.242C202.114 130.691 201.234 129.955 199.794 129.955C198.178 129.955 197.122 130.787 197.122 132.083C197.122 133.091 197.714 133.731 198.914 134.035L200.882 134.515C202.674 134.947 203.602 135.971 203.602 137.523C203.602 139.507 202.066 140.771 199.698 140.771C197.474 140.771 195.97 139.603 195.826 137.731H197.01C197.074 138.931 198.13 139.715 199.698 139.715C201.378 139.715 202.45 138.899 202.45 137.587C202.45 136.563 201.874 135.891 200.642 135.603L198.706 135.123C196.914 134.691 195.97 133.667 195.97 132.099ZM206.537 140.563H205.433V128.915H206.537V134.179C207.033 133.251 207.977 132.627 209.273 132.627C211.305 132.627 212.217 133.891 212.217 135.843V140.579H211.113V136.083C211.113 134.275 210.265 133.635 209.065 133.635C207.401 133.635 206.537 134.867 206.537 136.355V140.563ZM213.874 136.707C213.874 134.339 215.538 132.627 217.81 132.627C220.082 132.627 221.746 134.339 221.746 136.707C221.746 139.059 220.082 140.771 217.81 140.771C215.538 140.771 213.874 139.059 213.874 136.707ZM214.994 136.691C214.994 138.515 216.146 139.779 217.81 139.779C219.458 139.779 220.626 138.515 220.626 136.691C220.626 134.899 219.458 133.619 217.81 133.619C216.146 133.619 214.994 134.899 214.994 136.691ZM223.511 143.955V132.835H224.471L224.583 134.403C225.127 133.203 226.215 132.627 227.511 132.627C229.751 132.627 231.095 134.339 231.095 136.675C231.095 139.011 229.799 140.771 227.511 140.771C226.199 140.771 225.159 140.211 224.615 139.091V143.955H223.511ZM224.631 136.707C224.631 138.483 225.623 139.779 227.319 139.779C228.999 139.779 229.975 138.483 229.975 136.707C229.975 134.915 228.999 133.635 227.319 133.635C225.623 133.635 224.631 134.915 224.631 136.707ZM233.315 140.755C232.771 140.755 232.307 140.307 232.307 139.779C232.307 139.235 232.771 138.771 233.315 138.771C233.859 138.771 234.323 139.235 234.323 139.779C234.323 140.307 233.859 140.755 233.315 140.755ZM235.53 136.723C235.53 134.291 237.018 132.627 239.274 132.627C241.066 132.627 242.378 133.667 242.682 135.267H241.578C241.29 134.195 240.362 133.603 239.29 133.603C237.722 133.603 236.618 134.803 236.618 136.707C236.618 138.547 237.642 139.779 239.21 139.779C240.362 139.779 241.29 139.139 241.594 138.147H242.714C242.346 139.731 240.97 140.771 239.21 140.771C237.018 140.771 235.53 139.155 235.53 136.723ZM243.842 136.707C243.842 134.339 245.506 132.627 247.778 132.627C250.05 132.627 251.714 134.339 251.714 136.707C251.714 139.059 250.05 140.771 247.778 140.771C245.506 140.771 243.842 139.059 243.842 136.707ZM244.962 136.691C244.962 138.515 246.114 139.779 247.778 139.779C249.426 139.779 250.594 138.515 250.594 136.691C250.594 134.899 249.426 133.619 247.778 133.619C246.114 133.619 244.962 134.899 244.962 136.691ZM253.94 140.755C253.396 140.755 252.932 140.307 252.932 139.779C252.932 139.235 253.396 138.771 253.94 138.771C254.484 138.771 254.948 139.235 254.948 139.779C254.948 140.307 254.484 140.755 253.94 140.755ZM267.701 135.539H263.013V140.579H261.861V129.123H268.613V130.179H263.013V134.499H267.701V135.539ZM273.872 132.739V133.731H273.264C271.84 133.731 270.928 134.691 270.928 136.163V140.579H269.824V132.835H270.864L270.944 134.035C271.248 133.203 272.064 132.659 273.152 132.659C273.392 132.659 273.6 132.675 273.872 132.739ZM274.499 136.707C274.499 134.339 276.163 132.627 278.435 132.627C280.707 132.627 282.371 134.339 282.371 136.707C282.371 139.059 280.707 140.771 278.435 140.771C276.163 140.771 274.499 139.059 274.499 136.707ZM275.619 136.691C275.619 138.515 276.771 139.779 278.435 139.779C280.083 139.779 281.251 138.515 281.251 136.691C281.251 134.899 280.083 133.619 278.435 133.619C276.771 133.619 275.619 134.899 275.619 136.691ZM285.24 140.579H284.136V132.835H285.096L285.224 133.939C285.608 133.123 286.472 132.627 287.56 132.627C288.776 132.627 289.688 133.267 290.056 134.275C290.408 133.267 291.352 132.627 292.6 132.627C294.28 132.627 295.384 133.715 295.384 135.507V140.579H294.312V135.731C294.312 134.403 293.576 133.619 292.392 133.619C291.096 133.619 290.328 134.595 290.328 135.795V140.579H289.24V135.715C289.24 134.403 288.488 133.635 287.32 133.635C286.024 133.635 285.24 134.595 285.24 135.779V140.579ZM301.499 136.723C301.499 134.291 302.987 132.627 305.243 132.627C307.035 132.627 308.347 133.667 308.651 135.267H307.547C307.259 134.195 306.331 133.603 305.259 133.603C303.691 133.603 302.587 134.803 302.587 136.707C302.587 138.547 303.611 139.779 305.179 139.779C306.331 139.779 307.259 139.139 307.563 138.147H308.683C308.315 139.731 306.939 140.771 305.179 140.771C302.987 140.771 301.499 139.155 301.499 136.723ZM312.579 140.771C310.931 140.771 309.955 139.843 309.955 138.483C309.955 137.059 311.043 136.163 312.851 136.019L315.411 135.811V135.555C315.411 134.035 314.499 133.555 313.363 133.555C312.019 133.555 311.219 134.163 311.219 135.203H310.211C310.211 133.635 311.491 132.627 313.395 132.627C315.187 132.627 316.499 133.523 316.499 135.571V140.579H315.571L315.427 139.219C314.947 140.195 313.891 140.771 312.579 140.771ZM312.835 139.875C314.467 139.875 315.411 138.739 315.411 137.059V136.643L313.123 136.819C311.667 136.947 311.075 137.587 311.075 138.451C311.075 139.395 311.779 139.875 312.835 139.875ZM318.059 138.403H319.115C319.115 139.299 319.787 139.859 320.875 139.859C322.075 139.859 322.779 139.347 322.779 138.515C322.779 137.875 322.459 137.507 321.547 137.283L320.219 136.947C318.875 136.611 318.219 135.907 318.219 134.851C318.219 133.491 319.355 132.627 321.019 132.627C322.651 132.627 323.707 133.523 323.755 134.963H322.683C322.651 134.067 322.027 133.539 320.987 133.539C319.899 133.539 319.291 134.003 319.291 134.835C319.291 135.427 319.707 135.843 320.555 136.051L321.883 136.387C323.227 136.723 323.835 137.347 323.835 138.467C323.835 139.859 322.651 140.771 320.891 140.771C319.147 140.771 318.059 139.843 318.059 138.403ZM331.092 132.835H332.196V140.579H331.236L331.092 139.267C330.66 140.163 329.588 140.771 328.372 140.771C326.548 140.771 325.556 139.523 325.556 137.635V132.819H326.676V137.283C326.676 139.123 327.492 139.779 328.724 139.779C330.212 139.779 331.092 138.787 331.092 136.947V132.835ZM336.72 140.771C335.072 140.771 334.096 139.843 334.096 138.483C334.096 137.059 335.184 136.163 336.992 136.019L339.552 135.811V135.555C339.552 134.035 338.64 133.555 337.504 133.555C336.16 133.555 335.36 134.163 335.36 135.203H334.352C334.352 133.635 335.632 132.627 337.536 132.627C339.328 132.627 340.64 133.523 340.64 135.571V140.579H339.712L339.568 139.219C339.088 140.195 338.032 140.771 336.72 140.771ZM336.976 139.875C338.608 139.875 339.552 138.739 339.552 137.059V136.643L337.264 136.819C335.808 136.947 335.216 137.587 335.216 138.451C335.216 139.395 335.92 139.875 336.976 139.875ZM344.007 140.579H342.903V128.915H344.007V140.579ZM34.784 162.579L32.224 154.835H33.36L34.88 159.507C35.056 160.019 35.2 160.547 35.36 161.171C35.488 160.547 35.744 159.763 35.824 159.507L37.36 154.835H38.496L40.016 159.507C40.16 159.923 40.352 160.595 40.496 161.171C40.656 160.531 40.688 160.339 40.96 159.507L42.496 154.835H43.648L41.024 162.579H39.952L38.352 157.715C38.16 157.139 38.032 156.659 37.936 156.195C37.824 156.611 37.696 157.075 37.488 157.715L35.888 162.579H34.784ZM47.9313 162.771C45.6593 162.771 44.1393 161.139 44.1393 158.707C44.1393 156.291 45.6432 154.627 47.8513 154.627C49.9473 154.627 51.3713 156.115 51.3713 158.307V158.851H45.2113C45.2913 160.739 46.2833 161.827 47.9473 161.827C49.2113 161.827 50.0273 161.283 50.3153 160.259H51.3713C50.9553 161.891 49.7553 162.771 47.9313 162.771ZM47.8513 155.571C46.3953 155.571 45.4353 156.531 45.2433 158.051H50.2673C50.2673 156.563 49.3073 155.571 47.8513 155.571ZM55.2823 162.771C53.6343 162.771 52.6583 161.843 52.6583 160.483C52.6583 159.059 53.7463 158.163 55.5543 158.019L58.1143 157.811V157.555C58.1143 156.035 57.2023 155.555 56.0663 155.555C54.7223 155.555 53.9223 156.163 53.9223 157.203H52.9143C52.9143 155.635 54.1943 154.627 56.0983 154.627C57.8903 154.627 59.2023 155.523 59.2023 157.571V162.579H58.2743L58.1303 161.219C57.6503 162.195 56.5943 162.771 55.2823 162.771ZM55.5383 161.875C57.1703 161.875 58.1143 160.739 58.1143 159.059V158.643L55.8263 158.819C54.3703 158.947 53.7783 159.587 53.7783 160.451C53.7783 161.395 54.4823 161.875 55.5383 161.875ZM65.4656 154.739V155.731H64.8576C63.4336 155.731 62.5216 156.691 62.5216 158.163V162.579H61.4176V154.835H62.4576L62.5376 156.035C62.8416 155.203 63.6576 154.659 64.7456 154.659C64.9856 154.659 65.1936 154.675 65.4656 154.739ZM73.1468 162.579H72.0588V155.763H70.5068V154.835H72.0588V152.387H73.1468V154.835H74.6988V155.763H73.1468V162.579ZM75.5143 158.707C75.5143 156.339 77.1783 154.627 79.4503 154.627C81.7223 154.627 83.3863 156.339 83.3863 158.707C83.3863 161.059 81.7223 162.771 79.4503 162.771C77.1783 162.771 75.5143 161.059 75.5143 158.707ZM76.6343 158.691C76.6343 160.515 77.7863 161.779 79.4503 161.779C81.0983 161.779 82.2663 160.515 82.2663 158.691C82.2663 156.899 81.0983 155.619 79.4503 155.619C77.7863 155.619 76.6343 156.899 76.6343 158.691ZM92.8375 162.771C90.5655 162.771 89.0455 161.139 89.0455 158.707C89.0455 156.291 90.5495 154.627 92.7575 154.627C94.8535 154.627 96.2775 156.115 96.2775 158.307V158.851H90.1175C90.1975 160.739 91.1895 161.827 92.8535 161.827C94.1175 161.827 94.9335 161.283 95.2215 160.259H96.2775C95.8615 161.891 94.6615 162.771 92.8375 162.771ZM92.7575 155.571C91.3015 155.571 90.3415 156.531 90.1495 158.051H95.1735C95.1735 156.563 94.2135 155.571 92.7575 155.571ZM99.1946 162.579H98.0906V150.915H99.1946V162.579ZM104.791 162.771C102.519 162.771 100.999 161.139 100.999 158.707C100.999 156.291 102.503 154.627 104.711 154.627C106.807 154.627 108.231 156.115 108.231 158.307V158.851H102.071C102.151 160.739 103.143 161.827 104.807 161.827C106.071 161.827 106.887 161.283 107.175 160.259H108.231C107.815 161.891 106.615 162.771 104.791 162.771ZM104.711 155.571C103.255 155.571 102.295 156.531 102.103 158.051H107.127C107.127 156.563 106.167 155.571 104.711 155.571ZM109.468 158.483C109.468 156.371 110.828 154.627 113.1 154.627C114.444 154.627 115.468 155.251 115.964 156.387L116.076 154.835H117.036V162.339C117.036 164.643 115.564 166.147 113.292 166.147C111.308 166.147 109.916 165.027 109.612 163.155H110.716C110.956 164.403 111.916 165.139 113.308 165.139C114.892 165.139 115.948 164.067 115.948 162.451V160.611C115.42 161.699 114.348 162.339 113.02 162.339C110.812 162.339 109.468 160.595 109.468 158.483ZM110.572 158.467C110.572 160.051 111.548 161.347 113.18 161.347C114.86 161.347 115.852 160.131 115.852 158.467C115.852 156.819 114.892 155.603 113.196 155.603C111.532 155.603 110.572 156.899 110.572 158.467ZM121.564 162.771C119.916 162.771 118.94 161.843 118.94 160.483C118.94 159.059 120.028 158.163 121.836 158.019L124.396 157.811V157.555C124.396 156.035 123.484 155.555 122.348 155.555C121.004 155.555 120.204 156.163 120.204 157.203H119.196C119.196 155.635 120.476 154.627 122.38 154.627C124.172 154.627 125.484 155.523 125.484 157.571V162.579H124.556L124.412 161.219C123.932 162.195 122.876 162.771 121.564 162.771ZM121.82 161.875C123.452 161.875 124.396 160.739 124.396 159.059V158.643L122.108 158.819C120.652 158.947 120.06 159.587 120.06 160.451C120.06 161.395 120.764 161.875 121.82 161.875ZM128.803 162.579H127.699V154.835H128.659L128.819 156.179C129.331 155.187 130.355 154.627 131.475 154.627C133.603 154.627 134.483 155.891 134.483 157.843V162.579H133.379V158.083C133.379 156.275 132.563 155.635 131.283 155.635C129.699 155.635 128.803 156.787 128.803 158.531V162.579ZM138.459 162.579H137.371V155.763H135.819V154.835H137.371V152.387H138.459V154.835H140.011V155.763H138.459V162.579ZM148.926 162.771C146.67 162.771 145.342 161.043 145.342 158.723C145.342 156.387 146.67 154.627 148.974 154.627C150.254 154.627 151.278 155.187 151.822 156.307V150.915H152.926V162.579H151.966L151.854 160.995C151.31 162.195 150.222 162.771 148.926 162.771ZM149.118 161.763C150.814 161.763 151.806 160.483 151.806 158.691C151.806 156.915 150.814 155.619 149.118 155.619C147.438 155.619 146.462 156.915 146.462 158.691C146.462 160.483 147.438 161.763 149.118 161.763ZM159.278 154.739V155.731H158.67C157.246 155.731 156.334 156.691 156.334 158.163V162.579H155.23V154.835H156.27L156.35 156.035C156.654 155.203 157.47 154.659 158.558 154.659C158.798 154.659 159.006 154.675 159.278 154.739ZM163.697 162.771C161.425 162.771 159.905 161.139 159.905 158.707C159.905 156.291 161.409 154.627 163.617 154.627C165.713 154.627 167.137 156.115 167.137 158.307V158.851H160.977C161.057 160.739 162.049 161.827 163.713 161.827C164.977 161.827 165.793 161.283 166.081 160.259H167.137C166.721 161.891 165.521 162.771 163.697 162.771ZM163.617 155.571C162.161 155.571 161.201 156.531 161.009 158.051H166.033C166.033 156.563 165.073 155.571 163.617 155.571ZM168.246 160.403H169.302C169.302 161.299 169.974 161.859 171.062 161.859C172.262 161.859 172.966 161.347 172.966 160.515C172.966 159.875 172.646 159.507 171.734 159.283L170.406 158.947C169.062 158.611 168.406 157.907 168.406 156.851C168.406 155.491 169.542 154.627 171.206 154.627C172.838 154.627 173.894 155.523 173.942 156.963H172.87C172.838 156.067 172.214 155.539 171.174 155.539C170.086 155.539 169.478 156.003 169.478 156.835C169.478 157.427 169.894 157.843 170.742 158.051L172.07 158.387C173.414 158.723 174.022 159.347 174.022 160.467C174.022 161.859 172.838 162.771 171.078 162.771C169.334 162.771 168.246 161.843 168.246 160.403ZM175.184 160.403H176.24C176.24 161.299 176.912 161.859 178 161.859C179.2 161.859 179.904 161.347 179.904 160.515C179.904 159.875 179.584 159.507 178.672 159.283L177.344 158.947C176 158.611 175.344 157.907 175.344 156.851C175.344 155.491 176.48 154.627 178.144 154.627C179.776 154.627 180.832 155.523 180.88 156.963H179.808C179.776 156.067 179.152 155.539 178.112 155.539C177.024 155.539 176.416 156.003 176.416 156.835C176.416 157.427 176.832 157.843 177.68 158.051L179.008 158.387C180.352 158.723 180.96 159.347 180.96 160.467C180.96 161.859 179.776 162.771 178.016 162.771C176.272 162.771 175.184 161.843 175.184 160.403ZM186.025 162.771C183.753 162.771 182.233 161.139 182.233 158.707C182.233 156.291 183.737 154.627 185.945 154.627C188.041 154.627 189.465 156.115 189.465 158.307V158.851H183.305C183.385 160.739 184.377 161.827 186.041 161.827C187.305 161.827 188.121 161.283 188.409 160.259H189.465C189.049 161.891 187.849 162.771 186.025 162.771ZM185.945 155.571C184.489 155.571 183.529 156.531 183.337 158.051H188.361C188.361 156.563 187.401 155.571 185.945 155.571ZM190.574 160.403H191.63C191.63 161.299 192.302 161.859 193.39 161.859C194.59 161.859 195.294 161.347 195.294 160.515C195.294 159.875 194.974 159.507 194.062 159.283L192.734 158.947C191.39 158.611 190.734 157.907 190.734 156.851C190.734 155.491 191.87 154.627 193.534 154.627C195.166 154.627 196.222 155.523 196.27 156.963H195.198C195.166 156.067 194.542 155.539 193.502 155.539C192.414 155.539 191.806 156.003 191.806 156.835C191.806 157.427 192.222 157.843 193.07 158.051L194.398 158.387C195.742 158.723 196.35 159.347 196.35 160.467C196.35 161.859 195.166 162.771 193.406 162.771C191.662 162.771 190.574 161.843 190.574 160.403ZM199.995 162.035C199.995 163.027 199.227 163.891 198.235 164.035V163.443C198.811 163.347 199.227 162.931 199.227 162.483C199.131 162.547 199.003 162.595 198.811 162.595C198.363 162.595 197.979 162.275 197.979 161.731C197.979 161.171 198.363 160.771 198.923 160.771C199.499 160.771 199.995 161.235 199.995 162.035ZM209.916 162.771C207.644 162.771 206.124 161.139 206.124 158.707C206.124 156.291 207.628 154.627 209.836 154.627C211.932 154.627 213.356 156.115 213.356 158.307V158.851H207.196C207.276 160.739 208.268 161.827 209.932 161.827C211.196 161.827 212.012 161.283 212.3 160.259H213.356C212.94 161.891 211.74 162.771 209.916 162.771ZM209.836 155.571C208.38 155.571 207.42 156.531 207.228 158.051H212.252C212.252 156.563 211.292 155.571 209.836 155.571ZM217.078 162.579L213.91 154.835H215.094L217.094 159.827C217.302 160.387 217.51 160.915 217.654 161.427C217.798 160.899 218.006 160.387 218.23 159.827L220.262 154.835H221.398L218.182 162.579H217.078ZM225.603 162.771C223.331 162.771 221.811 161.139 221.811 158.707C221.811 156.291 223.315 154.627 225.523 154.627C227.619 154.627 229.043 156.115 229.043 158.307V158.851H222.883C222.963 160.739 223.955 161.827 225.619 161.827C226.883 161.827 227.699 161.283 227.987 160.259H229.043C228.627 161.891 227.427 162.771 225.603 162.771ZM225.523 155.571C224.067 155.571 223.107 156.531 222.915 158.051H227.939C227.939 156.563 226.979 155.571 225.523 155.571ZM234.856 154.739V155.731H234.248C232.824 155.731 231.912 156.691 231.912 158.163V162.579H230.808V154.835H231.848L231.928 156.035C232.232 155.203 233.048 154.659 234.136 154.659C234.376 154.659 234.584 154.675 234.856 154.739ZM235.774 165.955V165.043H236.622C237.294 165.043 237.966 164.995 238.35 163.955L238.686 163.043L235.55 154.835H236.718L239.214 161.587L241.662 154.835H242.798L239.246 164.355C238.798 165.571 238.046 166.067 236.942 166.067C236.478 166.067 236.126 166.035 235.774 165.955ZM248.527 165.955V154.835H249.487L249.599 156.403C250.143 155.203 251.231 154.627 252.527 154.627C254.767 154.627 256.111 156.339 256.111 158.675C256.111 161.011 254.815 162.771 252.527 162.771C251.215 162.771 250.175 162.211 249.631 161.091V165.955H248.527ZM249.647 158.707C249.647 160.483 250.639 161.779 252.335 161.779C254.015 161.779 254.991 160.483 254.991 158.707C254.991 156.915 254.015 155.635 252.335 155.635C250.639 155.635 249.647 156.915 249.647 158.707ZM258.415 152.707C257.967 152.707 257.599 152.339 257.599 151.891C257.599 151.443 257.967 151.059 258.415 151.059C258.863 151.059 259.247 151.443 259.247 151.891C259.247 152.339 258.863 152.707 258.415 152.707ZM257.871 162.579V154.835H258.975V162.579H257.871ZM264.525 162.771C262.253 162.771 260.733 161.139 260.733 158.707C260.733 156.291 262.237 154.627 264.445 154.627C266.541 154.627 267.965 156.115 267.965 158.307V158.851H261.805C261.885 160.739 262.877 161.827 264.541 161.827C265.805 161.827 266.621 161.283 266.909 160.259H267.965C267.549 161.891 266.349 162.771 264.525 162.771ZM264.445 155.571C262.989 155.571 262.029 156.531 261.837 158.051H266.861C266.861 156.563 265.901 155.571 264.445 155.571ZM269.186 158.723C269.186 156.291 270.674 154.627 272.93 154.627C274.722 154.627 276.034 155.667 276.338 157.267H275.234C274.946 156.195 274.018 155.603 272.946 155.603C271.378 155.603 270.274 156.803 270.274 158.707C270.274 160.547 271.298 161.779 272.866 161.779C274.018 161.779 274.946 161.139 275.25 160.147H276.37C276.002 161.731 274.626 162.771 272.866 162.771C270.674 162.771 269.186 161.155 269.186 158.723ZM281.291 162.771C279.019 162.771 277.499 161.139 277.499 158.707C277.499 156.291 279.003 154.627 281.211 154.627C283.307 154.627 284.731 156.115 284.731 158.307V158.851H278.571C278.651 160.739 279.643 161.827 281.307 161.827C282.571 161.827 283.387 161.283 283.675 160.259H284.731C284.315 161.891 283.115 162.771 281.291 162.771ZM281.211 155.571C279.755 155.571 278.795 156.531 278.603 158.051H283.627C283.627 156.563 282.667 155.571 281.211 155.571ZM292.325 151.123V162.579H291.173V151.123H292.325ZM295.799 151.907L295.495 155.091H294.775L294.455 151.907C294.391 151.347 294.791 151.091 295.143 151.091C295.479 151.091 295.863 151.347 295.799 151.907ZM299.843 162.579L296.675 154.835H297.859L299.859 159.827C300.067 160.387 300.275 160.915 300.419 161.427C300.563 160.899 300.771 160.387 300.995 159.827L303.027 154.835H304.163L300.947 162.579H299.843ZM308.369 162.771C306.097 162.771 304.577 161.139 304.577 158.707C304.577 156.291 306.081 154.627 308.289 154.627C310.385 154.627 311.809 156.115 311.809 158.307V158.851H305.649C305.729 160.739 306.721 161.827 308.385 161.827C309.649 161.827 310.465 161.283 310.753 160.259H311.809C311.393 161.891 310.193 162.771 308.369 162.771ZM308.289 155.571C306.833 155.571 305.873 156.531 305.681 158.051H310.705C310.705 156.563 309.745 155.571 308.289 155.571ZM318.971 162.579H318.011V150.915H319.115V156.339C319.659 155.203 320.715 154.627 322.027 154.627C324.283 154.627 325.595 156.387 325.595 158.723C325.595 161.043 324.251 162.771 321.995 162.771C320.699 162.771 319.627 162.195 319.083 160.995L318.971 162.579ZM319.131 158.691C319.131 160.483 320.123 161.763 321.819 161.763C323.499 161.763 324.475 160.483 324.475 158.691C324.475 156.915 323.499 155.619 321.819 155.619C320.123 155.619 319.131 156.915 319.131 158.691ZM326.811 158.707C326.811 156.339 328.475 154.627 330.747 154.627C333.019 154.627 334.683 156.339 334.683 158.707C334.683 161.059 333.019 162.771 330.747 162.771C328.475 162.771 326.811 161.059 326.811 158.707ZM327.931 158.691C327.931 160.515 329.083 161.779 330.747 161.779C332.395 161.779 333.563 160.515 333.563 158.691C333.563 156.899 332.395 155.619 330.747 155.619C329.083 155.619 327.931 156.899 327.931 158.691ZM341.701 154.835H342.805V162.579H341.845L341.701 161.267C341.269 162.163 340.197 162.771 338.981 162.771C337.157 162.771 336.165 161.523 336.165 159.635V154.819H337.285V159.283C337.285 161.123 338.101 161.779 339.333 161.779C340.821 161.779 341.701 160.787 341.701 158.947V154.835ZM344.577 158.483C344.577 156.371 345.937 154.627 348.209 154.627C349.553 154.627 350.577 155.251 351.073 156.387L351.185 154.835H352.145V162.339C352.145 164.643 350.673 166.147 348.401 166.147C346.417 166.147 345.025 165.027 344.721 163.155H345.825C346.065 164.403 347.025 165.139 348.417 165.139C350.001 165.139 351.057 164.067 351.057 162.451V160.611C350.529 161.699 349.457 162.339 348.129 162.339C345.921 162.339 344.577 160.595 344.577 158.483ZM345.681 158.467C345.681 160.051 346.657 161.347 348.289 161.347C349.969 161.347 350.961 160.131 350.961 158.467C350.961 156.819 350.001 155.603 348.305 155.603C346.641 155.603 345.681 156.899 345.681 158.467ZM355.553 162.563H354.449V150.915H355.553V156.179C356.049 155.251 356.993 154.627 358.289 154.627C360.321 154.627 361.233 155.891 361.233 157.843V162.579H360.129V158.083C360.129 156.275 359.281 155.635 358.081 155.635C356.417 155.635 355.553 156.867 355.553 158.355V162.563ZM365.209 162.579H364.121V155.763H362.569V154.835H364.121V152.387H365.209V154.835H366.761V155.763H365.209V162.579ZM34.256 184.563H33.152V172.915H34.256V178.179C34.752 177.251 35.696 176.627 36.992 176.627C39.024 176.627 39.936 177.891 39.936 179.843V184.579H38.832V180.083C38.832 178.275 37.984 177.635 36.784 177.635C35.12 177.635 34.256 178.867 34.256 180.355V184.563ZM44.3604 184.771C42.7124 184.771 41.7364 183.843 41.7364 182.483C41.7364 181.059 42.8244 180.163 44.6324 180.019L47.1924 179.811V179.555C47.1924 178.035 46.2804 177.555 45.1444 177.555C43.8004 177.555 43.0004 178.163 43.0004 179.203H41.9924C41.9924 177.635 43.2724 176.627 45.1764 176.627C46.9684 176.627 48.2804 177.523 48.2804 179.571V184.579H47.3524L47.2084 183.219C46.7284 184.195 45.6724 184.771 44.3604 184.771ZM44.6164 183.875C46.2484 183.875 47.1924 182.739 47.1924 181.059V180.643L44.9044 180.819C43.4484 180.947 42.8564 181.587 42.8564 182.451C42.8564 183.395 43.5604 183.875 44.6164 183.875ZM49.8398 182.403H50.8958C50.8958 183.299 51.5678 183.859 52.6558 183.859C53.8558 183.859 54.5598 183.347 54.5598 182.515C54.5598 181.875 54.2398 181.507 53.3278 181.283L51.9998 180.947C50.6558 180.611 49.9998 179.907 49.9998 178.851C49.9998 177.491 51.1358 176.627 52.7998 176.627C54.4318 176.627 55.4878 177.523 55.5358 178.963H54.4638C54.4318 178.067 53.8078 177.539 52.7678 177.539C51.6798 177.539 51.0718 178.003 51.0718 178.835C51.0718 179.427 51.4878 179.843 52.3358 180.051L53.6638 180.387C55.0078 180.723 55.6158 181.347 55.6158 182.467C55.6158 183.859 54.4318 184.771 52.6718 184.771C50.9278 184.771 49.8398 183.843 49.8398 182.403ZM65.1188 184.771C62.8468 184.771 61.3268 183.139 61.3268 180.707C61.3268 178.291 62.8307 176.627 65.0388 176.627C67.1348 176.627 68.5588 178.115 68.5588 180.307V180.851H62.3988C62.4788 182.739 63.4708 183.827 65.1348 183.827C66.3988 183.827 67.2148 183.283 67.5028 182.259H68.5588C68.1428 183.891 66.9428 184.771 65.1188 184.771ZM65.0388 177.571C63.5828 177.571 62.6228 178.531 62.4308 180.051H67.4548C67.4548 178.563 66.4948 177.571 65.0388 177.571ZM70.3623 184.579H69.0663L71.8343 180.707L69.0823 176.835H70.3783L72.5703 179.939L74.7463 176.835H76.0263L73.2743 180.723L76.0103 184.579H74.6983L72.5223 181.475L70.3623 184.579ZM76.5299 180.723C76.5299 178.291 78.0179 176.627 80.2739 176.627C82.0659 176.627 83.3779 177.667 83.6819 179.267H82.5779C82.2899 178.195 81.3619 177.603 80.2899 177.603C78.7219 177.603 77.6179 178.803 77.6179 180.707C77.6179 182.547 78.6419 183.779 80.2099 183.779C81.3619 183.779 82.2899 183.139 82.5939 182.147H83.7139C83.3459 183.731 81.9699 184.771 80.2099 184.771C78.0179 184.771 76.5299 183.155 76.5299 180.723ZM88.6344 184.771C86.3624 184.771 84.8424 183.139 84.8424 180.707C84.8424 178.291 86.3464 176.627 88.5544 176.627C90.6504 176.627 92.0744 178.115 92.0744 180.307V180.851H85.9144C85.9944 182.739 86.9864 183.827 88.6504 183.827C89.9144 183.827 90.7304 183.283 91.0184 182.259H92.0744C91.6584 183.891 90.4584 184.771 88.6344 184.771ZM88.5544 177.571C87.0984 177.571 86.1384 178.531 85.9464 180.051H90.9704C90.9704 178.563 90.0104 177.571 88.5544 177.571ZM97.0875 184.771C94.8155 184.771 93.2955 183.139 93.2955 180.707C93.2955 178.291 94.7995 176.627 97.0075 176.627C99.1035 176.627 100.528 178.115 100.528 180.307V180.851H94.3675C94.4475 182.739 95.4395 183.827 97.1035 183.827C98.3675 183.827 99.1835 183.283 99.4715 182.259H100.528C100.112 183.891 98.9115 184.771 97.0875 184.771ZM97.0075 177.571C95.5515 177.571 94.5915 178.531 94.3995 180.051H99.4235C99.4235 178.563 98.4635 177.571 97.0075 177.571ZM105.333 184.771C103.077 184.771 101.749 183.043 101.749 180.723C101.749 178.387 103.077 176.627 105.381 176.627C106.661 176.627 107.685 177.187 108.229 178.307V172.915H109.333V184.579H108.373L108.261 182.995C107.717 184.195 106.629 184.771 105.333 184.771ZM105.525 183.763C107.221 183.763 108.213 182.483 108.213 180.691C108.213 178.915 107.221 177.619 105.525 177.619C103.845 177.619 102.869 178.915 102.869 180.691C102.869 182.483 103.845 183.763 105.525 183.763ZM114.884 184.771C112.612 184.771 111.092 183.139 111.092 180.707C111.092 178.291 112.596 176.627 114.804 176.627C116.9 176.627 118.324 178.115 118.324 180.307V180.851H112.164C112.244 182.739 113.236 183.827 114.9 183.827C116.164 183.827 116.98 183.283 117.268 182.259H118.324C117.908 183.891 116.708 184.771 114.884 184.771ZM114.804 177.571C113.348 177.571 112.388 178.531 112.196 180.051H117.22C117.22 178.563 116.26 177.571 114.804 177.571ZM123.13 184.771C120.874 184.771 119.546 183.043 119.546 180.723C119.546 178.387 120.874 176.627 123.178 176.627C124.458 176.627 125.482 177.187 126.026 178.307V172.915H127.13V184.579H126.17L126.058 182.995C125.514 184.195 124.426 184.771 123.13 184.771ZM123.322 183.763C125.018 183.763 126.01 182.483 126.01 180.691C126.01 178.915 125.018 177.619 123.322 177.619C121.642 177.619 120.666 178.915 120.666 180.691C120.666 182.483 121.642 183.763 123.322 183.763ZM134.975 184.579H133.871V176.835H134.831L134.959 177.939C135.343 177.123 136.207 176.627 137.295 176.627C138.511 176.627 139.423 177.267 139.791 178.275C140.143 177.267 141.087 176.627 142.335 176.627C144.015 176.627 145.119 177.715 145.119 179.507V184.579H144.047V179.731C144.047 178.403 143.311 177.619 142.127 177.619C140.831 177.619 140.063 178.595 140.063 179.795V184.579H138.975V179.715C138.975 178.403 138.223 177.635 137.055 177.635C135.759 177.635 134.975 178.595 134.975 179.779V184.579ZM146.399 187.955V187.043H147.247C147.919 187.043 148.591 186.995 148.975 185.955L149.311 185.043L146.175 176.835H147.343L149.839 183.587L152.287 176.835H153.423L149.871 186.355C149.423 187.571 148.671 188.067 147.567 188.067C147.103 188.067 146.751 188.035 146.399 187.955ZM162.4 184.771C160.128 184.771 158.608 183.139 158.608 180.707C158.608 178.291 160.112 176.627 162.32 176.627C164.416 176.627 165.84 178.115 165.84 180.307V180.851H159.68C159.76 182.739 160.752 183.827 162.416 183.827C163.68 183.827 164.496 183.283 164.784 182.259H165.84C165.424 183.891 164.224 184.771 162.4 184.771ZM162.32 177.571C160.864 177.571 159.904 178.531 159.712 180.051H164.736C164.736 178.563 163.776 177.571 162.32 177.571ZM167.644 184.579H166.348L169.116 180.707L166.364 176.835H167.66L169.852 179.939L172.028 176.835H173.308L170.556 180.723L173.292 184.579H171.98L169.804 181.475L167.644 184.579ZM174.621 187.955V176.835H175.581L175.693 178.403C176.237 177.203 177.325 176.627 178.621 176.627C180.861 176.627 182.205 178.339 182.205 180.675C182.205 183.011 180.909 184.771 178.621 184.771C177.309 184.771 176.269 184.211 175.725 183.091V187.955H174.621ZM175.741 180.707C175.741 182.483 176.733 183.779 178.429 183.779C180.109 183.779 181.085 182.483 181.085 180.707C181.085 178.915 180.109 177.635 178.429 177.635C176.733 177.635 175.741 178.915 175.741 180.707ZM187.213 184.771C184.941 184.771 183.421 183.139 183.421 180.707C183.421 178.291 184.924 176.627 187.133 176.627C189.229 176.627 190.653 178.115 190.653 180.307V180.851H184.493C184.573 182.739 185.565 183.827 187.229 183.827C188.493 183.827 189.309 183.283 189.597 182.259H190.653C190.237 183.891 189.037 184.771 187.213 184.771ZM187.133 177.571C185.677 177.571 184.717 178.531 184.525 180.051H189.549C189.549 178.563 188.589 177.571 187.133 177.571ZM191.874 180.723C191.874 178.291 193.362 176.627 195.618 176.627C197.41 176.627 198.722 177.667 199.026 179.267H197.922C197.634 178.195 196.706 177.603 195.634 177.603C194.066 177.603 192.962 178.803 192.962 180.707C192.962 182.547 193.986 183.779 195.554 183.779C196.706 183.779 197.634 183.139 197.938 182.147H199.058C198.69 183.731 197.314 184.771 195.554 184.771C193.362 184.771 191.874 183.155 191.874 180.723ZM202.506 184.579H201.418V177.763H199.866V176.835H201.418V174.387H202.506V176.835H204.058V177.763H202.506V184.579ZM207.595 184.771C205.947 184.771 204.971 183.843 204.971 182.483C204.971 181.059 206.059 180.163 207.867 180.019L210.427 179.811V179.555C210.427 178.035 209.515 177.555 208.379 177.555C207.035 177.555 206.235 178.163 206.235 179.203H205.227C205.227 177.635 206.507 176.627 208.411 176.627C210.203 176.627 211.515 177.523 211.515 179.571V184.579H210.587L210.443 183.219C209.963 184.195 208.907 184.771 207.595 184.771ZM207.851 183.875C209.483 183.875 210.427 182.739 210.427 181.059V180.643L208.139 180.819C206.683 180.947 206.091 181.587 206.091 182.451C206.091 183.395 206.795 183.875 207.851 183.875ZM215.366 184.579H214.278V177.763H212.726V176.835H214.278V174.387H215.366V176.835H216.918V177.763H215.366V184.579ZM218.899 174.707C218.451 174.707 218.083 174.339 218.083 173.891C218.083 173.443 218.451 173.059 218.899 173.059C219.347 173.059 219.731 173.443 219.731 173.891C219.731 174.339 219.347 174.707 218.899 174.707ZM218.355 184.579V176.835H219.459V184.579H218.355ZM221.217 180.707C221.217 178.339 222.881 176.627 225.153 176.627C227.425 176.627 229.089 178.339 229.089 180.707C229.089 183.059 227.425 184.771 225.153 184.771C222.881 184.771 221.217 183.059 221.217 180.707ZM222.337 180.691C222.337 182.515 223.489 183.779 225.153 183.779C226.801 183.779 227.969 182.515 227.969 180.691C227.969 178.899 226.801 177.619 225.153 177.619C223.489 177.619 222.337 178.899 222.337 180.691ZM231.959 184.579H230.855V176.835H231.815L231.975 178.179C232.487 177.187 233.511 176.627 234.631 176.627C236.759 176.627 237.639 177.891 237.639 179.843V184.579H236.535V180.083C236.535 178.275 235.719 177.635 234.439 177.635C232.855 177.635 231.959 178.787 231.959 180.531V184.579ZM239.09 182.403H240.146C240.146 183.299 240.818 183.859 241.906 183.859C243.106 183.859 243.81 183.347 243.81 182.515C243.81 181.875 243.49 181.507 242.578 181.283L241.25 180.947C239.906 180.611 239.25 179.907 239.25 178.851C239.25 177.491 240.386 176.627 242.05 176.627C243.682 176.627 244.738 177.523 244.786 178.963H243.714C243.682 178.067 243.058 177.539 242.018 177.539C240.93 177.539 240.322 178.003 240.322 178.835C240.322 179.427 240.738 179.843 241.586 180.051L242.914 180.387C244.258 180.723 244.866 181.347 244.866 182.467C244.866 183.859 243.682 184.771 241.922 184.771C240.178 184.771 239.09 183.843 239.09 182.403ZM247.502 184.755C246.958 184.755 246.494 184.307 246.494 183.779C246.494 183.235 246.958 182.771 247.502 182.771C248.046 182.771 248.51 183.235 248.51 183.779C248.51 184.307 248.046 184.755 247.502 184.755ZM251.194 174.147C251.194 175.155 250.458 176.003 249.466 176.147V175.555C250.026 175.443 250.442 175.043 250.442 174.595C250.346 174.659 250.202 174.691 250.01 174.691C249.594 174.691 249.226 174.387 249.226 173.843C249.226 173.299 249.61 172.899 250.17 172.899C250.714 172.899 251.194 173.363 251.194 174.147ZM253.786 174.147C253.786 175.155 253.034 176.003 252.058 176.147V175.555C252.618 175.443 253.034 175.043 253.034 174.579C252.938 174.643 252.81 174.691 252.602 174.691C252.186 174.691 251.802 174.387 251.802 173.843C251.802 173.299 252.186 172.899 252.746 172.899C253.306 172.899 253.786 173.363 253.786 174.147Z" fill="black" fill-opacity="0.6"/>
</svg>
