<svg width="400" height="240" viewBox="0 0 400 240" fill="none" xmlns="http://www.w3.org/2000/svg">
<rect x="0.5" y="0.5" width="399" height="238.579" rx="19.5" stroke="black" stroke-opacity="0.1"/>
<path d="M43.2895 28L46.4879 34.8872L54.0264 35.8008L48.4647 40.971L49.9253 48.4229L43.2895 44.731L36.6537 48.4229L38.1143 40.971L32.5525 35.8008L40.091 34.8872L43.2895 28Z" fill="#FFC633"/>
<path d="M72.3552 28L75.5537 34.8872L83.0922 35.8008L77.5304 40.971L78.991 48.4229L72.3552 44.731L65.7194 48.4229L67.18 40.971L61.6183 35.8008L69.1568 34.8872L72.3552 28Z" fill="#FFC633"/>
<path d="M101.421 28L104.619 34.8872L112.158 35.8008L106.596 40.971L108.057 48.4229L101.421 44.731L94.7852 48.4229L96.2458 40.971L90.6841 35.8008L98.2226 34.8872L101.421 28Z" fill="#FFC633"/>
<path d="M130.487 28L133.685 34.8872L141.224 35.8008L135.662 40.971L137.123 48.4229L130.487 44.731L123.851 48.4229L125.312 40.971L119.75 35.8008L127.288 34.8872L130.487 28Z" fill="#FFC633"/>
<path d="M159.553 28L162.751 34.8872L170.289 35.8008L164.728 40.971L166.188 48.4229L159.553 44.731L152.917 48.4229L154.377 40.971L148.816 35.8008L156.354 34.8872L159.553 28Z" fill="#FFC633"/>
<path d="M34.88 85.0791H32.22L37.5 70.4591H40.12L45.4 85.0791H42.7L41.52 81.6991H36.06L34.88 85.0791ZM38.48 74.8191L36.82 79.5391H40.78L39.1 74.8191C38.98 74.4391 38.84 73.9991 38.8 73.6991C38.74 73.9791 38.62 74.4191 38.48 74.8191ZM49.3333 85.0791H46.9133V70.1991H49.3333V85.0791ZM56.3128 85.3391C53.3728 85.3391 51.3128 83.1991 51.3128 80.1391C51.3128 77.0391 53.3328 74.8991 56.2328 74.8991C59.1928 74.8991 61.0728 76.8791 61.0728 79.9591V80.6991L53.6328 80.7191C53.8128 82.4591 54.7328 83.3391 56.3528 83.3391C57.6928 83.3391 58.5728 82.8191 58.8528 81.8791H61.1128C60.6928 84.0391 58.8928 85.3391 56.3128 85.3391ZM56.2528 76.8991C54.8128 76.8991 53.9328 77.6791 53.6928 79.1591H58.6528C58.6528 77.7991 57.7128 76.8991 56.2528 76.8991ZM64.2964 85.0791H61.5164L64.9164 80.2391L61.5164 75.1991H64.3564L66.5364 78.5591L68.6364 75.1991H71.3764L68.0164 80.1991L71.2764 85.0791H68.4764L66.3764 81.8191L64.2964 85.0791ZM81.1409 70.4591V78.1391L87.0609 70.4591H90.0809L85.2409 76.6991L90.1409 85.0791H87.1809L83.5609 78.8591L81.1409 81.9591V85.0791H78.5809V70.4591H81.1409ZM93.3375 85.3191C92.4575 85.3191 91.7175 84.5991 91.7175 83.7391C91.7175 82.8591 92.4575 82.1391 93.3375 82.1391C94.2175 82.1391 94.9575 82.8591 94.9575 83.7391C94.9575 84.5991 94.2175 85.3191 93.3375 85.3191Z" fill="black"/>
<path d="M113 67.8291C111.072 67.8291 109.187 68.4009 107.583 69.4723C105.98 70.5436 104.73 72.0664 103.992 73.8479C103.254 75.6295 103.061 77.5899 103.437 79.4812C103.814 81.3725 104.742 83.1098 106.106 84.4734C107.469 85.837 109.207 86.7656 111.098 87.1418C112.989 87.518 114.95 87.3249 116.731 86.5869C118.513 85.849 120.035 84.5993 121.107 82.9959C122.178 81.3925 122.75 79.5075 122.75 77.5791C122.747 74.9941 121.719 72.5157 119.891 70.6878C118.063 68.8599 115.585 67.8318 113 67.8291ZM117.281 75.8597L112.031 81.1097C111.961 81.1795 111.878 81.2348 111.787 81.2725C111.696 81.3103 111.599 81.3297 111.5 81.3297C111.401 81.3297 111.304 81.3103 111.213 81.2725C111.122 81.2348 111.039 81.1795 110.969 81.1097L108.719 78.8597C108.579 78.719 108.5 78.5281 108.5 78.3291C108.5 78.1301 108.579 77.9392 108.719 77.7985C108.86 77.6577 109.051 77.5787 109.25 77.5787C109.449 77.5787 109.64 77.6577 109.781 77.7985L111.5 79.5188L116.219 74.7985C116.289 74.7288 116.372 74.6735 116.463 74.6358C116.554 74.5981 116.651 74.5787 116.75 74.5787C116.849 74.5787 116.946 74.5981 117.037 74.6358C117.128 74.6735 117.211 74.7288 117.281 74.7985C117.35 74.8682 117.406 74.9509 117.443 75.0419C117.481 75.133 117.5 75.2306 117.5 75.3291C117.5 75.4276 117.481 75.5252 117.443 75.6163C117.406 75.7073 117.35 75.79 117.281 75.8597Z" fill="#01AB31"/>
<path d="M34.08 107.907L33.776 111.091H33.056L32.736 107.907C32.672 107.347 33.072 107.091 33.424 107.091C33.76 107.091 34.144 107.347 34.08 107.907ZM36.336 107.907L36.032 111.091H35.312L34.992 107.907C34.928 107.347 35.328 107.091 35.68 107.091C36.016 107.091 36.4 107.347 36.336 107.907ZM44.3101 113.539H39.6221V118.579H38.4701V107.123H45.2221V108.179H39.6221V112.499H44.3101V113.539ZM47.4616 108.707C47.0136 108.707 46.6456 108.339 46.6456 107.891C46.6456 107.443 47.0136 107.059 47.4616 107.059C47.9096 107.059 48.2936 107.443 48.2936 107.891C48.2936 108.339 47.9096 108.707 47.4616 108.707ZM46.9176 118.579V110.835H48.0216V118.579H46.9176ZM51.4279 118.579H50.3239V110.835H51.2839L51.4439 112.179C51.9559 111.187 52.9799 110.627 54.0999 110.627C56.2279 110.627 57.1079 111.891 57.1079 113.843V118.579H56.0039V114.083C56.0039 112.275 55.1879 111.635 53.9079 111.635C52.3239 111.635 51.4279 112.787 51.4279 114.531V118.579ZM62.3483 118.771C60.0923 118.771 58.7643 117.043 58.7643 114.723C58.7643 112.387 60.0923 110.627 62.3963 110.627C63.6763 110.627 64.7003 111.187 65.2443 112.307V106.915H66.3483V118.579H65.3883L65.2763 116.995C64.7323 118.195 63.6443 118.771 62.3483 118.771ZM62.5403 117.763C64.2363 117.763 65.2283 116.483 65.2283 114.691C65.2283 112.915 64.2363 111.619 62.5403 111.619C60.8603 111.619 59.8843 112.915 59.8843 114.691C59.8843 116.483 60.8603 117.763 62.5403 117.763ZM69.196 108.707C68.748 108.707 68.38 108.339 68.38 107.891C68.38 107.443 68.748 107.059 69.196 107.059C69.644 107.059 70.028 107.443 70.028 107.891C70.028 108.339 69.644 108.707 69.196 108.707ZM68.652 118.579V110.835H69.756V118.579H68.652ZM73.1623 118.579H72.0583V110.835H73.0182L73.1783 112.179C73.6903 111.187 74.7143 110.627 75.8343 110.627C77.9623 110.627 78.8423 111.891 78.8423 113.843V118.579H77.7383V114.083C77.7383 112.275 76.9223 111.635 75.6423 111.635C74.0583 111.635 73.1623 112.787 73.1623 114.531V118.579ZM80.5146 114.483C80.5146 112.371 81.8746 110.627 84.1466 110.627C85.4906 110.627 86.5146 111.251 87.0106 112.387L87.1226 110.835H88.0826V118.339C88.0826 120.643 86.6106 122.147 84.3386 122.147C82.3546 122.147 80.9626 121.027 80.6586 119.155H81.7626C82.0026 120.403 82.9626 121.139 84.3546 121.139C85.9386 121.139 86.9946 120.067 86.9946 118.451V116.611C86.4666 117.699 85.3946 118.339 84.0666 118.339C81.8586 118.339 80.5146 116.595 80.5146 114.483ZM81.6186 114.467C81.6186 116.051 82.5946 117.347 84.2266 117.347C85.9066 117.347 86.8986 116.131 86.8986 114.467C86.8986 112.819 85.9386 111.603 84.2426 111.603C82.5786 111.603 81.6186 112.899 81.6186 114.467ZM94.2799 114.723C94.2799 112.291 95.7679 110.627 98.0239 110.627C99.8159 110.627 101.128 111.667 101.432 113.267H100.328C100.04 112.195 99.1119 111.603 98.0399 111.603C96.4719 111.603 95.3679 112.803 95.3679 114.707C95.3679 116.547 96.3919 117.779 97.9599 117.779C99.1119 117.779 100.04 117.139 100.344 116.147H101.464C101.096 117.731 99.7199 118.771 97.9599 118.771C95.7679 118.771 94.2799 117.155 94.2799 114.723ZM104.288 118.579H103.184V106.915H104.288V118.579ZM106.092 114.707C106.092 112.339 107.756 110.627 110.028 110.627C112.3 110.627 113.964 112.339 113.964 114.707C113.964 117.059 112.3 118.771 110.028 118.771C107.756 118.771 106.092 117.059 106.092 114.707ZM107.212 114.691C107.212 116.515 108.364 117.779 110.028 117.779C111.676 117.779 112.844 116.515 112.844 114.691C112.844 112.899 111.676 111.619 110.028 111.619C108.364 111.619 107.212 112.899 107.212 114.691ZM117.428 118.579H116.34V111.763H114.788V110.835H116.34V108.387H117.428V110.835H118.98V111.763H117.428V118.579ZM121.522 118.563H120.418V106.915H121.522V112.179C122.018 111.251 122.962 110.627 124.258 110.627C126.29 110.627 127.202 111.891 127.202 113.843V118.579H126.098V114.083C126.098 112.275 125.25 111.635 124.05 111.635C122.386 111.635 121.522 112.867 121.522 114.355V118.563ZM132.65 118.771C130.378 118.771 128.858 117.139 128.858 114.707C128.858 112.291 130.362 110.627 132.57 110.627C134.666 110.627 136.09 112.115 136.09 114.307V114.851H129.93C130.01 116.739 131.002 117.827 132.666 117.827C133.93 117.827 134.746 117.283 135.034 116.259H136.09C135.674 117.891 134.474 118.771 132.65 118.771ZM132.57 111.571C131.114 111.571 130.154 112.531 129.962 114.051H134.986C134.986 112.563 134.026 111.571 132.57 111.571ZM137.199 116.403H138.255C138.255 117.299 138.927 117.859 140.015 117.859C141.215 117.859 141.919 117.347 141.919 116.515C141.919 115.875 141.599 115.507 140.687 115.283L139.359 114.947C138.015 114.611 137.359 113.907 137.359 112.851C137.359 111.491 138.495 110.627 140.159 110.627C141.791 110.627 142.847 111.523 142.895 112.963H141.823C141.791 112.067 141.167 111.539 140.127 111.539C139.039 111.539 138.431 112.003 138.431 112.835C138.431 113.427 138.847 113.843 139.695 114.051L141.023 114.387C142.367 114.723 142.975 115.347 142.975 116.467C142.975 117.859 141.791 118.771 140.031 118.771C138.287 118.771 137.199 117.843 137.199 116.403ZM151.006 118.579H149.918V111.763H148.366V110.835H149.918V108.387H151.006V110.835H152.558V111.763H151.006V118.579ZM155.1 118.563H153.996V106.915H155.1V112.179C155.596 111.251 156.54 110.627 157.836 110.627C159.868 110.627 160.78 111.891 160.78 113.843V118.579H159.676V114.083C159.676 112.275 158.828 111.635 157.628 111.635C155.964 111.635 155.1 112.867 155.1 114.355V118.563ZM165.204 118.771C163.556 118.771 162.58 117.843 162.58 116.483C162.58 115.059 163.668 114.163 165.476 114.019L168.036 113.811V113.555C168.036 112.035 167.124 111.555 165.988 111.555C164.644 111.555 163.844 112.163 163.844 113.203H162.836C162.836 111.635 164.116 110.627 166.02 110.627C167.812 110.627 169.124 111.523 169.124 113.571V118.579H168.196L168.052 117.219C167.572 118.195 166.516 118.771 165.204 118.771ZM165.46 117.875C167.092 117.875 168.036 116.739 168.036 115.059V114.643L165.748 114.819C164.292 114.947 163.7 115.587 163.7 116.451C163.7 117.395 164.404 117.875 165.46 117.875ZM172.975 118.579H171.887V111.763H170.335V110.835H171.887V108.387H172.975V110.835H174.527V111.763H172.975V118.579ZM182.626 118.771C180.978 118.771 180.002 117.843 180.002 116.483C180.002 115.059 181.09 114.163 182.898 114.019L185.458 113.811V113.555C185.458 112.035 184.546 111.555 183.41 111.555C182.066 111.555 181.266 112.163 181.266 113.203H180.258C180.258 111.635 181.538 110.627 183.442 110.627C185.234 110.627 186.546 111.523 186.546 113.571V118.579H185.618L185.474 117.219C184.994 118.195 183.938 118.771 182.626 118.771ZM182.882 117.875C184.514 117.875 185.458 116.739 185.458 115.059V114.643L183.17 114.819C181.714 114.947 181.122 115.587 181.122 116.451C181.122 117.395 181.826 117.875 182.882 117.875ZM189.913 118.579H188.809V106.915H189.913V118.579ZM192.805 108.707C192.357 108.707 191.989 108.339 191.989 107.891C191.989 107.443 192.357 107.059 192.805 107.059C193.253 107.059 193.637 107.443 193.637 107.891C193.637 108.339 193.253 108.707 192.805 108.707ZM192.261 118.579V110.835H193.365V118.579H192.261ZM195.14 114.483C195.14 112.371 196.5 110.627 198.772 110.627C200.116 110.627 201.14 111.251 201.636 112.387L201.748 110.835H202.708V118.339C202.708 120.643 201.236 122.147 198.964 122.147C196.98 122.147 195.588 121.027 195.284 119.155H196.388C196.628 120.403 197.588 121.139 198.98 121.139C200.564 121.139 201.62 120.067 201.62 118.451V116.611C201.092 117.699 200.02 118.339 198.692 118.339C196.484 118.339 195.14 116.595 195.14 114.483ZM196.244 114.467C196.244 116.051 197.22 117.347 198.852 117.347C200.532 117.347 201.524 116.131 201.524 114.467C201.524 112.819 200.564 111.603 198.868 111.603C197.204 111.603 196.244 112.899 196.244 114.467ZM206.115 118.579H205.011V110.835H205.971L206.131 112.179C206.643 111.187 207.667 110.627 208.787 110.627C210.915 110.627 211.795 111.891 211.795 113.843V118.579H210.691V114.083C210.691 112.275 209.875 111.635 208.595 111.635C207.011 111.635 206.115 112.787 206.115 114.531V118.579ZM220.065 118.579L217.505 110.835H218.641L220.161 115.507C220.337 116.019 220.481 116.547 220.641 117.171C220.769 116.547 221.025 115.763 221.105 115.507L222.641 110.835H223.777L225.297 115.507C225.441 115.923 225.633 116.595 225.777 117.171C225.937 116.531 225.969 116.339 226.241 115.507L227.777 110.835H228.929L226.305 118.579H225.233L223.633 113.715C223.441 113.139 223.313 112.659 223.217 112.195C223.105 112.611 222.977 113.075 222.769 113.715L221.169 118.579H220.065ZM230.852 108.707C230.404 108.707 230.036 108.339 230.036 107.891C230.036 107.443 230.404 107.059 230.852 107.059C231.3 107.059 231.684 107.443 231.684 107.891C231.684 108.339 231.3 108.707 230.852 108.707ZM230.308 118.579V110.835H231.412V118.579H230.308ZM235.491 118.579H234.403V111.763H232.851V110.835H234.403V108.387H235.491V110.835H237.043V111.763H235.491V118.579ZM239.584 118.563H238.48V106.915H239.584V112.179C240.08 111.251 241.024 110.627 242.32 110.627C244.352 110.627 245.264 111.891 245.264 113.843V118.579H244.16V114.083C244.16 112.275 243.312 111.635 242.112 111.635C240.448 111.635 239.584 112.867 239.584 114.355V118.563ZM253.006 118.579H251.902V110.835H252.862L252.99 111.939C253.374 111.123 254.238 110.627 255.326 110.627C256.542 110.627 257.454 111.267 257.822 112.275C258.174 111.267 259.118 110.627 260.366 110.627C262.046 110.627 263.15 111.715 263.15 113.507V118.579H262.078V113.731C262.078 112.403 261.342 111.619 260.158 111.619C258.862 111.619 258.094 112.595 258.094 113.795V118.579H257.006V113.715C257.006 112.403 256.254 111.635 255.086 111.635C253.79 111.635 253.006 112.595 253.006 113.779V118.579ZM264.431 121.955V121.043H265.279C265.951 121.043 266.623 120.995 267.007 119.955L267.343 119.043L264.207 110.835H265.375L267.871 117.587L270.319 110.835H271.455L267.903 120.355C267.455 121.571 266.703 122.067 265.599 122.067C265.135 122.067 264.783 122.035 264.431 121.955ZM277.183 121.955V110.835H278.143L278.255 112.403C278.799 111.203 279.887 110.627 281.183 110.627C283.423 110.627 284.767 112.339 284.767 114.675C284.767 117.011 283.471 118.771 281.183 118.771C279.871 118.771 278.831 118.211 278.287 117.091V121.955H277.183ZM278.303 114.707C278.303 116.483 279.295 117.779 280.991 117.779C282.671 117.779 283.647 116.483 283.647 114.707C283.647 112.915 282.671 111.635 280.991 111.635C279.295 111.635 278.303 112.915 278.303 114.707ZM289.775 118.771C287.503 118.771 285.983 117.139 285.983 114.707C285.983 112.291 287.487 110.627 289.695 110.627C291.791 110.627 293.215 112.115 293.215 114.307V114.851H287.055C287.135 116.739 288.127 117.827 289.791 117.827C291.055 117.827 291.871 117.283 292.159 116.259H293.215C292.799 117.891 291.599 118.771 289.775 118.771ZM289.695 111.571C288.239 111.571 287.279 112.531 287.087 114.051H292.111C292.111 112.563 291.151 111.571 289.695 111.571ZM299.028 110.739V111.731H298.42C296.996 111.731 296.084 112.691 296.084 114.163V118.579H294.98V110.835H296.02L296.1 112.035C296.404 111.203 297.22 110.659 298.308 110.659C298.548 110.659 298.756 110.675 299.028 110.739ZM299.84 116.403H300.896C300.896 117.299 301.568 117.859 302.656 117.859C303.856 117.859 304.56 117.347 304.56 116.515C304.56 115.875 304.24 115.507 303.328 115.283L302 114.947C300.656 114.611 300 113.907 300 112.851C300 111.491 301.136 110.627 302.8 110.627C304.432 110.627 305.488 111.523 305.536 112.963H304.464C304.432 112.067 303.808 111.539 302.768 111.539C301.68 111.539 301.072 112.003 301.072 112.835C301.072 113.427 301.488 113.843 302.336 114.051L303.664 114.387C305.008 114.723 305.616 115.347 305.616 116.467C305.616 117.859 304.432 118.771 302.672 118.771C300.928 118.771 299.84 117.843 299.84 116.403ZM306.889 114.707C306.889 112.339 308.553 110.627 310.825 110.627C313.097 110.627 314.761 112.339 314.761 114.707C314.761 117.059 313.097 118.771 310.825 118.771C308.553 118.771 306.889 117.059 306.889 114.707ZM308.009 114.691C308.009 116.515 309.161 117.779 310.825 117.779C312.473 117.779 313.641 116.515 313.641 114.691C313.641 112.899 312.473 111.619 310.825 111.619C309.161 111.619 308.009 112.899 308.009 114.691ZM317.631 118.579H316.527V110.835H317.487L317.647 112.179C318.159 111.187 319.183 110.627 320.303 110.627C322.431 110.627 323.311 111.891 323.311 113.843V118.579H322.207V114.083C322.207 112.275 321.391 111.635 320.111 111.635C318.527 111.635 317.631 112.787 317.631 114.531V118.579ZM327.735 118.771C326.087 118.771 325.111 117.843 325.111 116.483C325.111 115.059 326.199 114.163 328.007 114.019L330.567 113.811V113.555C330.567 112.035 329.655 111.555 328.519 111.555C327.175 111.555 326.375 112.163 326.375 113.203H325.367C325.367 111.635 326.647 110.627 328.551 110.627C330.343 110.627 331.655 111.523 331.655 113.571V118.579H330.727L330.583 117.219C330.103 118.195 329.047 118.771 327.735 118.771ZM327.991 117.875C329.623 117.875 330.567 116.739 330.567 115.059V114.643L328.279 114.819C326.823 114.947 326.231 115.587 326.231 116.451C326.231 117.395 326.935 117.875 327.991 117.875ZM335.023 118.579H333.919V106.915H335.023V118.579ZM32.496 138.403H33.552C33.552 139.299 34.224 139.859 35.312 139.859C36.512 139.859 37.216 139.347 37.216 138.515C37.216 137.875 36.896 137.507 35.984 137.283L34.656 136.947C33.312 136.611 32.656 135.907 32.656 134.851C32.656 133.491 33.792 132.627 35.456 132.627C37.088 132.627 38.144 133.523 38.192 134.963H37.12C37.088 134.067 36.464 133.539 35.424 133.539C34.336 133.539 33.728 134.003 33.728 134.835C33.728 135.427 34.144 135.843 34.992 136.051L36.32 136.387C37.664 136.723 38.272 137.347 38.272 138.467C38.272 139.859 37.088 140.771 35.328 140.771C33.584 140.771 32.496 139.843 32.496 138.403ZM41.8655 140.579H40.7775V133.763H39.2255V132.835H40.7775V130.387H41.8655V132.835H43.4175V133.763H41.8655V140.579ZM44.0711 143.955V143.043H44.9191C45.5911 143.043 46.2631 142.995 46.6471 141.955L46.9831 141.043L43.8471 132.835H45.0151L47.5111 139.587L49.9591 132.835H51.0951L47.5431 142.355C47.0951 143.571 46.3431 144.067 45.2391 144.067C44.7751 144.067 44.4231 144.035 44.0711 143.955ZM53.5384 140.579H52.4344V128.915H53.5384V140.579ZM59.1344 140.771C56.8624 140.771 55.3424 139.139 55.3424 136.707C55.3424 134.291 56.8464 132.627 59.0544 132.627C61.1504 132.627 62.5744 134.115 62.5744 136.307V136.851H56.4144C56.4944 138.739 57.4864 139.827 59.1504 139.827C60.4144 139.827 61.2304 139.283 61.5184 138.259H62.5744C62.1584 139.891 60.9584 140.771 59.1344 140.771ZM59.0544 133.571C57.5984 133.571 56.6384 134.531 56.4464 136.051H61.4704C61.4704 134.563 60.5104 133.571 59.0544 133.571ZM74.217 132.835H75.321V140.579H74.361L74.217 139.267C73.785 140.163 72.713 140.771 71.497 140.771C69.673 140.771 68.681 139.523 68.681 137.635V132.819H69.801V137.283C69.801 139.123 70.617 139.779 71.849 139.779C73.337 139.779 74.217 138.787 74.217 136.947V132.835ZM76.8085 138.403H77.8645C77.8645 139.299 78.5365 139.859 79.6245 139.859C80.8245 139.859 81.5285 139.347 81.5285 138.515C81.5285 137.875 81.2085 137.507 80.2965 137.283L78.9685 136.947C77.6245 136.611 76.9685 135.907 76.9685 134.851C76.9685 133.491 78.1045 132.627 79.7685 132.627C81.4005 132.627 82.4565 133.523 82.5045 134.963H81.4325C81.4005 134.067 80.7765 133.539 79.7365 133.539C78.6485 133.539 78.0405 134.003 78.0405 134.835C78.0405 135.427 78.4565 135.843 79.3045 136.051L80.6325 136.387C81.9765 136.723 82.5845 137.347 82.5845 138.467C82.5845 139.859 81.4005 140.771 79.6405 140.771C77.8965 140.771 76.8085 139.843 76.8085 138.403ZM87.65 140.771C85.378 140.771 83.858 139.139 83.858 136.707C83.858 134.291 85.362 132.627 87.57 132.627C89.666 132.627 91.09 134.115 91.09 136.307V136.851H84.93C85.01 138.739 86.002 139.827 87.666 139.827C88.93 139.827 89.746 139.283 90.034 138.259H91.09C90.674 139.891 89.474 140.771 87.65 140.771ZM87.57 133.571C86.114 133.571 85.154 134.531 84.962 136.051H89.986C89.986 134.563 89.026 133.571 87.57 133.571ZM95.8951 140.771C93.6391 140.771 92.3111 139.043 92.3111 136.723C92.3111 134.387 93.6391 132.627 95.9431 132.627C97.2231 132.627 98.2471 133.187 98.7911 134.307V128.915H99.8951V140.579H98.9351L98.8231 138.995C98.2791 140.195 97.1911 140.771 95.8951 140.771ZM96.0871 139.763C97.7831 139.763 98.7751 138.483 98.7751 136.691C98.7751 134.915 97.7831 133.619 96.0871 133.619C94.4071 133.619 93.4311 134.915 93.4311 136.691C93.4311 138.483 94.4071 139.763 96.0871 139.763ZM108.412 140.579H107.324V133.763H105.772V132.835H107.324V130.387H108.412V132.835H109.964V133.763H108.412V140.579ZM110.78 136.707C110.78 134.339 112.444 132.627 114.716 132.627C116.988 132.627 118.652 134.339 118.652 136.707C118.652 139.059 116.988 140.771 114.716 140.771C112.444 140.771 110.78 139.059 110.78 136.707ZM111.9 136.691C111.9 138.515 113.052 139.779 114.716 139.779C116.364 139.779 117.532 138.515 117.532 136.691C117.532 134.899 116.364 133.619 114.716 133.619C113.052 133.619 111.9 134.899 111.9 136.691ZM125.815 140.579H124.855V128.915H125.959V134.339C126.503 133.203 127.559 132.627 128.871 132.627C131.127 132.627 132.439 134.387 132.439 136.723C132.439 139.043 131.095 140.771 128.839 140.771C127.543 140.771 126.471 140.195 125.927 138.995L125.815 140.579ZM125.975 136.691C125.975 138.483 126.967 139.763 128.663 139.763C130.343 139.763 131.319 138.483 131.319 136.691C131.319 134.915 130.343 133.619 128.663 133.619C126.967 133.619 125.975 134.915 125.975 136.691ZM137.447 140.771C135.175 140.771 133.655 139.139 133.655 136.707C133.655 134.291 135.159 132.627 137.367 132.627C139.463 132.627 140.887 134.115 140.887 136.307V136.851H134.727C134.807 138.739 135.799 139.827 137.463 139.827C138.727 139.827 139.543 139.283 139.831 138.259H140.887C140.471 139.891 139.271 140.771 137.447 140.771ZM137.367 133.571C135.911 133.571 134.951 134.531 134.759 136.051H139.783C139.783 134.563 138.823 133.571 137.367 133.571ZM149.314 140.771C147.666 140.771 146.69 139.843 146.69 138.483C146.69 137.059 147.778 136.163 149.586 136.019L152.146 135.811V135.555C152.146 134.035 151.234 133.555 150.098 133.555C148.754 133.555 147.954 134.163 147.954 135.203H146.946C146.946 133.635 148.226 132.627 150.13 132.627C151.922 132.627 153.234 133.523 153.234 135.571V140.579H152.306L152.162 139.219C151.682 140.195 150.626 140.771 149.314 140.771ZM149.57 139.875C151.202 139.875 152.146 138.739 152.146 137.059V136.643L149.858 136.819C148.402 136.947 147.81 137.587 147.81 138.451C147.81 139.395 148.514 139.875 149.57 139.875ZM159.342 136.723C159.342 134.291 160.83 132.627 163.086 132.627C164.878 132.627 166.19 133.667 166.494 135.267H165.39C165.102 134.195 164.174 133.603 163.102 133.603C161.534 133.603 160.43 134.803 160.43 136.707C160.43 138.547 161.454 139.779 163.022 139.779C164.174 139.779 165.102 139.139 165.406 138.147H166.526C166.158 139.731 164.782 140.771 163.022 140.771C160.83 140.771 159.342 139.155 159.342 136.723ZM169.303 140.563H168.199V128.915H169.303V134.179C169.799 133.251 170.743 132.627 172.039 132.627C174.071 132.627 174.983 133.891 174.983 135.843V140.579H173.879V136.083C173.879 134.275 173.031 133.635 171.831 133.635C170.167 133.635 169.303 134.867 169.303 136.355V140.563ZM179.407 140.771C177.759 140.771 176.783 139.843 176.783 138.483C176.783 137.059 177.871 136.163 179.679 136.019L182.239 135.811V135.555C182.239 134.035 181.327 133.555 180.191 133.555C178.847 133.555 178.047 134.163 178.047 135.203H177.039C177.039 133.635 178.319 132.627 180.223 132.627C182.015 132.627 183.327 133.523 183.327 135.571V140.579H182.399L182.255 139.219C181.775 140.195 180.719 140.771 179.407 140.771ZM179.663 139.875C181.295 139.875 182.239 138.739 182.239 137.059V136.643L179.951 136.819C178.495 136.947 177.903 137.587 177.903 138.451C177.903 139.395 178.607 139.875 179.663 139.875ZM186.695 140.579H185.591V128.915H186.695V140.579ZM190.195 140.579H189.091V128.915H190.195V140.579ZM195.791 140.771C193.519 140.771 191.999 139.139 191.999 136.707C191.999 134.291 193.503 132.627 195.711 132.627C197.807 132.627 199.231 134.115 199.231 136.307V136.851H193.071C193.151 138.739 194.143 139.827 195.807 139.827C197.071 139.827 197.887 139.283 198.175 138.259H199.231C198.815 139.891 197.615 140.771 195.791 140.771ZM195.711 133.571C194.255 133.571 193.295 134.531 193.103 136.051H198.127C198.127 134.563 197.167 133.571 195.711 133.571ZM202.1 140.579H200.996V132.835H201.956L202.116 134.179C202.628 133.187 203.652 132.627 204.772 132.627C206.9 132.627 207.78 133.891 207.78 135.843V140.579H206.676V136.083C206.676 134.275 205.86 133.635 204.58 133.635C202.996 133.635 202.1 134.787 202.1 136.531V140.579ZM209.452 136.483C209.452 134.371 210.812 132.627 213.084 132.627C214.428 132.627 215.452 133.251 215.948 134.387L216.06 132.835H217.02V140.339C217.02 142.643 215.548 144.147 213.276 144.147C211.292 144.147 209.9 143.027 209.596 141.155H210.7C210.94 142.403 211.9 143.139 213.292 143.139C214.876 143.139 215.932 142.067 215.932 140.451V138.611C215.404 139.699 214.332 140.339 213.004 140.339C210.796 140.339 209.452 138.595 209.452 136.483ZM210.556 136.467C210.556 138.051 211.532 139.347 213.164 139.347C214.844 139.347 215.836 138.131 215.836 136.467C215.836 134.819 214.876 133.603 213.18 133.603C211.516 133.603 210.556 134.899 210.556 136.467ZM222.572 140.771C220.3 140.771 218.78 139.139 218.78 136.707C218.78 134.291 220.284 132.627 222.492 132.627C224.588 132.627 226.012 134.115 226.012 136.307V136.851H219.852C219.932 138.739 220.924 139.827 222.588 139.827C223.852 139.827 224.668 139.283 224.956 138.259H226.012C225.596 139.891 224.396 140.771 222.572 140.771ZM222.492 133.571C221.036 133.571 220.076 134.531 219.884 136.051H224.908C224.908 134.563 223.948 133.571 222.492 133.571ZM237.655 132.835H238.759V140.579H237.799L237.655 139.267C237.223 140.163 236.151 140.771 234.935 140.771C233.111 140.771 232.118 139.523 232.118 137.635V132.819H233.239V137.283C233.239 139.123 234.055 139.779 235.286 139.779C236.775 139.779 237.655 138.787 237.655 136.947V132.835ZM242.162 140.579H241.058V132.835H242.018L242.178 134.179C242.69 133.187 243.714 132.627 244.834 132.627C246.962 132.627 247.842 133.891 247.842 135.843V140.579H246.738V136.083C246.738 134.275 245.922 133.635 244.642 133.635C243.058 133.635 242.162 134.787 242.162 136.531V140.579ZM251.819 140.579H250.731V133.763H249.179V132.835H250.731V130.387H251.819V132.835H253.371V133.763H251.819V140.579ZM255.352 130.707C254.904 130.707 254.536 130.339 254.536 129.891C254.536 129.443 254.904 129.059 255.352 129.059C255.8 129.059 256.184 129.443 256.184 129.891C256.184 130.339 255.8 130.707 255.352 130.707ZM254.808 140.579V132.835H255.912V140.579H254.808ZM259.367 140.579H258.263V128.915H259.367V140.579ZM267.544 129.123V140.579H266.392V129.123H267.544ZM277.567 140.771C275.311 140.771 273.983 139.043 273.983 136.723C273.983 134.387 275.311 132.627 277.615 132.627C278.895 132.627 279.919 133.187 280.463 134.307V128.915H281.567V140.579H280.607L280.495 138.995C279.951 140.195 278.863 140.771 277.567 140.771ZM277.759 139.763C279.455 139.763 280.447 138.483 280.447 136.691C280.447 134.915 279.455 133.619 277.759 133.619C276.079 133.619 275.103 134.915 275.103 136.691C275.103 138.483 276.079 139.763 277.759 139.763ZM284.415 130.707C283.967 130.707 283.599 130.339 283.599 129.891C283.599 129.443 283.967 129.059 284.415 129.059C284.863 129.059 285.247 129.443 285.247 129.891C285.247 130.339 284.863 130.707 284.415 130.707ZM283.871 140.579V132.835H284.975V140.579H283.871ZM286.621 138.403H287.677C287.677 139.299 288.349 139.859 289.437 139.859C290.637 139.859 291.341 139.347 291.341 138.515C291.341 137.875 291.021 137.507 290.109 137.283L288.781 136.947C287.437 136.611 286.781 135.907 286.781 134.851C286.781 133.491 287.917 132.627 289.581 132.627C291.213 132.627 292.269 133.523 292.317 134.963H291.245C291.213 134.067 290.589 133.539 289.549 133.539C288.461 133.539 287.853 134.003 287.853 134.835C287.853 135.427 288.269 135.843 289.117 136.051L290.445 136.387C291.789 136.723 292.397 137.347 292.397 138.467C292.397 139.859 291.213 140.771 289.453 140.771C287.709 140.771 286.621 139.843 286.621 138.403ZM293.671 136.723C293.671 134.291 295.159 132.627 297.415 132.627C299.207 132.627 300.519 133.667 300.823 135.267H299.719C299.431 134.195 298.503 133.603 297.431 133.603C295.863 133.603 294.759 134.803 294.759 136.707C294.759 138.547 295.783 139.779 297.351 139.779C298.503 139.779 299.431 139.139 299.735 138.147H300.855C300.487 139.731 299.111 140.771 297.351 140.771C295.159 140.771 293.671 139.155 293.671 136.723ZM301.983 136.707C301.983 134.339 303.647 132.627 305.919 132.627C308.191 132.627 309.855 134.339 309.855 136.707C309.855 139.059 308.191 140.771 305.919 140.771C303.647 140.771 301.983 139.059 301.983 136.707ZM303.103 136.691C303.103 138.515 304.255 139.779 305.919 139.779C307.567 139.779 308.735 138.515 308.735 136.691C308.735 134.899 307.567 133.619 305.919 133.619C304.255 133.619 303.103 134.899 303.103 136.691ZM313.437 140.579L310.269 132.835H311.453L313.453 137.827C313.661 138.387 313.869 138.915 314.013 139.427C314.157 138.899 314.365 138.387 314.589 137.827L316.621 132.835H317.757L314.541 140.579H313.437ZM321.963 140.771C319.691 140.771 318.171 139.139 318.171 136.707C318.171 134.291 319.674 132.627 321.883 132.627C323.979 132.627 325.403 134.115 325.403 136.307V136.851H319.243C319.323 138.739 320.315 139.827 321.979 139.827C323.243 139.827 324.059 139.283 324.347 138.259H325.403C324.987 139.891 323.787 140.771 321.963 140.771ZM321.883 133.571C320.427 133.571 319.467 134.531 319.275 136.051H324.299C324.299 134.563 323.339 133.571 321.883 133.571ZM331.216 132.739V133.731H330.608C329.184 133.731 328.272 134.691 328.272 136.163V140.579H327.168V132.835H328.208L328.288 134.035C328.592 133.203 329.408 132.659 330.496 132.659C330.736 132.659 330.944 132.675 331.216 132.739ZM335.634 140.771C333.362 140.771 331.842 139.139 331.842 136.707C331.842 134.291 333.346 132.627 335.554 132.627C337.65 132.627 339.074 134.115 339.074 136.307V136.851H332.914C332.994 138.739 333.986 139.827 335.65 139.827C336.914 139.827 337.73 139.283 338.018 138.259H339.074C338.658 139.891 337.458 140.771 335.634 140.771ZM335.554 133.571C334.098 133.571 333.138 134.531 332.946 136.051H337.97C337.97 134.563 337.01 133.571 335.554 133.571ZM343.88 140.771C341.624 140.771 340.296 139.043 340.296 136.723C340.296 134.387 341.624 132.627 343.928 132.627C345.208 132.627 346.232 133.187 346.776 134.307V128.915H347.88V140.579H346.92L346.808 138.995C346.264 140.195 345.176 140.771 343.88 140.771ZM344.072 139.763C345.768 139.763 346.76 138.483 346.76 136.691C346.76 134.915 345.768 133.619 344.072 133.619C342.392 133.619 341.416 134.915 341.416 136.691C341.416 138.483 342.392 139.763 344.072 139.763ZM32.704 154.099C32.704 152.179 34.24 150.915 36.544 150.915C38.608 150.915 39.968 152.067 40.144 153.987H38.976C38.848 152.691 37.968 151.955 36.528 151.955C34.912 151.955 33.856 152.787 33.856 154.083C33.856 155.091 34.448 155.731 35.648 156.035L37.616 156.515C39.408 156.947 40.336 157.971 40.336 159.523C40.336 161.507 38.8 162.771 36.432 162.771C34.208 162.771 32.704 161.603 32.56 159.731H33.744C33.808 160.931 34.864 161.715 36.432 161.715C38.112 161.715 39.184 160.899 39.184 159.587C39.184 158.563 38.608 157.891 37.376 157.603L35.44 157.123C33.648 156.691 32.704 155.667 32.704 154.099ZM43.2716 162.563H42.1676V150.915H43.2716V156.179C43.7676 155.251 44.7116 154.627 46.0076 154.627C48.0396 154.627 48.9516 155.891 48.9516 157.843V162.579H47.8476V158.083C47.8476 156.275 46.9996 155.635 45.7996 155.635C44.1356 155.635 43.2716 156.867 43.2716 158.355V162.563ZM50.608 158.707C50.608 156.339 52.272 154.627 54.544 154.627C56.816 154.627 58.48 156.339 58.48 158.707C58.48 161.059 56.816 162.771 54.544 162.771C52.272 162.771 50.608 161.059 50.608 158.707ZM51.728 158.691C51.728 160.515 52.88 161.779 54.544 161.779C56.192 161.779 57.36 160.515 57.36 158.691C57.36 156.899 56.192 155.619 54.544 155.619C52.88 155.619 51.728 156.899 51.728 158.691ZM60.2458 165.955V154.835H61.2057L61.3178 156.403C61.8618 155.203 62.9498 154.627 64.2458 154.627C66.4858 154.627 67.8298 156.339 67.8298 158.675C67.8298 161.011 66.5338 162.771 64.2458 162.771C62.9338 162.771 61.8938 162.211 61.3498 161.091V165.955H60.2458ZM61.3658 158.707C61.3658 160.483 62.3578 161.779 64.0538 161.779C65.7338 161.779 66.7098 160.483 66.7098 158.707C66.7098 156.915 65.7338 155.635 64.0538 155.635C62.3578 155.635 61.3658 156.915 61.3658 158.707ZM70.0491 162.755C69.5051 162.755 69.0411 162.307 69.0411 161.779C69.0411 161.235 69.5051 160.771 70.0491 160.771C70.5931 160.771 71.0571 161.235 71.0571 161.779C71.0571 162.307 70.5931 162.755 70.0491 162.755ZM72.2643 158.723C72.2643 156.291 73.7523 154.627 76.0083 154.627C77.8003 154.627 79.1123 155.667 79.4163 157.267H78.3123C78.0243 156.195 77.0963 155.603 76.0243 155.603C74.4563 155.603 73.3523 156.803 73.3523 158.707C73.3523 160.547 74.3763 161.779 75.9443 161.779C77.0963 161.779 78.0243 161.139 78.3283 160.147H79.4483C79.0803 161.731 77.7043 162.771 75.9443 162.771C73.7523 162.771 72.2643 161.155 72.2643 158.723ZM80.5768 158.707C80.5768 156.339 82.2408 154.627 84.5128 154.627C86.7848 154.627 88.4488 156.339 88.4488 158.707C88.4488 161.059 86.7848 162.771 84.5128 162.771C82.2408 162.771 80.5768 161.059 80.5768 158.707ZM81.6968 158.691C81.6968 160.515 82.8488 161.779 84.5128 161.779C86.1608 161.779 87.3288 160.515 87.3288 158.691C87.3288 156.899 86.1608 155.619 84.5128 155.619C82.8488 155.619 81.6968 156.899 81.6968 158.691ZM90.6741 162.755C90.1301 162.755 89.6661 162.307 89.6661 161.779C89.6661 161.235 90.1301 160.771 90.6741 160.771C91.2181 160.771 91.6821 161.235 91.6821 161.779C91.6821 162.307 91.2181 162.755 90.6741 162.755ZM97.3951 152.179V151.123H105.603V152.179H102.067V162.579H100.915V152.179H97.3951ZM108.053 162.563H106.949V150.915H108.053V156.179C108.549 155.251 109.493 154.627 110.789 154.627C112.821 154.627 113.733 155.891 113.733 157.843V162.579H112.629V158.083C112.629 156.275 111.781 155.635 110.581 155.635C108.917 155.635 108.053 156.867 108.053 158.355V162.563ZM119.181 162.771C116.909 162.771 115.389 161.139 115.389 158.707C115.389 156.291 116.893 154.627 119.101 154.627C121.197 154.627 122.621 156.115 122.621 158.307V158.851H116.461C116.541 160.739 117.533 161.827 119.197 161.827C120.461 161.827 121.277 161.283 121.565 160.259H122.621C122.205 161.891 121.005 162.771 119.181 162.771ZM119.101 155.571C117.645 155.571 116.685 156.531 116.493 158.051H121.517C121.517 156.563 120.557 155.571 119.101 155.571ZM132.872 154.739V155.731H132.264C130.84 155.731 129.928 156.691 129.928 158.163V162.579H128.824V154.835H129.864L129.944 156.035C130.248 155.203 131.064 154.659 132.152 154.659C132.392 154.659 132.6 154.675 132.872 154.739ZM136.251 162.771C134.603 162.771 133.627 161.843 133.627 160.483C133.627 159.059 134.715 158.163 136.523 158.019L139.083 157.811V157.555C139.083 156.035 138.171 155.555 137.035 155.555C135.691 155.555 134.891 156.163 134.891 157.203H133.883C133.883 155.635 135.163 154.627 137.067 154.627C138.859 154.627 140.171 155.523 140.171 157.571V162.579H139.243L139.099 161.219C138.619 162.195 137.563 162.771 136.251 162.771ZM136.507 161.875C138.139 161.875 139.083 160.739 139.083 159.059V158.643L136.795 158.819C135.339 158.947 134.747 159.587 134.747 160.451C134.747 161.395 135.451 161.875 136.507 161.875ZM143.49 162.579H142.386V154.835H143.346L143.506 156.179C144.018 155.187 145.042 154.627 146.162 154.627C148.29 154.627 149.17 155.891 149.17 157.843V162.579H148.066V158.083C148.066 156.275 147.25 155.635 145.97 155.635C144.386 155.635 143.49 156.787 143.49 158.531V162.579ZM150.843 158.483C150.843 156.371 152.203 154.627 154.475 154.627C155.819 154.627 156.843 155.251 157.339 156.387L157.451 154.835H158.411V162.339C158.411 164.643 156.939 166.147 154.667 166.147C152.683 166.147 151.291 165.027 150.987 163.155H152.091C152.331 164.403 153.291 165.139 154.683 165.139C156.267 165.139 157.323 164.067 157.323 162.451V160.611C156.795 161.699 155.723 162.339 154.395 162.339C152.187 162.339 150.843 160.595 150.843 158.483ZM151.947 158.467C151.947 160.051 152.923 161.347 154.555 161.347C156.235 161.347 157.227 160.131 157.227 158.467C157.227 156.819 156.267 155.603 154.571 155.603C152.907 155.603 151.947 156.899 151.947 158.467ZM163.963 162.771C161.691 162.771 160.171 161.139 160.171 158.707C160.171 156.291 161.674 154.627 163.883 154.627C165.979 154.627 167.403 156.115 167.403 158.307V158.851H161.243C161.323 160.739 162.315 161.827 163.979 161.827C165.243 161.827 166.059 161.283 166.347 160.259H167.403C166.987 161.891 165.787 162.771 163.963 162.771ZM163.883 155.571C162.427 155.571 161.467 156.531 161.275 158.051H166.299C166.299 156.563 165.339 155.571 163.883 155.571ZM173.061 158.707C173.061 156.339 174.725 154.627 176.997 154.627C179.269 154.627 180.933 156.339 180.933 158.707C180.933 161.059 179.269 162.771 176.997 162.771C174.725 162.771 173.061 161.059 173.061 158.707ZM174.181 158.691C174.181 160.515 175.333 161.779 176.997 161.779C178.645 161.779 179.813 160.515 179.813 158.691C179.813 156.899 178.645 155.619 176.997 155.619C175.333 155.619 174.181 156.899 174.181 158.691ZM181.772 154.835H182.956V153.331C182.956 151.587 183.916 150.915 185.1 150.915C185.372 150.915 185.692 150.931 185.948 150.979V151.923H185.292C184.316 151.923 184.06 152.419 184.06 153.331V154.835H185.884V155.763H184.06V162.579H182.956V155.763H181.772V154.835ZM191.28 158.707C191.28 156.339 192.944 154.627 195.216 154.627C197.488 154.627 199.152 156.339 199.152 158.707C199.152 161.059 197.488 162.771 195.216 162.771C192.944 162.771 191.28 161.059 191.28 158.707ZM192.4 158.691C192.4 160.515 193.552 161.779 195.216 161.779C196.864 161.779 198.032 160.515 198.032 158.691C198.032 156.899 196.864 155.619 195.216 155.619C193.552 155.619 192.4 156.899 192.4 158.691ZM200.918 165.955V154.835H201.878L201.99 156.403C202.534 155.203 203.622 154.627 204.918 154.627C207.158 154.627 208.502 156.339 208.502 158.675C208.502 161.011 207.206 162.771 204.918 162.771C203.606 162.771 202.566 162.211 202.022 161.091V165.955H200.918ZM202.038 158.707C202.038 160.483 203.03 161.779 204.726 161.779C206.406 161.779 207.382 160.483 207.382 158.707C207.382 156.915 206.406 155.635 204.726 155.635C203.03 155.635 202.038 156.915 202.038 158.707ZM211.959 162.579H210.871V155.763H209.319V154.835H210.871V152.387H211.959V154.835H213.511V155.763H211.959V162.579ZM215.493 152.707C215.045 152.707 214.677 152.339 214.677 151.891C214.677 151.443 215.045 151.059 215.493 151.059C215.941 151.059 216.325 151.443 216.325 151.891C216.325 152.339 215.941 152.707 215.493 152.707ZM214.949 162.579V154.835H216.053V162.579H214.949ZM217.811 158.707C217.811 156.339 219.475 154.627 221.747 154.627C224.019 154.627 225.683 156.339 225.683 158.707C225.683 161.059 224.019 162.771 221.747 162.771C219.475 162.771 217.811 161.059 217.811 158.707ZM218.931 158.691C218.931 160.515 220.083 161.779 221.747 161.779C223.395 161.779 224.563 160.515 224.563 158.691C224.563 156.899 223.395 155.619 221.747 155.619C220.083 155.619 218.931 156.899 218.931 158.691ZM228.553 162.579H227.449V154.835H228.409L228.569 156.179C229.081 155.187 230.105 154.627 231.225 154.627C233.353 154.627 234.233 155.891 234.233 157.843V162.579H233.129V158.083C233.129 156.275 232.313 155.635 231.033 155.635C229.449 155.635 228.553 156.787 228.553 158.531V162.579ZM235.684 160.403H236.74C236.74 161.299 237.412 161.859 238.5 161.859C239.7 161.859 240.404 161.347 240.404 160.515C240.404 159.875 240.084 159.507 239.172 159.283L237.844 158.947C236.5 158.611 235.844 157.907 235.844 156.851C235.844 155.491 236.98 154.627 238.644 154.627C240.276 154.627 241.332 155.523 241.38 156.963H240.308C240.276 156.067 239.652 155.539 238.612 155.539C237.524 155.539 236.916 156.003 236.916 156.835C236.916 157.427 237.332 157.843 238.18 158.051L239.508 158.387C240.852 158.723 241.46 159.347 241.46 160.467C241.46 161.859 240.276 162.771 238.516 162.771C236.772 162.771 235.684 161.843 235.684 160.403ZM249.491 162.579H248.403V155.763H246.851V154.835H248.403V152.387H249.491V154.835H251.043V155.763H249.491V162.579ZM253.584 162.563H252.48V150.915H253.584V156.179C254.08 155.251 255.024 154.627 256.32 154.627C258.352 154.627 259.264 155.891 259.264 157.843V162.579H258.16V158.083C258.16 156.275 257.312 155.635 256.112 155.635C254.448 155.635 253.584 156.867 253.584 158.355V162.563ZM264.713 162.771C262.441 162.771 260.921 161.139 260.921 158.707C260.921 156.291 262.424 154.627 264.633 154.627C266.729 154.627 268.153 156.115 268.153 158.307V158.851H261.993C262.073 160.739 263.065 161.827 264.729 161.827C265.993 161.827 266.809 161.283 267.097 160.259H268.153C267.737 161.891 266.537 162.771 264.713 162.771ZM264.633 155.571C263.177 155.571 262.217 156.531 262.025 158.051H267.049C267.049 156.563 266.089 155.571 264.633 155.571ZM268.946 165.955V165.043H269.794C270.466 165.043 271.138 164.995 271.522 163.955L271.858 163.043L268.722 154.835H269.89L272.386 161.587L274.834 154.835H275.97L272.418 164.355C271.97 165.571 271.218 166.067 270.114 166.067C269.65 166.067 269.298 166.035 268.946 165.955ZM281.155 158.707C281.155 156.339 282.819 154.627 285.091 154.627C287.363 154.627 289.027 156.339 289.027 158.707C289.027 161.059 287.363 162.771 285.091 162.771C282.819 162.771 281.155 161.059 281.155 158.707ZM282.275 158.691C282.275 160.515 283.427 161.779 285.091 161.779C286.739 161.779 287.907 160.515 287.907 158.691C287.907 156.899 286.739 155.619 285.091 155.619C283.427 155.619 282.275 156.899 282.275 158.691ZM289.866 154.835H291.05V153.331C291.05 151.587 291.994 150.915 293.194 150.915C293.466 150.915 293.786 150.931 294.042 150.979V151.939H293.37C292.41 151.939 292.154 152.419 292.154 153.331V154.835H295.834V153.331C295.834 151.587 296.794 150.915 297.978 150.915C298.25 150.915 298.57 150.931 298.826 150.979V151.939H298.17C297.194 151.939 296.938 152.419 296.938 153.331V154.835H298.762V155.763H296.938V162.579H295.834V155.763H292.154V162.579H291.05V155.763H289.866V154.835ZM303.275 162.771C301.003 162.771 299.483 161.139 299.483 158.707C299.483 156.291 300.987 154.627 303.195 154.627C305.291 154.627 306.715 156.115 306.715 158.307V158.851H300.555C300.635 160.739 301.627 161.827 303.291 161.827C304.555 161.827 305.371 161.283 305.659 160.259H306.715C306.299 161.891 305.099 162.771 303.275 162.771ZM303.195 155.571C301.739 155.571 300.779 156.531 300.587 158.051H305.611C305.611 156.563 304.651 155.571 303.195 155.571ZM312.528 154.739V155.731H311.92C310.496 155.731 309.584 156.691 309.584 158.163V162.579H308.48V154.835H309.52L309.6 156.035C309.904 155.203 310.72 154.659 311.808 154.659C312.048 154.659 312.256 154.675 312.528 154.739ZM318.977 152.707C318.529 152.707 318.161 152.339 318.161 151.891C318.161 151.443 318.529 151.059 318.977 151.059C319.425 151.059 319.809 151.443 319.809 151.891C319.809 152.339 319.425 152.707 318.977 152.707ZM318.433 162.579V154.835H319.537V162.579H318.433ZM321.184 160.403H322.24C322.24 161.299 322.912 161.859 324 161.859C325.2 161.859 325.904 161.347 325.904 160.515C325.904 159.875 325.584 159.507 324.672 159.283L323.344 158.947C322 158.611 321.344 157.907 321.344 156.851C321.344 155.491 322.48 154.627 324.144 154.627C325.776 154.627 326.832 155.523 326.88 156.963H325.808C325.776 156.067 325.152 155.539 324.112 155.539C323.024 155.539 322.416 156.003 322.416 156.835C322.416 157.427 322.832 157.843 323.68 158.051L325.008 158.387C326.352 158.723 326.96 159.347 326.96 160.467C326.96 161.859 325.776 162.771 324.016 162.771C322.272 162.771 321.184 161.843 321.184 160.403ZM334.991 162.579H333.903V155.763H332.351V154.835H333.903V152.387H334.991V154.835H336.543V155.763H334.991V162.579ZM342.028 154.739V155.731H341.42C339.996 155.731 339.084 156.691 339.084 158.163V162.579H337.98V154.835H339.02L339.1 156.035C339.404 155.203 340.22 154.659 341.308 154.659C341.548 154.659 341.756 154.675 342.028 154.739ZM348.936 154.835H350.04V162.579H349.08L348.936 161.267C348.504 162.163 347.432 162.771 346.216 162.771C344.392 162.771 343.4 161.523 343.4 159.635V154.819H344.52V159.283C344.52 161.123 345.336 161.779 346.568 161.779C348.056 161.779 348.936 160.787 348.936 158.947V154.835ZM353.492 162.579H352.388V150.915H353.492V162.579ZM355.056 165.955V165.043H355.904C356.576 165.043 357.248 164.995 357.632 163.955L357.968 163.043L354.832 154.835H356L358.496 161.587L360.944 154.835H362.08L358.528 164.355C358.08 165.571 357.328 166.067 356.224 166.067C355.76 166.067 355.408 166.035 355.056 165.955ZM37.2 176.739V177.731H36.592C35.168 177.731 34.256 178.691 34.256 180.163V184.579H33.152V176.835H34.192L34.272 178.035C34.576 177.203 35.392 176.659 36.48 176.659C36.72 176.659 36.928 176.675 37.2 176.739ZM41.6188 184.771C39.3468 184.771 37.8268 183.139 37.8268 180.707C37.8268 178.291 39.3307 176.627 41.5388 176.627C43.6348 176.627 45.0588 178.115 45.0588 180.307V180.851H38.8988C38.9788 182.739 39.9708 183.827 41.6348 183.827C42.8988 183.827 43.7148 183.283 44.0028 182.259H45.0588C44.6428 183.891 43.4428 184.771 41.6188 184.771ZM41.5388 177.571C40.0828 177.571 39.1228 178.531 38.9308 180.051H43.9548C43.9548 178.563 42.9948 177.571 41.5388 177.571ZM47.9279 184.579H46.8239V176.835H47.7839L47.9119 177.939C48.2959 177.123 49.1599 176.627 50.2479 176.627C51.4639 176.627 52.3759 177.267 52.7439 178.275C53.0959 177.267 54.0399 176.627 55.2879 176.627C56.9679 176.627 58.0719 177.715 58.0719 179.507V184.579H56.9999V179.731C56.9999 178.403 56.2639 177.619 55.0799 177.619C53.7839 177.619 53.0159 178.595 53.0159 179.795V184.579H51.9279V179.715C51.9279 178.403 51.1759 177.635 50.0079 177.635C48.7119 177.635 47.9279 178.595 47.9279 179.779V184.579ZM62.5166 184.771C60.8686 184.771 59.8926 183.843 59.8926 182.483C59.8926 181.059 60.9806 180.163 62.7886 180.019L65.3486 179.811V179.555C65.3486 178.035 64.4366 177.555 63.3006 177.555C61.9566 177.555 61.1566 178.163 61.1566 179.203H60.1486C60.1486 177.635 61.4286 176.627 63.3326 176.627C65.1246 176.627 66.4366 177.523 66.4366 179.571V184.579H65.5086L65.3646 183.219C64.8846 184.195 63.8286 184.771 62.5166 184.771ZM62.7726 183.875C64.4046 183.875 65.3486 182.739 65.3486 181.059V180.643L63.0606 180.819C61.6046 180.947 61.0126 181.587 61.0126 182.451C61.0126 183.395 61.7166 183.875 62.7726 183.875ZM72.7 176.739V177.731H72.092C70.668 177.731 69.756 178.691 69.756 180.163V184.579H68.652V176.835H69.692L69.772 178.035C70.076 177.203 70.892 176.659 71.98 176.659C72.22 176.659 72.428 176.675 72.7 176.739ZM75.3196 184.579H74.2156V172.915H75.3196V180.835L79.1596 176.835H80.5516L77.5756 179.923L80.5676 184.579H79.2876L76.8236 180.707L75.3196 182.259V184.579ZM83.9854 184.771C82.3374 184.771 81.3614 183.843 81.3614 182.483C81.3614 181.059 82.4494 180.163 84.2574 180.019L86.8174 179.811V179.555C86.8174 178.035 85.9054 177.555 84.7694 177.555C83.4254 177.555 82.6254 178.163 82.6254 179.203H81.6174C81.6174 177.635 82.8974 176.627 84.8014 176.627C86.5934 176.627 87.9054 177.523 87.9054 179.571V184.579H86.9774L86.8334 183.219C86.3534 184.195 85.2974 184.771 83.9854 184.771ZM84.2414 183.875C85.8734 183.875 86.8174 182.739 86.8174 181.059V180.643L84.5294 180.819C83.0734 180.947 82.4814 181.587 82.4814 182.451C82.4814 183.395 83.1854 183.875 84.2414 183.875ZM91.0807 184.579H90.1208V172.915H91.2248V178.339C91.7688 177.203 92.8248 176.627 94.1368 176.627C96.3928 176.627 97.7048 178.387 97.7048 180.723C97.7048 183.043 96.3608 184.771 94.1048 184.771C92.8088 184.771 91.7368 184.195 91.1928 182.995L91.0807 184.579ZM91.2408 180.691C91.2408 182.483 92.2328 183.763 93.9288 183.763C95.6088 183.763 96.5848 182.483 96.5848 180.691C96.5848 178.915 95.6088 177.619 93.9288 177.619C92.2328 177.619 91.2408 178.915 91.2408 180.691ZM100.617 184.579H99.5125V172.915H100.617V184.579ZM106.213 184.771C103.941 184.771 102.421 183.139 102.421 180.707C102.421 178.291 103.924 176.627 106.133 176.627C108.229 176.627 109.653 178.115 109.653 180.307V180.851H103.493C103.573 182.739 104.565 183.827 106.229 183.827C107.493 183.827 108.309 183.283 108.597 182.259H109.653C109.237 183.891 108.037 184.771 106.213 184.771ZM106.133 177.571C104.677 177.571 103.717 178.531 103.525 180.051H108.549C108.549 178.563 107.589 177.571 106.133 177.571ZM112.885 184.035C112.885 185.027 112.117 185.891 111.125 186.035V185.443C111.701 185.347 112.117 184.931 112.117 184.483C112.021 184.547 111.893 184.595 111.701 184.595C111.253 184.595 110.869 184.275 110.869 183.731C110.869 183.171 111.253 182.771 111.813 182.771C112.389 182.771 112.885 183.235 112.885 184.035ZM119.014 180.723C119.014 178.291 120.502 176.627 122.758 176.627C124.55 176.627 125.862 177.667 126.166 179.267H125.062C124.774 178.195 123.846 177.603 122.774 177.603C121.206 177.603 120.102 178.803 120.102 180.707C120.102 182.547 121.126 183.779 122.694 183.779C123.846 183.779 124.774 183.139 125.078 182.147H126.198C125.83 183.731 124.454 184.771 122.694 184.771C120.502 184.771 119.014 183.155 119.014 180.723ZM130.095 184.771C128.447 184.771 127.471 183.843 127.471 182.483C127.471 181.059 128.559 180.163 130.367 180.019L132.927 179.811V179.555C132.927 178.035 132.015 177.555 130.879 177.555C129.535 177.555 128.735 178.163 128.735 179.203H127.727C127.727 177.635 129.007 176.627 130.911 176.627C132.703 176.627 134.015 177.523 134.015 179.571V184.579H133.087L132.943 183.219C132.463 184.195 131.407 184.771 130.095 184.771ZM130.351 183.875C131.983 183.875 132.927 182.739 132.927 181.059V180.643L130.639 180.819C129.183 180.947 128.591 181.587 128.591 182.451C128.591 183.395 129.295 183.875 130.351 183.875ZM137.866 184.579H136.778V177.763H135.226V176.835H136.778V174.387H137.866V176.835H139.418V177.763H137.866V184.579ZM144.025 184.771C141.753 184.771 140.233 183.139 140.233 180.707C140.233 178.291 141.737 176.627 143.945 176.627C146.041 176.627 147.465 178.115 147.465 180.307V180.851H141.305C141.385 182.739 142.377 183.827 144.041 183.827C145.305 183.827 146.121 183.283 146.409 182.259H147.465C147.049 183.891 145.849 184.771 144.025 184.771ZM143.945 177.571C142.489 177.571 141.529 178.531 141.337 180.051H146.361C146.361 178.563 145.401 177.571 143.945 177.571ZM153.278 176.739V177.731H152.67C151.246 177.731 150.334 178.691 150.334 180.163V184.579H149.23V176.835H150.27L150.35 178.035C150.654 177.203 151.47 176.659 152.558 176.659C152.798 176.659 153.006 176.675 153.278 176.739ZM155.29 174.707C154.842 174.707 154.474 174.339 154.474 173.891C154.474 173.443 154.842 173.059 155.29 173.059C155.738 173.059 156.122 173.443 156.122 173.891C156.122 174.339 155.738 174.707 155.29 174.707ZM154.746 184.579V176.835H155.85V184.579H154.746ZM159.256 184.579H158.152V176.835H159.112L159.272 178.179C159.784 177.187 160.808 176.627 161.928 176.627C164.056 176.627 164.936 177.891 164.936 179.843V184.579H163.832V180.083C163.832 178.275 163.016 177.635 161.736 177.635C160.152 177.635 159.256 178.787 159.256 180.531V184.579ZM166.608 180.483C166.608 178.371 167.968 176.627 170.24 176.627C171.584 176.627 172.608 177.251 173.104 178.387L173.216 176.835H174.176V184.339C174.176 186.643 172.704 188.147 170.432 188.147C168.448 188.147 167.056 187.027 166.752 185.155H167.856C168.096 186.403 169.056 187.139 170.448 187.139C172.032 187.139 173.088 186.067 173.088 184.451V182.611C172.56 183.699 171.488 184.339 170.16 184.339C167.952 184.339 166.608 182.595 166.608 180.483ZM167.712 180.467C167.712 182.051 168.688 183.347 170.32 183.347C172 183.347 172.992 182.131 172.992 180.467C172.992 178.819 172.032 177.603 170.336 177.603C168.672 177.603 167.712 178.899 167.712 180.467ZM182.694 184.579H181.606V177.763H180.054V176.835H181.606V174.387H182.694V176.835H184.246V177.763H182.694V184.579ZM185.061 180.707C185.061 178.339 186.725 176.627 188.997 176.627C191.269 176.627 192.933 178.339 192.933 180.707C192.933 183.059 191.269 184.771 188.997 184.771C186.725 184.771 185.061 183.059 185.061 180.707ZM186.181 180.691C186.181 182.515 187.333 183.779 188.997 183.779C190.645 183.779 191.813 182.515 191.813 180.691C191.813 178.899 190.645 177.619 188.997 177.619C187.333 177.619 186.181 178.899 186.181 180.691ZM201.36 184.771C199.712 184.771 198.736 183.843 198.736 182.483C198.736 181.059 199.824 180.163 201.632 180.019L204.192 179.811V179.555C204.192 178.035 203.28 177.555 202.144 177.555C200.8 177.555 200 178.163 200 179.203H198.992C198.992 177.635 200.272 176.627 202.176 176.627C203.968 176.627 205.28 177.523 205.28 179.571V184.579H204.352L204.208 183.219C203.728 184.195 202.672 184.771 201.36 184.771ZM201.616 183.875C203.248 183.875 204.192 182.739 204.192 181.059V180.643L201.904 180.819C200.448 180.947 199.856 181.587 199.856 182.451C199.856 183.395 200.56 183.875 201.616 183.875ZM214.093 184.579L210.925 176.835H212.109L214.109 181.827C214.317 182.387 214.525 182.915 214.669 183.427C214.813 182.899 215.021 182.387 215.245 181.827L217.277 176.835H218.413L215.197 184.579H214.093ZM221.595 184.771C219.947 184.771 218.971 183.843 218.971 182.483C218.971 181.059 220.059 180.163 221.867 180.019L224.427 179.811V179.555C224.427 178.035 223.515 177.555 222.379 177.555C221.035 177.555 220.235 178.163 220.235 179.203H219.227C219.227 177.635 220.507 176.627 222.411 176.627C224.203 176.627 225.515 177.523 225.515 179.571V184.579H224.587L224.443 183.219C223.963 184.195 222.907 184.771 221.595 184.771ZM221.851 183.875C223.483 183.875 224.427 182.739 224.427 181.059V180.643L222.139 180.819C220.683 180.947 220.091 181.587 220.091 182.451C220.091 183.395 220.795 183.875 221.851 183.875ZM231.778 176.739V177.731H231.17C229.746 177.731 228.834 178.691 228.834 180.163V184.579H227.73V176.835H228.77L228.85 178.035C229.154 177.203 229.97 176.659 231.058 176.659C231.298 176.659 231.506 176.675 231.778 176.739ZM233.79 174.707C233.342 174.707 232.974 174.339 232.974 173.891C232.974 173.443 233.342 173.059 233.79 173.059C234.238 173.059 234.622 173.443 234.622 173.891C234.622 174.339 234.238 174.707 233.79 174.707ZM233.246 184.579V176.835H234.35V184.579H233.246ZM239.9 184.771C237.628 184.771 236.108 183.139 236.108 180.707C236.108 178.291 237.612 176.627 239.82 176.627C241.916 176.627 243.34 178.115 243.34 180.307V180.851H237.18C237.26 182.739 238.252 183.827 239.916 183.827C241.18 183.827 241.996 183.283 242.284 182.259H243.34C242.924 183.891 241.724 184.771 239.9 184.771ZM239.82 177.571C238.364 177.571 237.404 178.531 237.212 180.051H242.236C242.236 178.563 241.276 177.571 239.82 177.571ZM246.803 184.579H245.715V177.763H244.163V176.835H245.715V174.387H246.803V176.835H248.355V177.763H246.803V184.579ZM249.009 187.955V187.043H249.857C250.529 187.043 251.201 186.995 251.585 185.955L251.921 185.043L248.785 176.835H249.953L252.449 183.587L254.897 176.835H256.033L252.481 186.355C252.033 187.571 251.281 188.067 250.177 188.067C249.713 188.067 249.361 188.035 249.009 187.955ZM261.217 180.707C261.217 178.339 262.881 176.627 265.153 176.627C267.425 176.627 269.089 178.339 269.089 180.707C269.089 183.059 267.425 184.771 265.153 184.771C262.881 184.771 261.217 183.059 261.217 180.707ZM262.337 180.691C262.337 182.515 263.489 183.779 265.153 183.779C266.801 183.779 267.969 182.515 267.969 180.691C267.969 178.899 266.801 177.619 265.153 177.619C263.489 177.619 262.337 178.899 262.337 180.691ZM269.929 176.835H271.113V175.331C271.113 173.587 272.073 172.915 273.257 172.915C273.529 172.915 273.849 172.931 274.105 172.979V173.923H273.449C272.473 173.923 272.217 174.419 272.217 175.331V176.835H274.041V177.763H272.217V184.579H271.113V177.763H269.929V176.835ZM281.756 184.579H280.668V177.763H279.116V176.835H280.668V174.387H281.756V176.835H283.308V177.763H281.756V184.579ZM286.845 184.771C285.197 184.771 284.221 183.843 284.221 182.483C284.221 181.059 285.309 180.163 287.117 180.019L289.677 179.811V179.555C289.677 178.035 288.765 177.555 287.629 177.555C286.285 177.555 285.485 178.163 285.485 179.203H284.477C284.477 177.635 285.757 176.627 287.661 176.627C289.453 176.627 290.765 177.523 290.765 179.571V184.579H289.837L289.693 183.219C289.213 184.195 288.157 184.771 286.845 184.771ZM287.101 183.875C288.733 183.875 289.677 182.739 289.677 181.059V180.643L287.389 180.819C285.933 180.947 285.341 181.587 285.341 182.451C285.341 183.395 286.045 183.875 287.101 183.875ZM292.324 182.403H293.38C293.38 183.299 294.052 183.859 295.14 183.859C296.34 183.859 297.044 183.347 297.044 182.515C297.044 181.875 296.724 181.507 295.812 181.283L294.484 180.947C293.14 180.611 292.484 179.907 292.484 178.851C292.484 177.491 293.62 176.627 295.284 176.627C296.916 176.627 297.972 177.523 298.02 178.963H296.948C296.916 178.067 296.292 177.539 295.252 177.539C294.164 177.539 293.556 178.003 293.556 178.835C293.556 179.427 293.972 179.843 294.82 180.051L296.148 180.387C297.492 180.723 298.1 181.347 298.1 182.467C298.1 183.859 296.916 184.771 295.156 184.771C293.412 184.771 292.324 183.843 292.324 182.403ZM301.694 184.579H300.606V177.763H299.054V176.835H300.606V174.387H301.694V176.835H303.246V177.763H301.694V184.579ZM307.853 184.771C305.581 184.771 304.061 183.139 304.061 180.707C304.061 178.291 305.565 176.627 307.773 176.627C309.869 176.627 311.293 178.115 311.293 180.307V180.851H305.133C305.213 182.739 306.205 183.827 307.869 183.827C309.133 183.827 309.949 183.283 310.237 182.259H311.293C310.877 183.891 309.677 184.771 307.853 184.771ZM307.773 177.571C306.317 177.571 305.357 178.531 305.165 180.051H310.189C310.189 178.563 309.229 177.571 307.773 177.571ZM312.402 182.403H313.458C313.458 183.299 314.13 183.859 315.218 183.859C316.418 183.859 317.122 183.347 317.122 182.515C317.122 181.875 316.802 181.507 315.89 181.283L314.562 180.947C313.218 180.611 312.562 179.907 312.562 178.851C312.562 177.491 313.698 176.627 315.362 176.627C316.994 176.627 318.05 177.523 318.098 178.963H317.026C316.994 178.067 316.37 177.539 315.33 177.539C314.242 177.539 313.634 178.003 313.634 178.835C313.634 179.427 314.05 179.843 314.898 180.051L316.226 180.387C317.57 180.723 318.178 181.347 318.178 182.467C318.178 183.859 316.994 184.771 315.234 184.771C313.49 184.771 312.402 183.843 312.402 182.403ZM326.657 184.771C325.009 184.771 324.033 183.843 324.033 182.483C324.033 181.059 325.121 180.163 326.929 180.019L329.489 179.811V179.555C329.489 178.035 328.577 177.555 327.441 177.555C326.097 177.555 325.297 178.163 325.297 179.203H324.289C324.289 177.635 325.569 176.627 327.473 176.627C329.265 176.627 330.577 177.523 330.577 179.571V184.579H329.649L329.505 183.219C329.025 184.195 327.969 184.771 326.657 184.771ZM326.913 183.875C328.545 183.875 329.489 182.739 329.489 181.059V180.643L327.201 180.819C325.745 180.947 325.153 181.587 325.153 182.451C325.153 183.395 325.857 183.875 326.913 183.875ZM333.897 184.579H332.793V176.835H333.753L333.913 178.179C334.425 177.187 335.449 176.627 336.569 176.627C338.697 176.627 339.577 177.891 339.577 179.843V184.579H338.473V180.083C338.473 178.275 337.657 177.635 336.377 177.635C334.793 177.635 333.897 178.787 333.897 180.531V184.579ZM344.817 184.771C342.561 184.771 341.233 183.043 341.233 180.723C341.233 178.387 342.561 176.627 344.865 176.627C346.145 176.627 347.169 177.187 347.713 178.307V172.915H348.817V184.579H347.857L347.745 182.995C347.201 184.195 346.113 184.771 344.817 184.771ZM345.009 183.763C346.705 183.763 347.697 182.483 347.697 180.691C347.697 178.915 346.705 177.619 345.009 177.619C343.329 177.619 342.353 178.915 342.353 180.691C342.353 182.483 343.329 183.763 345.009 183.763ZM32.608 202.707C32.608 200.339 34.272 198.627 36.544 198.627C38.816 198.627 40.48 200.339 40.48 202.707C40.48 205.059 38.816 206.771 36.544 206.771C34.272 206.771 32.608 205.059 32.608 202.707ZM33.728 202.691C33.728 204.515 34.88 205.779 36.544 205.779C38.192 205.779 39.36 204.515 39.36 202.691C39.36 200.899 38.192 199.619 36.544 199.619C34.88 199.619 33.728 200.899 33.728 202.691ZM41.7018 202.723C41.7018 200.291 43.1898 198.627 45.4458 198.627C47.2378 198.627 48.5498 199.667 48.8538 201.267H47.7498C47.4618 200.195 46.5338 199.603 45.4618 199.603C43.8938 199.603 42.7898 200.803 42.7898 202.707C42.7898 204.547 43.8138 205.779 45.3818 205.779C46.5338 205.779 47.4618 205.139 47.7658 204.147H48.8858C48.5178 205.731 47.1418 206.771 45.3818 206.771C43.1898 206.771 41.7018 205.155 41.7018 202.723ZM50.0143 202.723C50.0143 200.291 51.5023 198.627 53.7583 198.627C55.5503 198.627 56.8623 199.667 57.1663 201.267H56.0623C55.7743 200.195 54.8463 199.603 53.7743 199.603C52.2063 199.603 51.1023 200.803 51.1023 202.707C51.1023 204.547 52.1263 205.779 53.6943 205.779C54.8463 205.779 55.7743 205.139 56.0783 204.147H57.1983C56.8303 205.731 55.4543 206.771 53.6943 206.771C51.5023 206.771 50.0143 205.155 50.0143 202.723ZM61.0948 206.771C59.4468 206.771 58.4708 205.843 58.4708 204.483C58.4708 203.059 59.5588 202.163 61.3668 202.019L63.9268 201.811V201.555C63.9268 200.035 63.0148 199.555 61.8788 199.555C60.5348 199.555 59.7348 200.163 59.7348 201.203H58.7268C58.7268 199.635 60.0068 198.627 61.9108 198.627C63.7028 198.627 65.0148 199.523 65.0148 201.571V206.579H64.0868L63.9428 205.219C63.4628 206.195 62.4068 206.771 61.0948 206.771ZM61.3508 205.875C62.9828 205.875 63.9268 204.739 63.9268 203.059V202.643L61.6388 202.819C60.1828 202.947 59.5908 203.587 59.5908 204.451C59.5908 205.395 60.2948 205.875 61.3508 205.875ZM66.5741 204.403H67.6301C67.6301 205.299 68.3021 205.859 69.3901 205.859C70.5901 205.859 71.2941 205.347 71.2941 204.515C71.2941 203.875 70.9741 203.507 70.0621 203.283L68.7341 202.947C67.3901 202.611 66.7341 201.907 66.7341 200.851C66.7341 199.491 67.8701 198.627 69.5341 198.627C71.1661 198.627 72.2221 199.523 72.2701 200.963H71.1981C71.1661 200.067 70.5421 199.539 69.5021 199.539C68.4141 199.539 67.8061 200.003 67.8061 200.835C67.8061 201.427 68.2221 201.843 69.0701 202.051L70.3981 202.387C71.7421 202.723 72.3501 203.347 72.3501 204.467C72.3501 205.859 71.1661 206.771 69.4061 206.771C67.6621 206.771 66.5741 205.843 66.5741 204.403ZM74.7116 196.707C74.2636 196.707 73.8956 196.339 73.8956 195.891C73.8956 195.443 74.2636 195.059 74.7116 195.059C75.1596 195.059 75.5436 195.443 75.5436 195.891C75.5436 196.339 75.1596 196.707 74.7116 196.707ZM74.1676 206.579V198.835H75.2716V206.579H74.1676ZM77.0299 202.707C77.0299 200.339 78.6939 198.627 80.9659 198.627C83.2379 198.627 84.9019 200.339 84.9019 202.707C84.9019 205.059 83.2379 206.771 80.9659 206.771C78.6939 206.771 77.0299 205.059 77.0299 202.707ZM78.1499 202.691C78.1499 204.515 79.3019 205.779 80.9659 205.779C82.6139 205.779 83.7819 204.515 83.7819 202.691C83.7819 200.899 82.6139 199.619 80.9659 199.619C79.3019 199.619 78.1499 200.899 78.1499 202.691ZM87.7716 206.579H86.6676V198.835H87.6276L87.7876 200.179C88.2996 199.187 89.3236 198.627 90.4436 198.627C92.5716 198.627 93.4516 199.891 93.4516 201.843V206.579H92.3476V202.083C92.3476 200.275 91.5316 199.635 90.2516 199.635C88.6676 199.635 87.7716 200.787 87.7716 202.531V206.579ZM94.9023 204.403H95.9583C95.9583 205.299 96.6303 205.859 97.7183 205.859C98.9183 205.859 99.6223 205.347 99.6223 204.515C99.6223 203.875 99.3023 203.507 98.3903 203.283L97.0623 202.947C95.7183 202.611 95.0623 201.907 95.0623 200.851C95.0623 199.491 96.1983 198.627 97.8623 198.627C99.4943 198.627 100.55 199.523 100.598 200.963H99.5263C99.4943 200.067 98.8703 199.539 97.8303 199.539C96.7423 199.539 96.1343 200.003 96.1343 200.835C96.1343 201.427 96.5503 201.843 97.3983 202.051L98.7263 202.387C100.07 202.723 100.678 203.347 100.678 204.467C100.678 205.859 99.4943 206.771 97.7343 206.771C95.9903 206.771 94.9023 205.843 94.9023 204.403ZM103.315 206.755C102.771 206.755 102.307 206.307 102.307 205.779C102.307 205.235 102.771 204.771 103.315 204.771C103.859 204.771 104.323 205.235 104.323 205.779C104.323 206.307 103.859 206.755 103.315 206.755ZM107.007 196.147C107.007 197.155 106.271 198.003 105.279 198.147V197.555C105.839 197.443 106.255 197.043 106.255 196.595C106.159 196.659 106.015 196.691 105.823 196.691C105.407 196.691 105.039 196.387 105.039 195.843C105.039 195.299 105.423 194.899 105.983 194.899C106.527 194.899 107.007 195.363 107.007 196.147ZM109.599 196.147C109.599 197.155 108.847 198.003 107.871 198.147V197.555C108.431 197.443 108.847 197.043 108.847 196.579C108.751 196.643 108.623 196.691 108.415 196.691C107.999 196.691 107.615 196.387 107.615 195.843C107.615 195.299 107.999 194.899 108.559 194.899C109.119 194.899 109.599 195.363 109.599 196.147Z" fill="black" fill-opacity="0.6"/>
</svg>
