<svg width="408" height="248" viewBox="0 0 408 248" fill="none" xmlns="http://www.w3.org/2000/svg">
<g filter="url(#filter0_f_24_825)">
<rect x="4.5" y="4.5" width="399" height="239" rx="19.5" stroke="black" stroke-opacity="0.1"/>
<path d="M47.2895 32L50.4879 38.8872L58.0264 39.8008L52.4647 44.971L53.9253 52.4229L47.2895 48.731L40.6537 52.4229L42.1143 44.971L36.5525 39.8008L44.091 38.8872L47.2895 32Z" fill="#FFC633"/>
<path d="M76.3553 32L79.5537 38.8872L87.0922 39.8008L81.5305 44.971L82.991 52.4229L76.3553 48.731L69.7195 52.4229L71.18 44.971L65.6183 39.8008L73.1568 38.8872L76.3553 32Z" fill="#FFC633"/>
<path d="M105.421 32L108.619 38.8872L116.158 39.8008L110.596 44.971L112.057 52.4229L105.421 48.731L98.7852 52.4229L100.246 44.971L94.6841 39.8008L102.223 38.8872L105.421 32Z" fill="#FFC633"/>
<path d="M134.487 32L137.685 38.8872L145.224 39.8008L139.662 44.971L141.123 52.4229L134.487 48.731L127.851 52.4229L129.312 44.971L123.75 39.8008L131.288 38.8872L134.487 32Z" fill="#FFC633"/>
<path d="M163.553 32L166.751 38.8872L174.289 39.8008L168.728 44.971L170.188 52.4229L163.553 48.731L156.917 52.4229L158.377 44.971L152.816 39.8008L160.354 38.8872L163.553 32Z" fill="#FFC633"/>
<path d="M36.78 78.5391C36.78 75.9791 38.9 74.1991 41.98 74.1991C44.94 74.1991 46.82 75.8391 46.9 78.4791H44.34C44.28 77.2191 43.38 76.4791 41.94 76.4791C40.36 76.4791 39.34 77.2391 39.34 78.4591C39.34 79.4991 39.9 80.0791 41.12 80.3591L43.42 80.8591C45.92 81.3991 47.14 82.6791 47.14 84.8591C47.14 87.5791 45.02 89.3391 41.8 89.3391C38.68 89.3391 36.64 87.6791 36.58 85.0591H39.14C39.16 86.2991 40.16 87.0391 41.8 87.0391C43.5 87.0391 44.58 86.2991 44.58 85.0791C44.58 84.0991 44.08 83.5191 42.88 83.2591L40.56 82.7391C38.08 82.1991 36.78 80.7791 36.78 78.5391ZM52.0359 89.3391C49.9359 89.3391 48.6559 88.1191 48.6559 86.2591C48.6559 84.4391 49.9759 83.2991 52.3159 83.1191L55.2759 82.8991V82.6791C55.2759 81.3391 54.4759 80.7991 53.2359 80.7991C51.7959 80.7991 50.9959 81.3991 50.9959 82.4391H48.9159C48.9159 80.2991 50.6759 78.8991 53.3559 78.8991C56.0159 78.8991 57.6559 80.3391 57.6559 83.0791V89.0791H55.5159L55.3359 87.6191C54.9159 88.6391 53.5759 89.3391 52.0359 89.3391ZM52.8359 87.4991C54.3359 87.4991 55.2959 86.5991 55.2959 85.0791V84.5591L53.2359 84.7191C51.7159 84.8591 51.1359 85.3591 51.1359 86.1591C51.1359 87.0591 51.7359 87.4991 52.8359 87.4991ZM66.253 79.1591V81.4191H65.353C63.593 81.4191 62.493 82.3591 62.493 84.2791V89.0791H60.053V79.2191H62.353L62.493 80.6591C62.913 79.6791 63.853 79.0191 65.173 79.0191C65.513 79.0191 65.853 79.0591 66.253 79.1591ZM70.4539 89.3391C68.3539 89.3391 67.0739 88.1191 67.0739 86.2591C67.0739 84.4391 68.3939 83.2991 70.7339 83.1191L73.6939 82.8991V82.6791C73.6939 81.3391 72.8939 80.7991 71.6539 80.7991C70.2139 80.7991 69.4139 81.3991 69.4139 82.4391H67.3339C67.3339 80.2991 69.0939 78.8991 71.7739 78.8991C74.4339 78.8991 76.0739 80.3391 76.0739 83.0791V89.0791H73.9339L73.7539 87.6191C73.3339 88.6391 71.9939 89.3391 70.4539 89.3391ZM71.2539 87.4991C72.7539 87.4991 73.7139 86.5991 73.7139 85.0791V84.5591L71.6539 84.7191C70.1339 84.8591 69.5539 85.3591 69.5539 86.1591C69.5539 87.0591 70.1539 87.4991 71.2539 87.4991ZM80.9109 89.0791H78.4709V74.1991H80.9309V80.4791C81.5509 79.5191 82.7109 78.8991 84.1309 78.8991C86.5709 78.8991 87.8509 80.4391 87.8509 82.9991V89.0791H85.4109V83.5791C85.4109 81.9191 84.5909 81.1191 83.3509 81.1191C81.8109 81.1191 80.9109 82.1991 80.9109 83.6791V89.0791ZM98.4789 89.0791H95.9989V74.4591H98.4789L103.199 86.0991L107.919 74.4591H110.439V89.0791H107.959V84.5791C107.959 81.6391 107.959 80.7791 108.099 79.7391L104.379 89.0791H102.019L98.3189 79.7591C98.4589 80.6391 98.4789 82.0191 98.4789 83.8391V89.0791ZM114.955 89.3191C114.075 89.3191 113.335 88.5991 113.335 87.7391C113.335 86.8591 114.075 86.1391 114.955 86.1391C115.835 86.1391 116.575 86.8591 116.575 87.7391C116.575 88.5991 115.835 89.3191 114.955 89.3191Z" fill="black"/>
<path d="M134 71.8291C132.072 71.8291 130.187 72.4009 128.583 73.4723C126.98 74.5436 125.73 76.0664 124.992 77.8479C124.254 79.6295 124.061 81.5899 124.437 83.4812C124.814 85.3725 125.742 87.1098 127.106 88.4734C128.469 89.837 130.207 90.7656 132.098 91.1418C133.989 91.518 135.95 91.3249 137.731 90.5869C139.513 89.849 141.035 88.5993 142.107 86.9959C143.178 85.3925 143.75 83.5075 143.75 81.5791C143.747 78.9941 142.719 76.5157 140.891 74.6878C139.063 72.8599 136.585 71.8318 134 71.8291ZM138.281 79.8597L133.031 85.1097C132.961 85.1795 132.878 85.2348 132.787 85.2725C132.696 85.3103 132.599 85.3297 132.5 85.3297C132.401 85.3297 132.304 85.3103 132.213 85.2725C132.122 85.2348 132.039 85.1795 131.969 85.1097L129.719 82.8597C129.579 82.719 129.5 82.5281 129.5 82.3291C129.5 82.1301 129.579 81.9392 129.719 81.7985C129.86 81.6577 130.051 81.5787 130.25 81.5787C130.449 81.5787 130.64 81.6577 130.781 81.7985L132.5 83.5188L137.219 78.7985C137.289 78.7288 137.372 78.6735 137.463 78.6358C137.554 78.5981 137.651 78.5787 137.75 78.5787C137.849 78.5787 137.946 78.5981 138.037 78.6358C138.128 78.6735 138.211 78.7288 138.281 78.7985C138.35 78.8682 138.406 78.9509 138.443 79.0419C138.481 79.133 138.5 79.2306 138.5 79.3291C138.5 79.4276 138.481 79.5252 138.443 79.6163C138.406 79.7073 138.35 79.79 138.281 79.8597Z" fill="#01AB31"/>
<path d="M38.08 111.907L37.776 115.091H37.056L36.736 111.907C36.672 111.347 37.072 111.091 37.424 111.091C37.76 111.091 38.144 111.347 38.08 111.907ZM40.336 111.907L40.032 115.091H39.312L38.992 111.907C38.928 111.347 39.328 111.091 39.68 111.091C40.016 111.091 40.4 111.347 40.336 111.907ZM43.6221 111.123V122.579H42.4701V111.123H43.6221ZM47.0956 111.907L46.7916 115.091H46.0716L45.7516 111.907C45.6876 111.347 46.0876 111.091 46.4396 111.091C46.7756 111.091 47.1596 111.347 47.0956 111.907ZM50.0841 122.579H48.9801V114.835H49.9401L50.0681 115.939C50.4521 115.123 51.3161 114.627 52.4041 114.627C53.6201 114.627 54.5321 115.267 54.9001 116.275C55.2521 115.267 56.1961 114.627 57.4441 114.627C59.1241 114.627 60.2281 115.715 60.2281 117.507V122.579H59.1561V117.731C59.1561 116.403 58.4201 115.619 57.2361 115.619C55.9401 115.619 55.1721 116.595 55.1721 117.795V122.579H54.0841V117.715C54.0841 116.403 53.3321 115.635 52.1641 115.635C50.8681 115.635 50.0841 116.595 50.0841 117.779V122.579ZM67.8464 122.579H66.8864V110.915H67.9904V116.339C68.5344 115.203 69.5904 114.627 70.9024 114.627C73.1584 114.627 74.4704 116.387 74.4704 118.723C74.4704 121.043 73.1264 122.771 70.8704 122.771C69.5744 122.771 68.5024 122.195 67.9584 120.995L67.8464 122.579ZM68.0064 118.691C68.0064 120.483 68.9984 121.763 70.6944 121.763C72.3744 121.763 73.3504 120.483 73.3504 118.691C73.3504 116.915 72.3744 115.619 70.6944 115.619C68.9984 115.619 68.0064 116.915 68.0064 118.691ZM77.3821 122.579H76.2781V110.915H77.3821V122.579ZM79.1861 118.707C79.1861 116.339 80.8501 114.627 83.1221 114.627C85.3941 114.627 87.0581 116.339 87.0581 118.707C87.0581 121.059 85.3941 122.771 83.1221 122.771C80.8501 122.771 79.1861 121.059 79.1861 118.707ZM80.3061 118.691C80.3061 120.515 81.4581 121.779 83.1221 121.779C84.7701 121.779 85.9381 120.515 85.9381 118.691C85.9381 116.899 84.7701 115.619 83.1221 115.619C81.4581 115.619 80.3061 116.899 80.3061 118.691ZM90.1121 122.579L87.5521 114.835H88.6881L90.2081 119.507C90.3841 120.019 90.5281 120.547 90.6881 121.171C90.8161 120.547 91.0721 119.763 91.1521 119.507L92.6881 114.835H93.8241L95.3441 119.507C95.4881 119.923 95.6801 120.595 95.8241 121.171C95.9841 120.531 96.0161 120.339 96.2881 119.507L97.8241 114.835H98.9761L96.3521 122.579H95.2801L93.6801 117.715C93.4881 117.139 93.3601 116.659 93.2641 116.195C93.1521 116.611 93.0241 117.075 92.8161 117.715L91.2161 122.579H90.1121ZM101.459 122.579H100.355V114.835H101.315L101.475 116.179C101.987 115.187 103.011 114.627 104.131 114.627C106.259 114.627 107.139 115.891 107.139 117.843V122.579H106.035V118.083C106.035 116.275 105.219 115.635 103.939 115.635C102.355 115.635 101.459 116.787 101.459 118.531V122.579ZM116.001 122.771C114.353 122.771 113.377 121.843 113.377 120.483C113.377 119.059 114.465 118.163 116.273 118.019L118.833 117.811V117.555C118.833 116.035 117.921 115.555 116.785 115.555C115.441 115.555 114.641 116.163 114.641 117.203H113.633C113.633 115.635 114.913 114.627 116.817 114.627C118.609 114.627 119.921 115.523 119.921 117.571V122.579H118.993L118.849 121.219C118.369 122.195 117.313 122.771 116.001 122.771ZM116.257 121.875C117.889 121.875 118.833 120.739 118.833 119.059V118.643L116.545 118.819C115.089 118.947 114.497 119.587 114.497 120.451C114.497 121.395 115.201 121.875 116.257 121.875ZM123.534 122.579L120.974 114.835H122.11L123.63 119.507C123.806 120.019 123.95 120.547 124.11 121.171C124.238 120.547 124.494 119.763 124.574 119.507L126.11 114.835H127.246L128.766 119.507C128.91 119.923 129.102 120.595 129.246 121.171C129.406 120.531 129.438 120.339 129.71 119.507L131.246 114.835H132.398L129.774 122.579H128.702L127.102 117.715C126.91 117.139 126.782 116.659 126.686 116.195C126.574 116.611 126.446 117.075 126.238 117.715L124.638 122.579H123.534ZM135.657 122.771C134.009 122.771 133.033 121.843 133.033 120.483C133.033 119.059 134.121 118.163 135.929 118.019L138.489 117.811V117.555C138.489 116.035 137.577 115.555 136.441 115.555C135.097 115.555 134.297 116.163 134.297 117.203H133.289C133.289 115.635 134.569 114.627 136.473 114.627C138.265 114.627 139.577 115.523 139.577 117.571V122.579H138.649L138.505 121.219C138.025 122.195 136.969 122.771 135.657 122.771ZM135.913 121.875C137.545 121.875 138.489 120.739 138.489 119.059V118.643L136.201 118.819C134.745 118.947 134.153 119.587 134.153 120.451C134.153 121.395 134.857 121.875 135.913 121.875ZM140.837 125.955V125.043H141.685C142.357 125.043 143.029 124.995 143.413 123.955L143.749 123.043L140.613 114.835H141.781L144.277 121.587L146.725 114.835H147.861L144.309 124.355C143.861 125.571 143.109 126.067 142.005 126.067C141.541 126.067 141.189 126.035 140.837 125.955ZM154.549 122.579H153.59V110.915H154.694V116.339C155.238 115.203 156.294 114.627 157.606 114.627C159.862 114.627 161.174 116.387 161.174 118.723C161.174 121.043 159.83 122.771 157.574 122.771C156.278 122.771 155.206 122.195 154.662 120.995L154.549 122.579ZM154.71 118.691C154.71 120.483 155.702 121.763 157.398 121.763C159.078 121.763 160.054 120.483 160.054 118.691C160.054 116.915 159.078 115.619 157.398 115.619C155.702 115.619 154.71 116.915 154.71 118.691ZM161.899 125.955V125.043H162.747C163.419 125.043 164.091 124.995 164.475 123.955L164.811 123.043L161.675 114.835H162.843L165.339 121.587L167.787 114.835H168.923L165.371 124.355C164.923 125.571 164.171 126.067 163.067 126.067C162.603 126.067 162.251 126.035 161.899 125.955ZM176.428 122.579H175.34V115.763H173.788V114.835H175.34V112.387H176.428V114.835H177.98V115.763H176.428V122.579ZM180.522 122.563H179.418V110.915H180.522V116.179C181.018 115.251 181.962 114.627 183.258 114.627C185.29 114.627 186.202 115.891 186.202 117.843V122.579H185.098V118.083C185.098 116.275 184.25 115.635 183.05 115.635C181.386 115.635 180.522 116.867 180.522 118.355V122.563ZM191.65 122.771C189.378 122.771 187.858 121.139 187.858 118.707C187.858 116.291 189.362 114.627 191.57 114.627C193.666 114.627 195.09 116.115 195.09 118.307V118.851H188.93C189.01 120.739 190.002 121.827 191.666 121.827C192.93 121.827 193.746 121.283 194.034 120.259H195.09C194.674 121.891 193.474 122.771 191.65 122.771ZM191.57 115.571C190.114 115.571 189.154 116.531 188.962 118.051H193.986C193.986 116.563 193.026 115.571 191.57 115.571ZM200.749 118.675C200.749 116.339 202.093 114.627 204.333 114.627C205.629 114.627 206.701 115.203 207.261 116.403L207.373 114.835H208.333V125.955H207.229V121.091C206.685 122.211 205.645 122.771 204.333 122.771C202.045 122.771 200.749 121.011 200.749 118.675ZM201.869 118.707C201.869 120.483 202.845 121.779 204.525 121.779C206.221 121.779 207.213 120.483 207.213 118.707C207.213 116.915 206.221 115.635 204.525 115.635C202.845 115.635 201.869 116.915 201.869 118.707ZM216.076 114.835H217.18V122.579H216.22L216.076 121.267C215.644 122.163 214.572 122.771 213.356 122.771C211.532 122.771 210.54 121.523 210.54 119.635V114.819H211.66V119.283C211.66 121.123 212.476 121.779 213.708 121.779C215.196 121.779 216.076 120.787 216.076 118.947V114.835ZM221.704 122.771C220.056 122.771 219.08 121.843 219.08 120.483C219.08 119.059 220.168 118.163 221.976 118.019L224.536 117.811V117.555C224.536 116.035 223.624 115.555 222.488 115.555C221.144 115.555 220.344 116.163 220.344 117.203H219.336C219.336 115.635 220.616 114.627 222.52 114.627C224.312 114.627 225.624 115.523 225.624 117.571V122.579H224.696L224.552 121.219C224.072 122.195 223.016 122.771 221.704 122.771ZM221.96 121.875C223.592 121.875 224.536 120.739 224.536 119.059V118.643L222.248 118.819C220.792 118.947 220.2 119.587 220.2 120.451C220.2 121.395 220.904 121.875 221.96 121.875ZM228.992 122.579H227.888V110.915H228.992V122.579ZM231.884 112.707C231.436 112.707 231.068 112.339 231.068 111.891C231.068 111.443 231.436 111.059 231.884 111.059C232.332 111.059 232.716 111.443 232.716 111.891C232.716 112.339 232.332 112.707 231.884 112.707ZM231.34 122.579V114.835H232.444V122.579H231.34ZM236.522 122.579H235.434V115.763H233.882V114.835H235.434V112.387H236.522V114.835H238.074V115.763H236.522V122.579ZM238.727 125.955V125.043H239.575C240.247 125.043 240.919 124.995 241.303 123.955L241.639 123.043L238.503 114.835H239.671L242.167 121.587L244.615 114.835H245.751L242.199 124.355C241.751 125.571 240.999 126.067 239.895 126.067C239.431 126.067 239.079 126.035 238.727 125.955ZM253.704 122.771C252.056 122.771 251.08 121.843 251.08 120.483C251.08 119.059 252.168 118.163 253.976 118.019L256.536 117.811V117.555C256.536 116.035 255.624 115.555 254.488 115.555C253.144 115.555 252.344 116.163 252.344 117.203H251.336C251.336 115.635 252.616 114.627 254.52 114.627C256.312 114.627 257.624 115.523 257.624 117.571V122.579H256.696L256.552 121.219C256.072 122.195 255.016 122.771 253.704 122.771ZM253.96 121.875C255.592 121.875 256.536 120.739 256.536 119.059V118.643L254.248 118.819C252.792 118.947 252.2 119.587 252.2 120.451C252.2 121.395 252.904 121.875 253.96 121.875ZM260.944 122.579H259.84V114.835H260.799L260.96 116.179C261.472 115.187 262.496 114.627 263.616 114.627C265.744 114.627 266.624 115.891 266.624 117.843V122.579H265.52V118.083C265.52 116.275 264.704 115.635 263.424 115.635C261.84 115.635 260.944 116.787 260.944 118.531V122.579ZM271.864 122.771C269.608 122.771 268.28 121.043 268.28 118.723C268.28 116.387 269.608 114.627 271.912 114.627C273.192 114.627 274.216 115.187 274.76 116.307V110.915H275.864V122.579H274.904L274.792 120.995C274.248 122.195 273.16 122.771 271.864 122.771ZM272.056 121.763C273.752 121.763 274.744 120.483 274.744 118.691C274.744 116.915 273.752 115.619 272.056 115.619C270.376 115.619 269.4 116.915 269.4 118.691C269.4 120.483 270.376 121.763 272.056 121.763ZM281.949 120.403H283.005C283.005 121.299 283.677 121.859 284.765 121.859C285.965 121.859 286.669 121.347 286.669 120.515C286.669 119.875 286.349 119.507 285.437 119.283L284.109 118.947C282.765 118.611 282.109 117.907 282.109 116.851C282.109 115.491 283.245 114.627 284.909 114.627C286.541 114.627 287.597 115.523 287.645 116.963H286.573C286.541 116.067 285.917 115.539 284.877 115.539C283.789 115.539 283.181 116.003 283.181 116.835C283.181 117.427 283.597 117.843 284.445 118.051L285.773 118.387C287.117 118.723 287.725 119.347 287.725 120.467C287.725 121.859 286.541 122.771 284.781 122.771C283.037 122.771 281.949 121.843 281.949 120.403ZM291.319 122.579H290.231V115.763H288.679V114.835H290.231V112.387H291.319V114.835H292.871V115.763H291.319V122.579ZM293.524 125.955V125.043H294.372C295.044 125.043 295.716 124.995 296.1 123.955L296.436 123.043L293.3 114.835H294.468L296.964 121.587L299.412 114.835H300.548L296.996 124.355C296.548 125.571 295.796 126.067 294.692 126.067C294.228 126.067 293.876 126.035 293.524 125.955ZM302.992 122.579H301.888V110.915H302.992V122.579ZM308.588 122.771C306.316 122.771 304.796 121.139 304.796 118.707C304.796 116.291 306.299 114.627 308.508 114.627C310.604 114.627 312.028 116.115 312.028 118.307V118.851H305.868C305.948 120.739 306.94 121.827 308.604 121.827C309.868 121.827 310.684 121.283 310.972 120.259H312.028C311.612 121.891 310.412 122.771 308.588 122.771ZM308.508 115.571C307.052 115.571 306.092 116.531 305.9 118.051H310.924C310.924 116.563 309.964 115.571 308.508 115.571ZM317.686 118.707C317.686 116.339 319.35 114.627 321.622 114.627C323.894 114.627 325.558 116.339 325.558 118.707C325.558 121.059 323.894 122.771 321.622 122.771C319.35 122.771 317.686 121.059 317.686 118.707ZM318.806 118.691C318.806 120.515 319.958 121.779 321.622 121.779C323.27 121.779 324.438 120.515 324.438 118.691C324.438 116.899 323.27 115.619 321.622 115.619C319.958 115.619 318.806 116.899 318.806 118.691ZM326.397 114.835H327.581V113.331C327.581 111.587 328.541 110.915 329.725 110.915C329.997 110.915 330.317 110.931 330.573 110.979V111.923H329.917C328.941 111.923 328.685 112.419 328.685 113.331V114.835H330.509V115.763H328.685V122.579H327.581V115.763H326.397V114.835ZM338.225 122.579H337.137V115.763H335.585V114.835H337.137V112.387H338.225V114.835H339.777V115.763H338.225V122.579ZM342.319 122.563H341.215V110.915H342.319V116.179C342.815 115.251 343.759 114.627 345.055 114.627C347.087 114.627 347.999 115.891 347.999 117.843V122.579H346.895V118.083C346.895 116.275 346.047 115.635 344.847 115.635C343.183 115.635 342.319 116.867 342.319 118.355V122.563ZM353.447 122.771C351.175 122.771 349.655 121.139 349.655 118.707C349.655 116.291 351.159 114.627 353.367 114.627C355.463 114.627 356.887 116.115 356.887 118.307V118.851H350.727C350.807 120.739 351.799 121.827 353.463 121.827C354.727 121.827 355.543 121.283 355.831 120.259H356.887C356.471 121.891 355.271 122.771 353.447 122.771ZM353.367 115.571C351.911 115.571 350.951 116.531 350.759 118.051H355.783C355.783 116.563 354.823 115.571 353.367 115.571ZM36.608 140.723C36.608 138.291 38.096 136.627 40.352 136.627C42.144 136.627 43.456 137.667 43.76 139.267H42.656C42.368 138.195 41.44 137.603 40.368 137.603C38.8 137.603 37.696 138.803 37.696 140.707C37.696 142.547 38.72 143.779 40.288 143.779C41.44 143.779 42.368 143.139 42.672 142.147H43.792C43.424 143.731 42.048 144.771 40.288 144.771C38.096 144.771 36.608 143.155 36.608 140.723ZM46.6165 144.579H45.5125V132.915H46.6165V144.579ZM48.4205 140.707C48.4205 138.339 50.0845 136.627 52.3565 136.627C54.6285 136.627 56.2925 138.339 56.2925 140.707C56.2925 143.059 54.6285 144.771 52.3565 144.771C50.0845 144.771 48.4205 143.059 48.4205 140.707ZM49.5405 140.691C49.5405 142.515 50.6925 143.779 52.3565 143.779C54.0045 143.779 55.1725 142.515 55.1725 140.691C55.1725 138.899 54.0045 137.619 52.3565 137.619C50.6925 137.619 49.5405 138.899 49.5405 140.691ZM59.7561 144.579H58.6681V137.763H57.1161V136.835H58.6681V134.387H59.7561V136.835H61.3081V137.763H59.7561V144.579ZM63.8498 144.563H62.7458V132.915H63.8498V138.179C64.3458 137.251 65.2898 136.627 66.5858 136.627C68.6178 136.627 69.5298 137.891 69.5298 139.843V144.579H68.4258V140.083C68.4258 138.275 67.5778 137.635 66.3778 137.635C64.7138 137.635 63.8498 138.867 63.8498 140.355V144.563ZM74.9781 144.771C72.7061 144.771 71.1861 143.139 71.1861 140.707C71.1861 138.291 72.6901 136.627 74.8981 136.627C76.9941 136.627 78.4181 138.115 78.4181 140.307V140.851H72.2581C72.3381 142.739 73.3301 143.827 74.9941 143.827C76.2581 143.827 77.0741 143.283 77.3621 142.259H78.4181C78.0021 143.891 76.8021 144.771 74.9781 144.771ZM74.8981 137.571C73.4421 137.571 72.4821 138.531 72.2901 140.051H77.3141C77.3141 138.563 76.3541 137.571 74.8981 137.571ZM79.5273 142.403H80.5833C80.5833 143.299 81.2553 143.859 82.3433 143.859C83.5433 143.859 84.2473 143.347 84.2473 142.515C84.2473 141.875 83.9273 141.507 83.0153 141.283L81.6873 140.947C80.3433 140.611 79.6873 139.907 79.6873 138.851C79.6873 137.491 80.8233 136.627 82.4873 136.627C84.1193 136.627 85.1753 137.523 85.2233 138.963H84.1513C84.1193 138.067 83.4953 137.539 82.4553 137.539C81.3673 137.539 80.7593 138.003 80.7593 138.835C80.7593 139.427 81.1753 139.843 82.0233 140.051L83.3513 140.387C84.6953 140.723 85.3033 141.347 85.3033 142.467C85.3033 143.859 84.1193 144.771 82.3593 144.771C80.6153 144.771 79.5273 143.843 79.5273 142.403ZM92.9503 133.123V144.579H91.7983V133.123H92.9503ZM103.981 136.739V137.731H103.373C101.949 137.731 101.037 138.691 101.037 140.163V144.579H99.9333V136.835H100.973L101.053 138.035C101.357 137.203 102.173 136.659 103.261 136.659C103.501 136.659 103.709 136.675 103.981 136.739ZM108.4 144.771C106.128 144.771 104.608 143.139 104.608 140.707C104.608 138.291 106.112 136.627 108.32 136.627C110.416 136.627 111.84 138.115 111.84 140.307V140.851H105.68C105.76 142.739 106.752 143.827 108.416 143.827C109.68 143.827 110.496 143.283 110.784 142.259H111.84C111.424 143.891 110.224 144.771 108.4 144.771ZM108.32 137.571C106.864 137.571 105.904 138.531 105.712 140.051H110.736C110.736 138.563 109.776 137.571 108.32 137.571ZM113.061 140.723C113.061 138.291 114.549 136.627 116.805 136.627C118.597 136.627 119.909 137.667 120.213 139.267H119.109C118.821 138.195 117.893 137.603 116.821 137.603C115.253 137.603 114.149 138.803 114.149 140.707C114.149 142.547 115.173 143.779 116.741 143.779C117.893 143.779 118.821 143.139 119.125 142.147H120.245C119.877 143.731 118.501 144.771 116.741 144.771C114.549 144.771 113.061 143.155 113.061 140.723ZM125.166 144.771C122.894 144.771 121.374 143.139 121.374 140.707C121.374 138.291 122.878 136.627 125.086 136.627C127.182 136.627 128.606 138.115 128.606 140.307V140.851H122.446C122.526 142.739 123.518 143.827 125.182 143.827C126.446 143.827 127.262 143.283 127.55 142.259H128.606C128.19 143.891 126.99 144.771 125.166 144.771ZM125.086 137.571C123.63 137.571 122.67 138.531 122.478 140.051H127.502C127.502 138.563 126.542 137.571 125.086 137.571ZM130.915 134.707C130.467 134.707 130.099 134.339 130.099 133.891C130.099 133.443 130.467 133.059 130.915 133.059C131.363 133.059 131.747 133.443 131.747 133.891C131.747 134.339 131.363 134.707 130.915 134.707ZM130.371 144.579V136.835H131.475V144.579H130.371ZM135.937 144.579L132.769 136.835H133.953L135.953 141.827C136.161 142.387 136.369 142.915 136.513 143.427C136.657 142.899 136.865 142.387 137.089 141.827L139.121 136.835H140.257L137.041 144.579H135.937ZM144.463 144.771C142.191 144.771 140.671 143.139 140.671 140.707C140.671 138.291 142.174 136.627 144.383 136.627C146.479 136.627 147.903 138.115 147.903 140.307V140.851H141.743C141.823 142.739 142.815 143.827 144.479 143.827C145.743 143.827 146.559 143.283 146.847 142.259H147.903C147.487 143.891 146.287 144.771 144.463 144.771ZM144.383 137.571C142.927 137.571 141.967 138.531 141.775 140.051H146.799C146.799 138.563 145.839 137.571 144.383 137.571ZM152.708 144.771C150.452 144.771 149.124 143.043 149.124 140.723C149.124 138.387 150.452 136.627 152.756 136.627C154.036 136.627 155.06 137.187 155.604 138.307V132.915H156.708V144.579H155.748L155.636 142.995C155.092 144.195 154.004 144.771 152.708 144.771ZM152.9 143.763C154.596 143.763 155.588 142.483 155.588 140.691C155.588 138.915 154.596 137.619 152.9 137.619C151.22 137.619 150.244 138.915 150.244 140.691C150.244 142.483 151.22 143.763 152.9 143.763ZM162.585 136.835H163.769V135.331C163.769 133.587 164.729 132.915 165.913 132.915C166.185 132.915 166.505 132.931 166.761 132.979V133.923H166.105C165.129 133.923 164.873 134.419 164.873 135.331V136.835H166.697V137.763H164.873V144.579H163.769V137.763H162.585V136.835ZM172.247 136.739V137.731H171.639C170.215 137.731 169.303 138.691 169.303 140.163V144.579H168.199V136.835H169.239L169.319 138.035C169.623 137.203 170.439 136.659 171.527 136.659C171.767 136.659 171.975 136.675 172.247 136.739ZM172.874 140.707C172.874 138.339 174.538 136.627 176.81 136.627C179.082 136.627 180.746 138.339 180.746 140.707C180.746 143.059 179.082 144.771 176.81 144.771C174.538 144.771 172.874 143.059 172.874 140.707ZM173.994 140.691C173.994 142.515 175.146 143.779 176.81 143.779C178.458 143.779 179.626 142.515 179.626 140.691C179.626 138.899 178.458 137.619 176.81 137.619C175.146 137.619 173.994 138.899 173.994 140.691ZM183.615 144.579H182.511V136.835H183.471L183.599 137.939C183.983 137.123 184.847 136.627 185.935 136.627C187.151 136.627 188.063 137.267 188.431 138.275C188.783 137.267 189.727 136.627 190.975 136.627C192.655 136.627 193.759 137.715 193.759 139.507V144.579H192.687V139.731C192.687 138.403 191.951 137.619 190.767 137.619C189.471 137.619 188.703 138.595 188.703 139.795V144.579H187.615V139.715C187.615 138.403 186.863 137.635 185.695 137.635C184.399 137.635 183.615 138.595 183.615 139.779V144.579ZM199.97 136.099C199.97 134.179 201.506 132.915 203.81 132.915C205.874 132.915 207.234 134.067 207.41 135.987H206.242C206.114 134.691 205.234 133.955 203.794 133.955C202.178 133.955 201.122 134.787 201.122 136.083C201.122 137.091 201.714 137.731 202.914 138.035L204.882 138.515C206.674 138.947 207.602 139.971 207.602 141.523C207.602 143.507 206.066 144.771 203.698 144.771C201.474 144.771 199.97 143.603 199.826 141.731H201.01C201.074 142.931 202.13 143.715 203.698 143.715C205.378 143.715 206.45 142.899 206.45 141.587C206.45 140.563 205.874 139.891 204.642 139.603L202.706 139.123C200.914 138.691 199.97 137.667 199.97 136.099ZM210.537 144.563H209.433V132.915H210.537V138.179C211.033 137.251 211.977 136.627 213.273 136.627C215.305 136.627 216.217 137.891 216.217 139.843V144.579H215.113V140.083C215.113 138.275 214.265 137.635 213.065 137.635C211.401 137.635 210.537 138.867 210.537 140.355V144.563ZM217.874 140.707C217.874 138.339 219.538 136.627 221.81 136.627C224.082 136.627 225.746 138.339 225.746 140.707C225.746 143.059 224.082 144.771 221.81 144.771C219.538 144.771 217.874 143.059 217.874 140.707ZM218.994 140.691C218.994 142.515 220.146 143.779 221.81 143.779C223.458 143.779 224.626 142.515 224.626 140.691C224.626 138.899 223.458 137.619 221.81 137.619C220.146 137.619 218.994 138.899 218.994 140.691ZM227.511 147.955V136.835H228.471L228.583 138.403C229.127 137.203 230.215 136.627 231.511 136.627C233.751 136.627 235.095 138.339 235.095 140.675C235.095 143.011 233.799 144.771 231.511 144.771C230.199 144.771 229.159 144.211 228.615 143.091V147.955H227.511ZM228.631 140.707C228.631 142.483 229.623 143.779 231.319 143.779C232.999 143.779 233.975 142.483 233.975 140.707C233.975 138.915 232.999 137.635 231.319 137.635C229.623 137.635 228.631 138.915 228.631 140.707ZM237.315 144.755C236.771 144.755 236.307 144.307 236.307 143.779C236.307 143.235 236.771 142.771 237.315 142.771C237.859 142.771 238.323 143.235 238.323 143.779C238.323 144.307 237.859 144.755 237.315 144.755ZM239.53 140.723C239.53 138.291 241.018 136.627 243.274 136.627C245.066 136.627 246.378 137.667 246.682 139.267H245.578C245.29 138.195 244.362 137.603 243.29 137.603C241.722 137.603 240.618 138.803 240.618 140.707C240.618 142.547 241.642 143.779 243.21 143.779C244.362 143.779 245.29 143.139 245.594 142.147H246.714C246.346 143.731 244.97 144.771 243.21 144.771C241.018 144.771 239.53 143.155 239.53 140.723ZM247.842 140.707C247.842 138.339 249.506 136.627 251.778 136.627C254.05 136.627 255.714 138.339 255.714 140.707C255.714 143.059 254.05 144.771 251.778 144.771C249.506 144.771 247.842 143.059 247.842 140.707ZM248.962 140.691C248.962 142.515 250.114 143.779 251.778 143.779C253.426 143.779 254.594 142.515 254.594 140.691C254.594 138.899 253.426 137.619 251.778 137.619C250.114 137.619 248.962 138.899 248.962 140.691ZM257.94 144.755C257.396 144.755 256.932 144.307 256.932 143.779C256.932 143.235 257.396 142.771 257.94 142.771C258.484 142.771 258.948 143.235 258.948 143.779C258.948 144.307 258.484 144.755 257.94 144.755ZM271.701 139.539H267.013V144.579H265.861V133.123H272.613V134.179H267.013V138.499H271.701V139.539ZM277.872 136.739V137.731H277.264C275.84 137.731 274.928 138.691 274.928 140.163V144.579H273.824V136.835H274.864L274.944 138.035C275.248 137.203 276.064 136.659 277.152 136.659C277.392 136.659 277.6 136.675 277.872 136.739ZM278.499 140.707C278.499 138.339 280.163 136.627 282.435 136.627C284.707 136.627 286.371 138.339 286.371 140.707C286.371 143.059 284.707 144.771 282.435 144.771C280.163 144.771 278.499 143.059 278.499 140.707ZM279.619 140.691C279.619 142.515 280.771 143.779 282.435 143.779C284.083 143.779 285.251 142.515 285.251 140.691C285.251 138.899 284.083 137.619 282.435 137.619C280.771 137.619 279.619 138.899 279.619 140.691ZM289.24 144.579H288.136V136.835H289.096L289.224 137.939C289.608 137.123 290.472 136.627 291.56 136.627C292.776 136.627 293.688 137.267 294.056 138.275C294.408 137.267 295.352 136.627 296.6 136.627C298.28 136.627 299.384 137.715 299.384 139.507V144.579H298.312V139.731C298.312 138.403 297.576 137.619 296.392 137.619C295.096 137.619 294.328 138.595 294.328 139.795V144.579H293.24V139.715C293.24 138.403 292.488 137.635 291.32 137.635C290.024 137.635 289.24 138.595 289.24 139.779V144.579ZM305.499 140.723C305.499 138.291 306.987 136.627 309.243 136.627C311.035 136.627 312.347 137.667 312.651 139.267H311.547C311.259 138.195 310.331 137.603 309.259 137.603C307.691 137.603 306.587 138.803 306.587 140.707C306.587 142.547 307.611 143.779 309.179 143.779C310.331 143.779 311.259 143.139 311.563 142.147H312.683C312.315 143.731 310.939 144.771 309.179 144.771C306.987 144.771 305.499 143.155 305.499 140.723ZM316.579 144.771C314.931 144.771 313.955 143.843 313.955 142.483C313.955 141.059 315.043 140.163 316.851 140.019L319.411 139.811V139.555C319.411 138.035 318.499 137.555 317.363 137.555C316.019 137.555 315.219 138.163 315.219 139.203H314.211C314.211 137.635 315.491 136.627 317.395 136.627C319.187 136.627 320.499 137.523 320.499 139.571V144.579H319.571L319.427 143.219C318.947 144.195 317.891 144.771 316.579 144.771ZM316.835 143.875C318.467 143.875 319.411 142.739 319.411 141.059V140.643L317.123 140.819C315.667 140.947 315.075 141.587 315.075 142.451C315.075 143.395 315.779 143.875 316.835 143.875ZM322.059 142.403H323.115C323.115 143.299 323.787 143.859 324.875 143.859C326.075 143.859 326.779 143.347 326.779 142.515C326.779 141.875 326.459 141.507 325.547 141.283L324.219 140.947C322.875 140.611 322.219 139.907 322.219 138.851C322.219 137.491 323.355 136.627 325.019 136.627C326.651 136.627 327.707 137.523 327.755 138.963H326.683C326.651 138.067 326.027 137.539 324.987 137.539C323.899 137.539 323.291 138.003 323.291 138.835C323.291 139.427 323.707 139.843 324.555 140.051L325.883 140.387C327.227 140.723 327.835 141.347 327.835 142.467C327.835 143.859 326.651 144.771 324.891 144.771C323.147 144.771 322.059 143.843 322.059 142.403ZM335.092 136.835H336.196V144.579H335.236L335.092 143.267C334.66 144.163 333.588 144.771 332.372 144.771C330.548 144.771 329.556 143.523 329.556 141.635V136.819H330.676V141.283C330.676 143.123 331.492 143.779 332.724 143.779C334.212 143.779 335.092 142.787 335.092 140.947V136.835ZM340.72 144.771C339.072 144.771 338.096 143.843 338.096 142.483C338.096 141.059 339.184 140.163 340.992 140.019L343.552 139.811V139.555C343.552 138.035 342.64 137.555 341.504 137.555C340.16 137.555 339.36 138.163 339.36 139.203H338.352C338.352 137.635 339.632 136.627 341.536 136.627C343.328 136.627 344.64 137.523 344.64 139.571V144.579H343.712L343.568 143.219C343.088 144.195 342.032 144.771 340.72 144.771ZM340.976 143.875C342.608 143.875 343.552 142.739 343.552 141.059V140.643L341.264 140.819C339.808 140.947 339.216 141.587 339.216 142.451C339.216 143.395 339.92 143.875 340.976 143.875ZM348.007 144.579H346.903V132.915H348.007V144.579ZM38.784 166.579L36.224 158.835H37.36L38.88 163.507C39.056 164.019 39.2 164.547 39.36 165.171C39.488 164.547 39.744 163.763 39.824 163.507L41.36 158.835H42.496L44.016 163.507C44.16 163.923 44.352 164.595 44.496 165.171C44.656 164.531 44.688 164.339 44.96 163.507L46.496 158.835H47.648L45.024 166.579H43.952L42.352 161.715C42.16 161.139 42.032 160.659 41.936 160.195C41.824 160.611 41.696 161.075 41.488 161.715L39.888 166.579H38.784ZM51.9313 166.771C49.6593 166.771 48.1393 165.139 48.1393 162.707C48.1393 160.291 49.6432 158.627 51.8513 158.627C53.9473 158.627 55.3713 160.115 55.3713 162.307V162.851H49.2113C49.2913 164.739 50.2833 165.827 51.9473 165.827C53.2113 165.827 54.0273 165.283 54.3153 164.259H55.3713C54.9553 165.891 53.7553 166.771 51.9313 166.771ZM51.8513 159.571C50.3953 159.571 49.4353 160.531 49.2433 162.051H54.2673C54.2673 160.563 53.3073 159.571 51.8513 159.571ZM59.2823 166.771C57.6343 166.771 56.6583 165.843 56.6583 164.483C56.6583 163.059 57.7463 162.163 59.5543 162.019L62.1143 161.811V161.555C62.1143 160.035 61.2023 159.555 60.0663 159.555C58.7223 159.555 57.9223 160.163 57.9223 161.203H56.9143C56.9143 159.635 58.1943 158.627 60.0983 158.627C61.8903 158.627 63.2023 159.523 63.2023 161.571V166.579H62.2743L62.1303 165.219C61.6503 166.195 60.5943 166.771 59.2823 166.771ZM59.5383 165.875C61.1703 165.875 62.1143 164.739 62.1143 163.059V162.643L59.8263 162.819C58.3703 162.947 57.7783 163.587 57.7783 164.451C57.7783 165.395 58.4823 165.875 59.5383 165.875ZM69.4656 158.739V159.731H68.8576C67.4336 159.731 66.5216 160.691 66.5216 162.163V166.579H65.4176V158.835H66.4576L66.5376 160.035C66.8416 159.203 67.6576 158.659 68.7456 158.659C68.9856 158.659 69.1936 158.675 69.4656 158.739ZM77.1468 166.579H76.0588V159.763H74.5068V158.835H76.0588V156.387H77.1468V158.835H78.6988V159.763H77.1468V166.579ZM79.5143 162.707C79.5143 160.339 81.1783 158.627 83.4503 158.627C85.7223 158.627 87.3863 160.339 87.3863 162.707C87.3863 165.059 85.7223 166.771 83.4503 166.771C81.1783 166.771 79.5143 165.059 79.5143 162.707ZM80.6343 162.691C80.6343 164.515 81.7863 165.779 83.4503 165.779C85.0983 165.779 86.2663 164.515 86.2663 162.691C86.2663 160.899 85.0983 159.619 83.4503 159.619C81.7863 159.619 80.6343 160.899 80.6343 162.691ZM96.8375 166.771C94.5655 166.771 93.0455 165.139 93.0455 162.707C93.0455 160.291 94.5495 158.627 96.7575 158.627C98.8535 158.627 100.278 160.115 100.278 162.307V162.851H94.1175C94.1975 164.739 95.1895 165.827 96.8535 165.827C98.1175 165.827 98.9335 165.283 99.2215 164.259H100.278C99.8615 165.891 98.6615 166.771 96.8375 166.771ZM96.7575 159.571C95.3015 159.571 94.3415 160.531 94.1495 162.051H99.1735C99.1735 160.563 98.2135 159.571 96.7575 159.571ZM103.195 166.579H102.091V154.915H103.195V166.579ZM108.791 166.771C106.519 166.771 104.999 165.139 104.999 162.707C104.999 160.291 106.503 158.627 108.711 158.627C110.807 158.627 112.231 160.115 112.231 162.307V162.851H106.071C106.151 164.739 107.143 165.827 108.807 165.827C110.071 165.827 110.887 165.283 111.175 164.259H112.231C111.815 165.891 110.615 166.771 108.791 166.771ZM108.711 159.571C107.255 159.571 106.295 160.531 106.103 162.051H111.127C111.127 160.563 110.167 159.571 108.711 159.571ZM113.468 162.483C113.468 160.371 114.828 158.627 117.1 158.627C118.444 158.627 119.468 159.251 119.964 160.387L120.076 158.835H121.036V166.339C121.036 168.643 119.564 170.147 117.292 170.147C115.308 170.147 113.916 169.027 113.612 167.155H114.716C114.956 168.403 115.916 169.139 117.308 169.139C118.892 169.139 119.948 168.067 119.948 166.451V164.611C119.42 165.699 118.348 166.339 117.02 166.339C114.812 166.339 113.468 164.595 113.468 162.483ZM114.572 162.467C114.572 164.051 115.548 165.347 117.18 165.347C118.86 165.347 119.852 164.131 119.852 162.467C119.852 160.819 118.892 159.603 117.196 159.603C115.532 159.603 114.572 160.899 114.572 162.467ZM125.564 166.771C123.916 166.771 122.94 165.843 122.94 164.483C122.94 163.059 124.028 162.163 125.836 162.019L128.396 161.811V161.555C128.396 160.035 127.484 159.555 126.348 159.555C125.004 159.555 124.204 160.163 124.204 161.203H123.196C123.196 159.635 124.476 158.627 126.38 158.627C128.172 158.627 129.484 159.523 129.484 161.571V166.579H128.556L128.412 165.219C127.932 166.195 126.876 166.771 125.564 166.771ZM125.82 165.875C127.452 165.875 128.396 164.739 128.396 163.059V162.643L126.108 162.819C124.652 162.947 124.06 163.587 124.06 164.451C124.06 165.395 124.764 165.875 125.82 165.875ZM132.803 166.579H131.699V158.835H132.659L132.819 160.179C133.331 159.187 134.355 158.627 135.475 158.627C137.603 158.627 138.483 159.891 138.483 161.843V166.579H137.379V162.083C137.379 160.275 136.563 159.635 135.283 159.635C133.699 159.635 132.803 160.787 132.803 162.531V166.579ZM142.459 166.579H141.371V159.763H139.819V158.835H141.371V156.387H142.459V158.835H144.011V159.763H142.459V166.579ZM152.926 166.771C150.67 166.771 149.342 165.043 149.342 162.723C149.342 160.387 150.67 158.627 152.974 158.627C154.254 158.627 155.278 159.187 155.822 160.307V154.915H156.926V166.579H155.966L155.854 164.995C155.31 166.195 154.222 166.771 152.926 166.771ZM153.118 165.763C154.814 165.763 155.806 164.483 155.806 162.691C155.806 160.915 154.814 159.619 153.118 159.619C151.438 159.619 150.462 160.915 150.462 162.691C150.462 164.483 151.438 165.763 153.118 165.763ZM163.278 158.739V159.731H162.67C161.246 159.731 160.334 160.691 160.334 162.163V166.579H159.23V158.835H160.27L160.35 160.035C160.654 159.203 161.47 158.659 162.558 158.659C162.798 158.659 163.006 158.675 163.278 158.739ZM167.697 166.771C165.425 166.771 163.905 165.139 163.905 162.707C163.905 160.291 165.409 158.627 167.617 158.627C169.713 158.627 171.137 160.115 171.137 162.307V162.851H164.977C165.057 164.739 166.049 165.827 167.713 165.827C168.977 165.827 169.793 165.283 170.081 164.259H171.137C170.721 165.891 169.521 166.771 167.697 166.771ZM167.617 159.571C166.161 159.571 165.201 160.531 165.009 162.051H170.033C170.033 160.563 169.073 159.571 167.617 159.571ZM172.246 164.403H173.302C173.302 165.299 173.974 165.859 175.062 165.859C176.262 165.859 176.966 165.347 176.966 164.515C176.966 163.875 176.646 163.507 175.734 163.283L174.406 162.947C173.062 162.611 172.406 161.907 172.406 160.851C172.406 159.491 173.542 158.627 175.206 158.627C176.838 158.627 177.894 159.523 177.942 160.963H176.87C176.838 160.067 176.214 159.539 175.174 159.539C174.086 159.539 173.478 160.003 173.478 160.835C173.478 161.427 173.894 161.843 174.742 162.051L176.07 162.387C177.414 162.723 178.022 163.347 178.022 164.467C178.022 165.859 176.838 166.771 175.078 166.771C173.334 166.771 172.246 165.843 172.246 164.403ZM179.184 164.403H180.24C180.24 165.299 180.912 165.859 182 165.859C183.2 165.859 183.904 165.347 183.904 164.515C183.904 163.875 183.584 163.507 182.672 163.283L181.344 162.947C180 162.611 179.344 161.907 179.344 160.851C179.344 159.491 180.48 158.627 182.144 158.627C183.776 158.627 184.832 159.523 184.88 160.963H183.808C183.776 160.067 183.152 159.539 182.112 159.539C181.024 159.539 180.416 160.003 180.416 160.835C180.416 161.427 180.832 161.843 181.68 162.051L183.008 162.387C184.352 162.723 184.96 163.347 184.96 164.467C184.96 165.859 183.776 166.771 182.016 166.771C180.272 166.771 179.184 165.843 179.184 164.403ZM190.025 166.771C187.753 166.771 186.233 165.139 186.233 162.707C186.233 160.291 187.737 158.627 189.945 158.627C192.041 158.627 193.465 160.115 193.465 162.307V162.851H187.305C187.385 164.739 188.377 165.827 190.041 165.827C191.305 165.827 192.121 165.283 192.409 164.259H193.465C193.049 165.891 191.849 166.771 190.025 166.771ZM189.945 159.571C188.489 159.571 187.529 160.531 187.337 162.051H192.361C192.361 160.563 191.401 159.571 189.945 159.571ZM194.574 164.403H195.63C195.63 165.299 196.302 165.859 197.39 165.859C198.59 165.859 199.294 165.347 199.294 164.515C199.294 163.875 198.974 163.507 198.062 163.283L196.734 162.947C195.39 162.611 194.734 161.907 194.734 160.851C194.734 159.491 195.87 158.627 197.534 158.627C199.166 158.627 200.222 159.523 200.27 160.963H199.198C199.166 160.067 198.542 159.539 197.502 159.539C196.414 159.539 195.806 160.003 195.806 160.835C195.806 161.427 196.222 161.843 197.07 162.051L198.398 162.387C199.742 162.723 200.35 163.347 200.35 164.467C200.35 165.859 199.166 166.771 197.406 166.771C195.662 166.771 194.574 165.843 194.574 164.403ZM203.995 166.035C203.995 167.027 203.227 167.891 202.235 168.035V167.443C202.811 167.347 203.227 166.931 203.227 166.483C203.131 166.547 203.003 166.595 202.811 166.595C202.363 166.595 201.979 166.275 201.979 165.731C201.979 165.171 202.363 164.771 202.923 164.771C203.499 164.771 203.995 165.235 203.995 166.035ZM213.916 166.771C211.644 166.771 210.124 165.139 210.124 162.707C210.124 160.291 211.628 158.627 213.836 158.627C215.932 158.627 217.356 160.115 217.356 162.307V162.851H211.196C211.276 164.739 212.268 165.827 213.932 165.827C215.196 165.827 216.012 165.283 216.3 164.259H217.356C216.94 165.891 215.74 166.771 213.916 166.771ZM213.836 159.571C212.38 159.571 211.42 160.531 211.228 162.051H216.252C216.252 160.563 215.292 159.571 213.836 159.571ZM221.078 166.579L217.91 158.835H219.094L221.094 163.827C221.302 164.387 221.51 164.915 221.654 165.427C221.798 164.899 222.006 164.387 222.23 163.827L224.262 158.835H225.398L222.182 166.579H221.078ZM229.603 166.771C227.331 166.771 225.811 165.139 225.811 162.707C225.811 160.291 227.315 158.627 229.523 158.627C231.619 158.627 233.043 160.115 233.043 162.307V162.851H226.883C226.963 164.739 227.955 165.827 229.619 165.827C230.883 165.827 231.699 165.283 231.987 164.259H233.043C232.627 165.891 231.427 166.771 229.603 166.771ZM229.523 159.571C228.067 159.571 227.107 160.531 226.915 162.051H231.939C231.939 160.563 230.979 159.571 229.523 159.571ZM238.856 158.739V159.731H238.248C236.824 159.731 235.912 160.691 235.912 162.163V166.579H234.808V158.835H235.848L235.928 160.035C236.232 159.203 237.048 158.659 238.136 158.659C238.376 158.659 238.584 158.675 238.856 158.739ZM239.774 169.955V169.043H240.622C241.294 169.043 241.966 168.995 242.35 167.955L242.686 167.043L239.55 158.835H240.718L243.214 165.587L245.662 158.835H246.798L243.246 168.355C242.798 169.571 242.046 170.067 240.942 170.067C240.478 170.067 240.126 170.035 239.774 169.955ZM252.527 169.955V158.835H253.487L253.599 160.403C254.143 159.203 255.231 158.627 256.527 158.627C258.767 158.627 260.111 160.339 260.111 162.675C260.111 165.011 258.815 166.771 256.527 166.771C255.215 166.771 254.175 166.211 253.631 165.091V169.955H252.527ZM253.647 162.707C253.647 164.483 254.639 165.779 256.335 165.779C258.015 165.779 258.991 164.483 258.991 162.707C258.991 160.915 258.015 159.635 256.335 159.635C254.639 159.635 253.647 160.915 253.647 162.707ZM262.415 156.707C261.967 156.707 261.599 156.339 261.599 155.891C261.599 155.443 261.967 155.059 262.415 155.059C262.863 155.059 263.247 155.443 263.247 155.891C263.247 156.339 262.863 156.707 262.415 156.707ZM261.871 166.579V158.835H262.975V166.579H261.871ZM268.525 166.771C266.253 166.771 264.733 165.139 264.733 162.707C264.733 160.291 266.237 158.627 268.445 158.627C270.541 158.627 271.965 160.115 271.965 162.307V162.851H265.805C265.885 164.739 266.877 165.827 268.541 165.827C269.805 165.827 270.621 165.283 270.909 164.259H271.965C271.549 165.891 270.349 166.771 268.525 166.771ZM268.445 159.571C266.989 159.571 266.029 160.531 265.837 162.051H270.861C270.861 160.563 269.901 159.571 268.445 159.571ZM273.186 162.723C273.186 160.291 274.674 158.627 276.93 158.627C278.722 158.627 280.034 159.667 280.338 161.267H279.234C278.946 160.195 278.018 159.603 276.946 159.603C275.378 159.603 274.274 160.803 274.274 162.707C274.274 164.547 275.298 165.779 276.866 165.779C278.018 165.779 278.946 165.139 279.25 164.147H280.37C280.002 165.731 278.626 166.771 276.866 166.771C274.674 166.771 273.186 165.155 273.186 162.723ZM285.291 166.771C283.019 166.771 281.499 165.139 281.499 162.707C281.499 160.291 283.003 158.627 285.211 158.627C287.307 158.627 288.731 160.115 288.731 162.307V162.851H282.571C282.651 164.739 283.643 165.827 285.307 165.827C286.571 165.827 287.387 165.283 287.675 164.259H288.731C288.315 165.891 287.115 166.771 285.291 166.771ZM285.211 159.571C283.755 159.571 282.795 160.531 282.603 162.051H287.627C287.627 160.563 286.667 159.571 285.211 159.571ZM296.325 155.123V166.579H295.173V155.123H296.325ZM299.799 155.907L299.495 159.091H298.775L298.455 155.907C298.391 155.347 298.791 155.091 299.143 155.091C299.479 155.091 299.863 155.347 299.799 155.907ZM303.843 166.579L300.675 158.835H301.859L303.859 163.827C304.067 164.387 304.275 164.915 304.419 165.427C304.563 164.899 304.771 164.387 304.995 163.827L307.027 158.835H308.163L304.947 166.579H303.843ZM312.369 166.771C310.097 166.771 308.577 165.139 308.577 162.707C308.577 160.291 310.081 158.627 312.289 158.627C314.385 158.627 315.809 160.115 315.809 162.307V162.851H309.649C309.729 164.739 310.721 165.827 312.385 165.827C313.649 165.827 314.465 165.283 314.753 164.259H315.809C315.393 165.891 314.193 166.771 312.369 166.771ZM312.289 159.571C310.833 159.571 309.873 160.531 309.681 162.051H314.705C314.705 160.563 313.745 159.571 312.289 159.571ZM322.971 166.579H322.011V154.915H323.115V160.339C323.659 159.203 324.715 158.627 326.027 158.627C328.283 158.627 329.595 160.387 329.595 162.723C329.595 165.043 328.251 166.771 325.995 166.771C324.699 166.771 323.627 166.195 323.083 164.995L322.971 166.579ZM323.131 162.691C323.131 164.483 324.123 165.763 325.819 165.763C327.499 165.763 328.475 164.483 328.475 162.691C328.475 160.915 327.499 159.619 325.819 159.619C324.123 159.619 323.131 160.915 323.131 162.691ZM330.811 162.707C330.811 160.339 332.475 158.627 334.747 158.627C337.019 158.627 338.683 160.339 338.683 162.707C338.683 165.059 337.019 166.771 334.747 166.771C332.475 166.771 330.811 165.059 330.811 162.707ZM331.931 162.691C331.931 164.515 333.083 165.779 334.747 165.779C336.395 165.779 337.563 164.515 337.563 162.691C337.563 160.899 336.395 159.619 334.747 159.619C333.083 159.619 331.931 160.899 331.931 162.691ZM345.701 158.835H346.805V166.579H345.845L345.701 165.267C345.269 166.163 344.197 166.771 342.981 166.771C341.157 166.771 340.165 165.523 340.165 163.635V158.819H341.285V163.283C341.285 165.123 342.101 165.779 343.333 165.779C344.821 165.779 345.701 164.787 345.701 162.947V158.835ZM348.577 162.483C348.577 160.371 349.937 158.627 352.209 158.627C353.553 158.627 354.577 159.251 355.073 160.387L355.185 158.835H356.145V166.339C356.145 168.643 354.673 170.147 352.401 170.147C350.417 170.147 349.025 169.027 348.721 167.155H349.825C350.065 168.403 351.025 169.139 352.417 169.139C354.001 169.139 355.057 168.067 355.057 166.451V164.611C354.529 165.699 353.457 166.339 352.129 166.339C349.921 166.339 348.577 164.595 348.577 162.483ZM349.681 162.467C349.681 164.051 350.657 165.347 352.289 165.347C353.969 165.347 354.961 164.131 354.961 162.467C354.961 160.819 354.001 159.603 352.305 159.603C350.641 159.603 349.681 160.899 349.681 162.467ZM359.553 166.563H358.449V154.915H359.553V160.179C360.049 159.251 360.993 158.627 362.289 158.627C364.321 158.627 365.233 159.891 365.233 161.843V166.579H364.129V162.083C364.129 160.275 363.281 159.635 362.081 159.635C360.417 159.635 359.553 160.867 359.553 162.355V166.563ZM369.209 166.579H368.121V159.763H366.569V158.835H368.121V156.387H369.209V158.835H370.761V159.763H369.209V166.579ZM38.256 188.563H37.152V176.915H38.256V182.179C38.752 181.251 39.696 180.627 40.992 180.627C43.024 180.627 43.936 181.891 43.936 183.843V188.579H42.832V184.083C42.832 182.275 41.984 181.635 40.784 181.635C39.12 181.635 38.256 182.867 38.256 184.355V188.563ZM48.3604 188.771C46.7124 188.771 45.7364 187.843 45.7364 186.483C45.7364 185.059 46.8244 184.163 48.6324 184.019L51.1924 183.811V183.555C51.1924 182.035 50.2804 181.555 49.1444 181.555C47.8004 181.555 47.0004 182.163 47.0004 183.203H45.9924C45.9924 181.635 47.2724 180.627 49.1764 180.627C50.9684 180.627 52.2804 181.523 52.2804 183.571V188.579H51.3524L51.2084 187.219C50.7284 188.195 49.6724 188.771 48.3604 188.771ZM48.6164 187.875C50.2484 187.875 51.1924 186.739 51.1924 185.059V184.643L48.9044 184.819C47.4484 184.947 46.8564 185.587 46.8564 186.451C46.8564 187.395 47.5604 187.875 48.6164 187.875ZM53.8398 186.403H54.8958C54.8958 187.299 55.5678 187.859 56.6558 187.859C57.8558 187.859 58.5598 187.347 58.5598 186.515C58.5598 185.875 58.2398 185.507 57.3278 185.283L55.9998 184.947C54.6558 184.611 53.9998 183.907 53.9998 182.851C53.9998 181.491 55.1358 180.627 56.7998 180.627C58.4318 180.627 59.4878 181.523 59.5358 182.963H58.4638C58.4318 182.067 57.8078 181.539 56.7678 181.539C55.6798 181.539 55.0718 182.003 55.0718 182.835C55.0718 183.427 55.4878 183.843 56.3358 184.051L57.6638 184.387C59.0078 184.723 59.6158 185.347 59.6158 186.467C59.6158 187.859 58.4318 188.771 56.6718 188.771C54.9278 188.771 53.8398 187.843 53.8398 186.403ZM69.1188 188.771C66.8468 188.771 65.3268 187.139 65.3268 184.707C65.3268 182.291 66.8307 180.627 69.0388 180.627C71.1348 180.627 72.5588 182.115 72.5588 184.307V184.851H66.3988C66.4788 186.739 67.4708 187.827 69.1348 187.827C70.3988 187.827 71.2148 187.283 71.5028 186.259H72.5588C72.1428 187.891 70.9428 188.771 69.1188 188.771ZM69.0388 181.571C67.5828 181.571 66.6228 182.531 66.4308 184.051H71.4548C71.4548 182.563 70.4948 181.571 69.0388 181.571ZM74.3623 188.579H73.0663L75.8343 184.707L73.0823 180.835H74.3783L76.5703 183.939L78.7463 180.835H80.0263L77.2743 184.723L80.0103 188.579H78.6983L76.5223 185.475L74.3623 188.579ZM80.5299 184.723C80.5299 182.291 82.0179 180.627 84.2739 180.627C86.0659 180.627 87.3779 181.667 87.6819 183.267H86.5779C86.2899 182.195 85.3619 181.603 84.2899 181.603C82.7219 181.603 81.6179 182.803 81.6179 184.707C81.6179 186.547 82.6419 187.779 84.2099 187.779C85.3619 187.779 86.2899 187.139 86.5939 186.147H87.7139C87.3459 187.731 85.9699 188.771 84.2099 188.771C82.0179 188.771 80.5299 187.155 80.5299 184.723ZM92.6344 188.771C90.3624 188.771 88.8424 187.139 88.8424 184.707C88.8424 182.291 90.3464 180.627 92.5544 180.627C94.6504 180.627 96.0744 182.115 96.0744 184.307V184.851H89.9144C89.9944 186.739 90.9864 187.827 92.6504 187.827C93.9144 187.827 94.7304 187.283 95.0184 186.259H96.0744C95.6584 187.891 94.4584 188.771 92.6344 188.771ZM92.5544 181.571C91.0984 181.571 90.1384 182.531 89.9464 184.051H94.9704C94.9704 182.563 94.0104 181.571 92.5544 181.571ZM101.088 188.771C98.8155 188.771 97.2955 187.139 97.2955 184.707C97.2955 182.291 98.7995 180.627 101.008 180.627C103.104 180.627 104.528 182.115 104.528 184.307V184.851H98.3675C98.4475 186.739 99.4395 187.827 101.104 187.827C102.368 187.827 103.184 187.283 103.472 186.259H104.528C104.112 187.891 102.912 188.771 101.088 188.771ZM101.008 181.571C99.5515 181.571 98.5915 182.531 98.3995 184.051H103.424C103.424 182.563 102.464 181.571 101.008 181.571ZM109.333 188.771C107.077 188.771 105.749 187.043 105.749 184.723C105.749 182.387 107.077 180.627 109.381 180.627C110.661 180.627 111.685 181.187 112.229 182.307V176.915H113.333V188.579H112.373L112.261 186.995C111.717 188.195 110.629 188.771 109.333 188.771ZM109.525 187.763C111.221 187.763 112.213 186.483 112.213 184.691C112.213 182.915 111.221 181.619 109.525 181.619C107.845 181.619 106.869 182.915 106.869 184.691C106.869 186.483 107.845 187.763 109.525 187.763ZM118.884 188.771C116.612 188.771 115.092 187.139 115.092 184.707C115.092 182.291 116.596 180.627 118.804 180.627C120.9 180.627 122.324 182.115 122.324 184.307V184.851H116.164C116.244 186.739 117.236 187.827 118.9 187.827C120.164 187.827 120.98 187.283 121.268 186.259H122.324C121.908 187.891 120.708 188.771 118.884 188.771ZM118.804 181.571C117.348 181.571 116.388 182.531 116.196 184.051H121.22C121.22 182.563 120.26 181.571 118.804 181.571ZM127.13 188.771C124.874 188.771 123.546 187.043 123.546 184.723C123.546 182.387 124.874 180.627 127.178 180.627C128.458 180.627 129.482 181.187 130.026 182.307V176.915H131.13V188.579H130.17L130.058 186.995C129.514 188.195 128.426 188.771 127.13 188.771ZM127.322 187.763C129.018 187.763 130.01 186.483 130.01 184.691C130.01 182.915 129.018 181.619 127.322 181.619C125.642 181.619 124.666 182.915 124.666 184.691C124.666 186.483 125.642 187.763 127.322 187.763ZM138.975 188.579H137.871V180.835H138.831L138.959 181.939C139.343 181.123 140.207 180.627 141.295 180.627C142.511 180.627 143.423 181.267 143.791 182.275C144.143 181.267 145.087 180.627 146.335 180.627C148.015 180.627 149.119 181.715 149.119 183.507V188.579H148.047V183.731C148.047 182.403 147.311 181.619 146.127 181.619C144.831 181.619 144.063 182.595 144.063 183.795V188.579H142.975V183.715C142.975 182.403 142.223 181.635 141.055 181.635C139.759 181.635 138.975 182.595 138.975 183.779V188.579ZM150.399 191.955V191.043H151.247C151.919 191.043 152.591 190.995 152.975 189.955L153.311 189.043L150.175 180.835H151.343L153.839 187.587L156.287 180.835H157.423L153.871 190.355C153.423 191.571 152.671 192.067 151.567 192.067C151.103 192.067 150.751 192.035 150.399 191.955ZM166.4 188.771C164.128 188.771 162.608 187.139 162.608 184.707C162.608 182.291 164.112 180.627 166.32 180.627C168.416 180.627 169.84 182.115 169.84 184.307V184.851H163.68C163.76 186.739 164.752 187.827 166.416 187.827C167.68 187.827 168.496 187.283 168.784 186.259H169.84C169.424 187.891 168.224 188.771 166.4 188.771ZM166.32 181.571C164.864 181.571 163.904 182.531 163.712 184.051H168.736C168.736 182.563 167.776 181.571 166.32 181.571ZM171.644 188.579H170.348L173.116 184.707L170.364 180.835H171.66L173.852 183.939L176.028 180.835H177.308L174.556 184.723L177.292 188.579H175.98L173.804 185.475L171.644 188.579ZM178.621 191.955V180.835H179.581L179.693 182.403C180.237 181.203 181.325 180.627 182.621 180.627C184.861 180.627 186.205 182.339 186.205 184.675C186.205 187.011 184.909 188.771 182.621 188.771C181.309 188.771 180.269 188.211 179.725 187.091V191.955H178.621ZM179.741 184.707C179.741 186.483 180.733 187.779 182.429 187.779C184.109 187.779 185.085 186.483 185.085 184.707C185.085 182.915 184.109 181.635 182.429 181.635C180.733 181.635 179.741 182.915 179.741 184.707ZM191.213 188.771C188.941 188.771 187.421 187.139 187.421 184.707C187.421 182.291 188.924 180.627 191.133 180.627C193.229 180.627 194.653 182.115 194.653 184.307V184.851H188.493C188.573 186.739 189.565 187.827 191.229 187.827C192.493 187.827 193.309 187.283 193.597 186.259H194.653C194.237 187.891 193.037 188.771 191.213 188.771ZM191.133 181.571C189.677 181.571 188.717 182.531 188.525 184.051H193.549C193.549 182.563 192.589 181.571 191.133 181.571ZM195.874 184.723C195.874 182.291 197.362 180.627 199.618 180.627C201.41 180.627 202.722 181.667 203.026 183.267H201.922C201.634 182.195 200.706 181.603 199.634 181.603C198.066 181.603 196.962 182.803 196.962 184.707C196.962 186.547 197.986 187.779 199.554 187.779C200.706 187.779 201.634 187.139 201.938 186.147H203.058C202.69 187.731 201.314 188.771 199.554 188.771C197.362 188.771 195.874 187.155 195.874 184.723ZM206.506 188.579H205.418V181.763H203.866V180.835H205.418V178.387H206.506V180.835H208.058V181.763H206.506V188.579ZM211.595 188.771C209.947 188.771 208.971 187.843 208.971 186.483C208.971 185.059 210.059 184.163 211.867 184.019L214.427 183.811V183.555C214.427 182.035 213.515 181.555 212.379 181.555C211.035 181.555 210.235 182.163 210.235 183.203H209.227C209.227 181.635 210.507 180.627 212.411 180.627C214.203 180.627 215.515 181.523 215.515 183.571V188.579H214.587L214.443 187.219C213.963 188.195 212.907 188.771 211.595 188.771ZM211.851 187.875C213.483 187.875 214.427 186.739 214.427 185.059V184.643L212.139 184.819C210.683 184.947 210.091 185.587 210.091 186.451C210.091 187.395 210.795 187.875 211.851 187.875ZM219.366 188.579H218.278V181.763H216.726V180.835H218.278V178.387H219.366V180.835H220.918V181.763H219.366V188.579ZM222.899 178.707C222.451 178.707 222.083 178.339 222.083 177.891C222.083 177.443 222.451 177.059 222.899 177.059C223.347 177.059 223.731 177.443 223.731 177.891C223.731 178.339 223.347 178.707 222.899 178.707ZM222.355 188.579V180.835H223.459V188.579H222.355ZM225.217 184.707C225.217 182.339 226.881 180.627 229.153 180.627C231.425 180.627 233.089 182.339 233.089 184.707C233.089 187.059 231.425 188.771 229.153 188.771C226.881 188.771 225.217 187.059 225.217 184.707ZM226.337 184.691C226.337 186.515 227.489 187.779 229.153 187.779C230.801 187.779 231.969 186.515 231.969 184.691C231.969 182.899 230.801 181.619 229.153 181.619C227.489 181.619 226.337 182.899 226.337 184.691ZM235.959 188.579H234.855V180.835H235.815L235.975 182.179C236.487 181.187 237.511 180.627 238.631 180.627C240.759 180.627 241.639 181.891 241.639 183.843V188.579H240.535V184.083C240.535 182.275 239.719 181.635 238.439 181.635C236.855 181.635 235.959 182.787 235.959 184.531V188.579ZM243.09 186.403H244.146C244.146 187.299 244.818 187.859 245.906 187.859C247.106 187.859 247.81 187.347 247.81 186.515C247.81 185.875 247.49 185.507 246.578 185.283L245.25 184.947C243.906 184.611 243.25 183.907 243.25 182.851C243.25 181.491 244.386 180.627 246.05 180.627C247.682 180.627 248.738 181.523 248.786 182.963H247.714C247.682 182.067 247.058 181.539 246.018 181.539C244.93 181.539 244.322 182.003 244.322 182.835C244.322 183.427 244.738 183.843 245.586 184.051L246.914 184.387C248.258 184.723 248.866 185.347 248.866 186.467C248.866 187.859 247.682 188.771 245.922 188.771C244.178 188.771 243.09 187.843 243.09 186.403ZM251.502 188.755C250.958 188.755 250.494 188.307 250.494 187.779C250.494 187.235 250.958 186.771 251.502 186.771C252.046 186.771 252.51 187.235 252.51 187.779C252.51 188.307 252.046 188.755 251.502 188.755ZM255.194 178.147C255.194 179.155 254.458 180.003 253.466 180.147V179.555C254.026 179.443 254.442 179.043 254.442 178.595C254.346 178.659 254.202 178.691 254.01 178.691C253.594 178.691 253.226 178.387 253.226 177.843C253.226 177.299 253.61 176.899 254.17 176.899C254.714 176.899 255.194 177.363 255.194 178.147ZM257.786 178.147C257.786 179.155 257.034 180.003 256.058 180.147V179.555C256.618 179.443 257.034 179.043 257.034 178.579C256.938 178.643 256.81 178.691 256.602 178.691C256.186 178.691 255.802 178.387 255.802 177.843C255.802 177.299 256.186 176.899 256.746 176.899C257.306 176.899 257.786 177.363 257.786 178.147Z" fill="black" fill-opacity="0.6"/>
</g>
<defs>
<filter id="filter0_f_24_825" x="0" y="0" width="408" height="248" filterUnits="userSpaceOnUse" color-interpolation-filters="sRGB">
<feFlood flood-opacity="0" result="BackgroundImageFix"/>
<feBlend mode="normal" in="SourceGraphic" in2="BackgroundImageFix" result="shape"/>
<feGaussianBlur stdDeviation="2" result="effect1_foregroundBlur_24_825"/>
</filter>
</defs>
</svg>
